%TF.GenerationSoftware,KiCad,Pcbnew,7.0.10*%
%TF.CreationDate,2024-10-16T21:33:48+11:00*%
%TF.ProjectId,ESP32-TestPatternGenerator,45535033-322d-4546-9573-745061747465,rev?*%
%TF.SameCoordinates,Original*%
%TF.FileFunction,Legend,Bot*%
%TF.FilePolarity,Positive*%
%FSLAX46Y46*%
G04 Gerber Fmt 4.6, Leading zero omitted, Abs format (unit mm)*
G04 Created by KiCad (PCBNEW 7.0.10) date 2024-10-16 21:33:48*
%MOMM*%
%LPD*%
G01*
G04 APERTURE LIST*
%ADD10C,0.300000*%
G04 APERTURE END LIST*
D10*
G36*
X109847500Y-127833314D02*
G01*
X111183996Y-127833314D01*
X111183996Y-127022550D01*
X110972971Y-127022550D01*
X110972971Y-127575760D01*
X110644708Y-127575760D01*
X110644708Y-127048195D01*
X110433682Y-127048195D01*
X110433682Y-127575760D01*
X110058525Y-127575760D01*
X110058525Y-127022550D01*
X109847500Y-127022550D01*
X109847500Y-127833314D01*
G37*
G36*
X110251966Y-125818677D02*
G01*
X110231678Y-125819034D01*
X110211892Y-125820106D01*
X110192608Y-125821893D01*
X110173827Y-125824395D01*
X110155548Y-125827612D01*
X110137772Y-125831544D01*
X110120497Y-125836190D01*
X110103726Y-125841552D01*
X110087456Y-125847628D01*
X110071689Y-125854419D01*
X110061456Y-125859343D01*
X110046523Y-125867255D01*
X110032086Y-125875739D01*
X110018144Y-125884797D01*
X110004698Y-125894428D01*
X109991749Y-125904632D01*
X109979295Y-125915410D01*
X109967337Y-125926760D01*
X109955875Y-125938684D01*
X109944908Y-125951181D01*
X109934438Y-125964251D01*
X109927733Y-125973282D01*
X109918145Y-125987266D01*
X109909027Y-126001739D01*
X109900379Y-126016701D01*
X109892202Y-126032153D01*
X109884494Y-126048094D01*
X109877257Y-126064524D01*
X109870489Y-126081444D01*
X109864192Y-126098854D01*
X109858365Y-126116753D01*
X109853008Y-126135141D01*
X109849698Y-126147672D01*
X109845115Y-126166727D01*
X109840982Y-126186110D01*
X109837301Y-126205822D01*
X109834070Y-126225862D01*
X109831290Y-126246231D01*
X109828961Y-126266928D01*
X109827083Y-126287953D01*
X109825655Y-126309307D01*
X109824678Y-126330990D01*
X109824152Y-126353000D01*
X109824052Y-126367857D01*
X109824149Y-126387713D01*
X109824439Y-126407441D01*
X109824922Y-126427040D01*
X109825598Y-126446511D01*
X109826467Y-126465852D01*
X109827530Y-126485065D01*
X109828786Y-126504149D01*
X109830235Y-126523104D01*
X109831877Y-126541930D01*
X109833712Y-126560627D01*
X109835043Y-126573021D01*
X109837164Y-126591549D01*
X109839543Y-126610038D01*
X109842179Y-126628488D01*
X109845072Y-126646900D01*
X109848224Y-126665274D01*
X109851633Y-126683608D01*
X109855299Y-126701904D01*
X109859223Y-126720162D01*
X109863405Y-126738381D01*
X109867844Y-126756561D01*
X109870947Y-126768659D01*
X110128867Y-126768659D01*
X110124332Y-126753792D01*
X110119887Y-126738728D01*
X110115531Y-126723467D01*
X110111265Y-126708009D01*
X110107088Y-126692354D01*
X110103000Y-126676503D01*
X110101390Y-126670107D01*
X110097463Y-126653955D01*
X110093698Y-126637786D01*
X110090093Y-126621598D01*
X110086650Y-126605392D01*
X110083367Y-126589169D01*
X110080245Y-126572928D01*
X110079042Y-126566426D01*
X110076163Y-126550178D01*
X110073482Y-126533947D01*
X110070997Y-126517734D01*
X110068709Y-126501540D01*
X110066618Y-126485363D01*
X110064723Y-126469204D01*
X110064021Y-126462745D01*
X110062438Y-126446683D01*
X110061123Y-126430781D01*
X110060076Y-126415041D01*
X110059298Y-126399461D01*
X110058788Y-126384043D01*
X110058547Y-126368786D01*
X110058525Y-126362728D01*
X110058703Y-126345108D01*
X110059235Y-126328152D01*
X110060122Y-126311860D01*
X110061365Y-126296233D01*
X110062962Y-126281269D01*
X110065457Y-126263498D01*
X110068507Y-126246765D01*
X110069883Y-126240362D01*
X110073637Y-126225019D01*
X110077804Y-126210588D01*
X110083346Y-126194475D01*
X110089482Y-126179676D01*
X110096209Y-126166190D01*
X110101024Y-126157930D01*
X110110190Y-126144827D01*
X110120057Y-126133406D01*
X110132193Y-126122416D01*
X110145245Y-126113623D01*
X110148651Y-126111768D01*
X110162916Y-126105357D01*
X110177868Y-126100777D01*
X110193508Y-126098029D01*
X110209834Y-126097114D01*
X110224791Y-126097811D01*
X110241724Y-126100490D01*
X110257549Y-126105179D01*
X110272266Y-126111876D01*
X110285876Y-126120583D01*
X110292266Y-126125690D01*
X110304485Y-126136913D01*
X110316137Y-126149423D01*
X110325414Y-126160833D01*
X110334297Y-126173137D01*
X110342788Y-126186335D01*
X110350884Y-126200428D01*
X110358773Y-126215176D01*
X110366412Y-126230567D01*
X110373800Y-126246603D01*
X110380937Y-126263283D01*
X110386467Y-126277090D01*
X110391837Y-126291309D01*
X110397046Y-126305941D01*
X110402221Y-126320727D01*
X110407487Y-126335594D01*
X110412845Y-126350540D01*
X110418295Y-126365567D01*
X110423836Y-126380674D01*
X110429469Y-126395861D01*
X110435194Y-126411128D01*
X110441010Y-126426475D01*
X110446969Y-126441742D01*
X110453123Y-126456952D01*
X110459471Y-126472105D01*
X110466014Y-126487200D01*
X110472752Y-126502238D01*
X110479684Y-126517219D01*
X110486811Y-126532142D01*
X110494132Y-126547009D01*
X110501775Y-126561560D01*
X110509863Y-126575723D01*
X110518398Y-126589496D01*
X110527380Y-126602879D01*
X110536808Y-126615874D01*
X110546683Y-126628479D01*
X110557004Y-126640695D01*
X110567772Y-126652522D01*
X110579112Y-126663787D01*
X110590967Y-126674504D01*
X110603338Y-126684670D01*
X110616223Y-126694287D01*
X110629624Y-126703355D01*
X110643540Y-126711873D01*
X110657972Y-126719841D01*
X110672918Y-126727260D01*
X110688517Y-126733872D01*
X110704906Y-126739602D01*
X110722085Y-126744451D01*
X110740054Y-126748418D01*
X110758813Y-126751503D01*
X110773401Y-126753239D01*
X110788433Y-126754478D01*
X110803910Y-126755222D01*
X110819830Y-126755470D01*
X110834525Y-126755216D01*
X110853888Y-126754085D01*
X110872988Y-126752050D01*
X110891824Y-126749111D01*
X110910397Y-126745267D01*
X110928707Y-126740518D01*
X110946753Y-126734865D01*
X110964536Y-126728308D01*
X110968941Y-126726527D01*
X110986337Y-126718782D01*
X111003173Y-126710018D01*
X111019447Y-126700235D01*
X111035161Y-126689433D01*
X111050313Y-126677612D01*
X111064905Y-126664772D01*
X111075481Y-126654473D01*
X111085741Y-126643602D01*
X111092405Y-126636035D01*
X111102107Y-126624120D01*
X111111429Y-126611593D01*
X111120371Y-126598455D01*
X111128933Y-126584704D01*
X111137115Y-126570342D01*
X111144917Y-126555368D01*
X111152339Y-126539782D01*
X111159381Y-126523584D01*
X111166043Y-126506775D01*
X111172326Y-126489354D01*
X111176303Y-126477400D01*
X111181868Y-126458845D01*
X111186886Y-126439588D01*
X111191356Y-126419630D01*
X111195279Y-126398969D01*
X111198655Y-126377607D01*
X111200601Y-126362975D01*
X111202304Y-126348031D01*
X111203764Y-126332776D01*
X111204980Y-126317208D01*
X111205954Y-126301328D01*
X111206683Y-126285137D01*
X111207170Y-126268633D01*
X111207413Y-126251818D01*
X111207444Y-126243293D01*
X111207366Y-126228064D01*
X111207135Y-126212604D01*
X111206748Y-126196912D01*
X111206207Y-126180988D01*
X111205512Y-126164832D01*
X111205245Y-126159395D01*
X111204507Y-126142961D01*
X111203666Y-126126629D01*
X111202721Y-126110400D01*
X111201673Y-126094274D01*
X111200523Y-126078251D01*
X111200116Y-126072933D01*
X111198966Y-126056975D01*
X111197712Y-126041249D01*
X111196355Y-126025754D01*
X111194896Y-126010491D01*
X111193333Y-125995460D01*
X111192789Y-125990502D01*
X111191140Y-125975771D01*
X111189217Y-125959204D01*
X111187294Y-125943304D01*
X111185370Y-125928069D01*
X111183996Y-125917595D01*
X110949523Y-125917595D01*
X110953924Y-125932319D01*
X110958149Y-125947638D01*
X110962198Y-125963554D01*
X110966073Y-125980066D01*
X110968208Y-125989769D01*
X110971290Y-126004559D01*
X110974218Y-126019530D01*
X110976992Y-126034681D01*
X110979611Y-126050013D01*
X110982075Y-126065525D01*
X110982862Y-126070735D01*
X110985219Y-126086410D01*
X110987345Y-126102111D01*
X110989238Y-126117837D01*
X110990899Y-126133590D01*
X110992329Y-126149368D01*
X110992754Y-126154633D01*
X110993999Y-126170303D01*
X110994987Y-126185716D01*
X110995717Y-126200872D01*
X110996189Y-126215770D01*
X110996414Y-126232825D01*
X110996418Y-126235233D01*
X110996240Y-126251588D01*
X110995708Y-126267313D01*
X110994821Y-126282408D01*
X110993213Y-126300392D01*
X110991050Y-126317391D01*
X110988332Y-126333407D01*
X110985061Y-126348439D01*
X110980643Y-126365308D01*
X110975632Y-126381017D01*
X110970030Y-126395567D01*
X110963834Y-126408958D01*
X110955858Y-126423116D01*
X110954652Y-126425010D01*
X110945719Y-126437221D01*
X110934436Y-126449288D01*
X110922008Y-126459340D01*
X110908436Y-126467378D01*
X110906659Y-126468241D01*
X110891981Y-126474011D01*
X110876525Y-126478132D01*
X110860291Y-126480605D01*
X110845447Y-126481417D01*
X110843278Y-126481430D01*
X110827903Y-126480438D01*
X110813379Y-126477463D01*
X110797508Y-126471485D01*
X110782795Y-126462807D01*
X110771104Y-126453220D01*
X110760044Y-126441859D01*
X110749397Y-126429211D01*
X110739161Y-126415275D01*
X110730947Y-126402678D01*
X110723019Y-126389186D01*
X110716882Y-126377749D01*
X110709406Y-126362799D01*
X110702091Y-126347259D01*
X110694938Y-126331128D01*
X110687945Y-126314408D01*
X110682467Y-126300606D01*
X110677091Y-126286427D01*
X110671819Y-126271869D01*
X110666547Y-126256986D01*
X110661172Y-126242011D01*
X110655693Y-126226944D01*
X110650112Y-126211786D01*
X110644428Y-126196536D01*
X110638640Y-126181194D01*
X110632750Y-126165761D01*
X110626756Y-126150236D01*
X110620694Y-126134632D01*
X110614414Y-126119141D01*
X110607917Y-126103765D01*
X110601202Y-126088504D01*
X110594270Y-126073357D01*
X110587120Y-126058325D01*
X110579753Y-126043407D01*
X110572168Y-126028603D01*
X110564268Y-126013960D01*
X110555956Y-125999706D01*
X110547232Y-125985842D01*
X110538096Y-125972366D01*
X110528548Y-125959280D01*
X110518587Y-125946584D01*
X110508215Y-125934276D01*
X110497430Y-125922358D01*
X110486187Y-125910926D01*
X110474440Y-125900078D01*
X110462190Y-125889814D01*
X110449436Y-125880134D01*
X110436178Y-125871038D01*
X110422417Y-125862526D01*
X110408151Y-125854598D01*
X110393382Y-125847253D01*
X110378109Y-125840555D01*
X110362150Y-125834751D01*
X110345503Y-125829839D01*
X110328169Y-125825821D01*
X110310149Y-125822695D01*
X110291441Y-125820463D01*
X110272047Y-125819123D01*
X110257050Y-125818705D01*
X110251966Y-125818677D01*
G37*
G36*
X110767807Y-124642786D02*
G01*
X110786697Y-124643515D01*
X110805176Y-124644868D01*
X110823242Y-124646847D01*
X110840896Y-124649449D01*
X110858138Y-124652677D01*
X110874968Y-124656529D01*
X110891386Y-124661006D01*
X110907391Y-124666108D01*
X110922985Y-124671834D01*
X110938166Y-124678185D01*
X110948051Y-124682756D01*
X110962507Y-124690095D01*
X110976520Y-124698014D01*
X110990088Y-124706513D01*
X111003211Y-124715591D01*
X111015891Y-124725249D01*
X111028126Y-124735486D01*
X111039916Y-124746303D01*
X111051262Y-124757700D01*
X111062164Y-124769676D01*
X111072622Y-124782232D01*
X111079342Y-124790922D01*
X111089036Y-124804429D01*
X111098267Y-124818502D01*
X111107034Y-124833142D01*
X111115337Y-124848349D01*
X111123177Y-124864123D01*
X111130553Y-124880464D01*
X111137465Y-124897371D01*
X111143914Y-124914845D01*
X111149899Y-124932885D01*
X111155420Y-124951492D01*
X111157178Y-124957796D01*
X111162118Y-124977064D01*
X111166555Y-124996865D01*
X111170490Y-125017202D01*
X111173922Y-125038073D01*
X111176852Y-125059478D01*
X111178527Y-125074046D01*
X111179978Y-125088850D01*
X111181206Y-125103893D01*
X111182210Y-125119173D01*
X111182992Y-125134690D01*
X111183550Y-125150445D01*
X111183885Y-125166438D01*
X111183996Y-125182668D01*
X111183996Y-125577243D01*
X109847500Y-125577243D01*
X109847500Y-125321887D01*
X110269551Y-125321887D01*
X110480577Y-125321887D01*
X110972971Y-125321887D01*
X110972971Y-125188897D01*
X110972906Y-125179952D01*
X110972391Y-125162527D01*
X110971361Y-125145720D01*
X110969815Y-125129531D01*
X110967754Y-125113961D01*
X110965178Y-125099008D01*
X110961234Y-125081188D01*
X110956484Y-125064333D01*
X110955440Y-125061053D01*
X110949799Y-125045193D01*
X110943461Y-125030227D01*
X110936426Y-125016156D01*
X110928692Y-125002979D01*
X110920261Y-124990696D01*
X110909223Y-124977138D01*
X110905325Y-124972902D01*
X110893012Y-124961018D01*
X110879771Y-124950370D01*
X110865603Y-124940959D01*
X110850508Y-124932785D01*
X110834485Y-124925847D01*
X110828997Y-124923762D01*
X110814938Y-124919138D01*
X110800396Y-124915354D01*
X110785371Y-124912411D01*
X110769863Y-124910309D01*
X110753872Y-124909048D01*
X110737398Y-124908628D01*
X110730158Y-124908698D01*
X110712422Y-124909487D01*
X110695203Y-124911152D01*
X110678504Y-124913694D01*
X110662324Y-124917113D01*
X110646662Y-124921408D01*
X110631519Y-124926580D01*
X110625663Y-124928889D01*
X110611473Y-124935240D01*
X110597928Y-124942413D01*
X110585027Y-124950410D01*
X110572769Y-124959229D01*
X110561156Y-124968871D01*
X110550186Y-124979336D01*
X110546035Y-124983704D01*
X110536194Y-124995174D01*
X110527122Y-125007432D01*
X110518820Y-125020476D01*
X110511287Y-125034308D01*
X110504523Y-125048927D01*
X110498529Y-125064333D01*
X110497424Y-125067508D01*
X110492428Y-125083833D01*
X110488308Y-125100910D01*
X110485065Y-125118738D01*
X110483101Y-125133541D01*
X110481699Y-125148825D01*
X110480857Y-125164591D01*
X110480577Y-125180836D01*
X110480577Y-125321887D01*
X110269551Y-125321887D01*
X110269551Y-125192927D01*
X110269691Y-125176065D01*
X110270112Y-125159461D01*
X110270813Y-125143115D01*
X110271795Y-125127027D01*
X110273057Y-125111196D01*
X110274600Y-125095622D01*
X110276423Y-125080307D01*
X110278527Y-125065249D01*
X110280911Y-125050448D01*
X110283576Y-125035905D01*
X110288099Y-125014574D01*
X110293253Y-124993822D01*
X110299038Y-124973650D01*
X110305455Y-124954057D01*
X110310100Y-124941277D01*
X110317487Y-124922612D01*
X110325376Y-124904552D01*
X110333767Y-124887097D01*
X110342661Y-124870248D01*
X110352057Y-124854004D01*
X110361955Y-124838366D01*
X110372356Y-124823333D01*
X110383259Y-124808905D01*
X110394664Y-124795083D01*
X110406571Y-124781866D01*
X110414816Y-124773345D01*
X110427532Y-124761068D01*
X110440666Y-124749397D01*
X110454219Y-124738331D01*
X110468191Y-124727870D01*
X110482581Y-124718015D01*
X110497390Y-124708765D01*
X110512617Y-124700120D01*
X110528263Y-124692081D01*
X110544328Y-124684647D01*
X110560811Y-124677818D01*
X110572002Y-124673559D01*
X110589025Y-124667686D01*
X110606331Y-124662431D01*
X110623921Y-124657794D01*
X110641794Y-124653776D01*
X110659951Y-124650375D01*
X110678391Y-124647593D01*
X110697114Y-124645429D01*
X110716121Y-124643884D01*
X110735411Y-124642956D01*
X110754984Y-124642647D01*
X110767807Y-124642786D01*
G37*
G36*
X110248302Y-123512047D02*
G01*
X110230063Y-123512376D01*
X110212165Y-123513361D01*
X110194609Y-123515003D01*
X110177393Y-123517302D01*
X110160519Y-123520258D01*
X110143987Y-123523871D01*
X110127796Y-123528141D01*
X110111946Y-123533067D01*
X110096437Y-123538651D01*
X110081270Y-123544891D01*
X110071348Y-123549416D01*
X110056851Y-123556705D01*
X110042759Y-123564696D01*
X110029073Y-123573389D01*
X110015792Y-123582784D01*
X110002918Y-123592881D01*
X109990449Y-123603680D01*
X109978386Y-123615181D01*
X109966728Y-123627383D01*
X109955476Y-123640288D01*
X109944630Y-123653895D01*
X109937625Y-123663356D01*
X109927547Y-123678064D01*
X109917919Y-123693473D01*
X109908742Y-123709585D01*
X109900016Y-123726399D01*
X109891740Y-123743915D01*
X109883916Y-123762132D01*
X109876542Y-123781052D01*
X109869619Y-123800674D01*
X109863147Y-123820997D01*
X109857125Y-123842023D01*
X109853361Y-123856430D01*
X109849812Y-123871110D01*
X109846492Y-123886117D01*
X109843401Y-123901450D01*
X109840539Y-123917109D01*
X109837905Y-123933094D01*
X109835501Y-123949406D01*
X109833326Y-123966044D01*
X109831379Y-123983009D01*
X109829662Y-124000299D01*
X109828174Y-124017916D01*
X109826914Y-124035859D01*
X109825884Y-124054129D01*
X109825083Y-124072725D01*
X109824510Y-124091647D01*
X109824167Y-124110895D01*
X109824052Y-124130470D01*
X109824140Y-124145890D01*
X109824403Y-124161696D01*
X109824841Y-124177887D01*
X109825455Y-124194464D01*
X109825884Y-124204109D01*
X109826738Y-124220922D01*
X109827697Y-124237699D01*
X109828762Y-124254441D01*
X109829931Y-124271148D01*
X109830647Y-124280679D01*
X109831982Y-124297261D01*
X109833422Y-124313668D01*
X109834967Y-124329899D01*
X109836617Y-124345955D01*
X109837608Y-124355051D01*
X109839458Y-124370426D01*
X109841485Y-124385135D01*
X109844015Y-124401129D01*
X109846774Y-124416253D01*
X109847500Y-124419898D01*
X110058525Y-124419898D01*
X110056018Y-124403434D01*
X110053625Y-124386467D01*
X110051347Y-124368996D01*
X110049183Y-124351021D01*
X110047134Y-124332543D01*
X110045199Y-124313561D01*
X110043378Y-124294075D01*
X110042088Y-124279130D01*
X110041673Y-124274085D01*
X110040494Y-124258846D01*
X110039431Y-124243491D01*
X110038485Y-124228020D01*
X110037654Y-124212433D01*
X110036939Y-124196730D01*
X110036340Y-124180911D01*
X110035857Y-124164976D01*
X110035490Y-124148926D01*
X110035239Y-124132759D01*
X110035104Y-124116477D01*
X110035078Y-124105557D01*
X110035200Y-124089758D01*
X110035567Y-124074371D01*
X110036179Y-124059395D01*
X110037376Y-124040070D01*
X110039007Y-124021477D01*
X110041074Y-124003616D01*
X110043575Y-123986489D01*
X110046512Y-123970094D01*
X110049000Y-123958279D01*
X110052675Y-123943143D01*
X110056739Y-123928695D01*
X110062367Y-123911600D01*
X110068603Y-123895579D01*
X110075447Y-123880631D01*
X110082900Y-123866757D01*
X110089300Y-123856430D01*
X110097847Y-123844355D01*
X110108907Y-123831234D01*
X110120842Y-123819608D01*
X110133654Y-123809476D01*
X110147341Y-123800837D01*
X110154513Y-123797079D01*
X110169548Y-123790604D01*
X110185253Y-123785469D01*
X110201628Y-123781674D01*
X110218672Y-123779218D01*
X110233388Y-123778195D01*
X110242440Y-123778028D01*
X110258493Y-123778723D01*
X110273953Y-123780810D01*
X110288821Y-123784287D01*
X110303096Y-123789156D01*
X110316779Y-123795416D01*
X110321209Y-123797811D01*
X110334149Y-123805827D01*
X110346316Y-123815311D01*
X110357710Y-123826263D01*
X110368332Y-123838684D01*
X110378181Y-123852573D01*
X110381292Y-123857529D01*
X110388800Y-123870563D01*
X110395754Y-123884706D01*
X110402152Y-123899958D01*
X110407997Y-123916319D01*
X110413287Y-123933789D01*
X110417119Y-123948564D01*
X110419760Y-123960111D01*
X110423023Y-123976042D01*
X110425851Y-123992694D01*
X110428244Y-124010068D01*
X110430202Y-124028163D01*
X110431725Y-124046979D01*
X110432812Y-124066517D01*
X110433342Y-124081643D01*
X110433628Y-124097175D01*
X110433682Y-124107756D01*
X110433682Y-124257232D01*
X110621261Y-124257232D01*
X110621261Y-124120212D01*
X110621403Y-124105344D01*
X110622032Y-124086282D01*
X110623166Y-124068089D01*
X110624803Y-124050767D01*
X110626944Y-124034315D01*
X110629588Y-124018733D01*
X110632737Y-124004021D01*
X110637381Y-123986855D01*
X110642801Y-123970782D01*
X110648758Y-123955764D01*
X110655252Y-123941802D01*
X110662282Y-123928895D01*
X110671427Y-123914800D01*
X110681345Y-123902225D01*
X110691996Y-123891054D01*
X110703344Y-123881171D01*
X110715386Y-123872575D01*
X110728125Y-123865268D01*
X110741559Y-123859249D01*
X110746191Y-123857529D01*
X110760333Y-123852922D01*
X110774733Y-123849268D01*
X110789391Y-123846568D01*
X110804306Y-123844820D01*
X110819478Y-123844026D01*
X110824593Y-123843973D01*
X110840035Y-123844447D01*
X110854762Y-123845867D01*
X110873287Y-123849233D01*
X110890540Y-123854282D01*
X110906523Y-123861013D01*
X110921234Y-123869428D01*
X110934675Y-123879526D01*
X110946846Y-123891307D01*
X110952454Y-123897829D01*
X110962758Y-123912117D01*
X110971688Y-123928237D01*
X110979245Y-123946189D01*
X110984010Y-123960855D01*
X110988003Y-123976551D01*
X110991223Y-123993278D01*
X110993670Y-124011035D01*
X110995345Y-124029823D01*
X110996246Y-124049641D01*
X110996418Y-124063425D01*
X110996305Y-124078519D01*
X110995967Y-124093573D01*
X110995404Y-124108589D01*
X110994615Y-124123566D01*
X110993600Y-124138505D01*
X110992361Y-124153405D01*
X110990896Y-124168266D01*
X110989205Y-124183089D01*
X110987289Y-124197873D01*
X110985148Y-124212619D01*
X110983595Y-124222428D01*
X110981117Y-124237108D01*
X110978490Y-124251884D01*
X110975716Y-124266757D01*
X110972793Y-124281727D01*
X110969722Y-124296793D01*
X110966503Y-124311956D01*
X110963136Y-124327216D01*
X110959621Y-124342572D01*
X110955958Y-124358025D01*
X110952146Y-124373574D01*
X110949523Y-124383994D01*
X111160549Y-124383994D01*
X111164449Y-124369561D01*
X111168134Y-124355343D01*
X111172273Y-124338565D01*
X111176102Y-124322096D01*
X111179623Y-124305936D01*
X111181798Y-124295334D01*
X111184868Y-124279535D01*
X111187757Y-124263735D01*
X111190466Y-124247936D01*
X111192995Y-124232136D01*
X111195344Y-124216337D01*
X111196086Y-124211070D01*
X111198293Y-124195108D01*
X111200242Y-124179094D01*
X111201934Y-124163028D01*
X111203368Y-124146911D01*
X111204544Y-124130742D01*
X111204879Y-124125341D01*
X111205751Y-124109013D01*
X111206442Y-124092454D01*
X111206953Y-124075663D01*
X111207283Y-124058640D01*
X111207434Y-124041385D01*
X111207444Y-124035582D01*
X111207231Y-124014941D01*
X111206594Y-123994782D01*
X111205531Y-123975107D01*
X111204043Y-123955915D01*
X111202131Y-123937205D01*
X111199793Y-123918979D01*
X111197030Y-123901236D01*
X111193842Y-123883976D01*
X111190230Y-123867198D01*
X111186192Y-123850904D01*
X111183264Y-123840310D01*
X111178618Y-123824814D01*
X111173612Y-123809788D01*
X111168246Y-123795233D01*
X111162518Y-123781148D01*
X111156430Y-123767532D01*
X111147752Y-123750110D01*
X111138433Y-123733523D01*
X111128472Y-123717773D01*
X111117870Y-123702858D01*
X111115120Y-123699259D01*
X111103820Y-123685412D01*
X111091902Y-123672446D01*
X111079365Y-123660362D01*
X111066210Y-123649159D01*
X111052437Y-123638838D01*
X111038046Y-123629398D01*
X111023037Y-123620840D01*
X111007409Y-123613164D01*
X110991335Y-123606380D01*
X110974802Y-123600501D01*
X110957812Y-123595527D01*
X110940364Y-123591457D01*
X110922458Y-123588291D01*
X110904094Y-123586030D01*
X110885272Y-123584673D01*
X110865992Y-123584221D01*
X110850698Y-123584440D01*
X110835773Y-123585097D01*
X110814078Y-123586903D01*
X110793213Y-123589695D01*
X110773179Y-123593472D01*
X110753976Y-123598234D01*
X110735604Y-123603982D01*
X110718063Y-123610715D01*
X110701352Y-123618433D01*
X110685472Y-123627137D01*
X110670423Y-123636826D01*
X110665591Y-123640275D01*
X110651615Y-123651181D01*
X110638264Y-123662879D01*
X110625537Y-123675369D01*
X110613436Y-123688652D01*
X110601958Y-123702727D01*
X110591106Y-123717593D01*
X110580878Y-123733252D01*
X110571275Y-123749703D01*
X110562297Y-123766946D01*
X110553943Y-123784981D01*
X110548721Y-123797445D01*
X110545927Y-123781428D01*
X110542676Y-123765800D01*
X110538966Y-123750562D01*
X110534799Y-123735713D01*
X110530174Y-123721253D01*
X110525090Y-123707182D01*
X110519549Y-123693501D01*
X110513550Y-123680208D01*
X110505521Y-123664098D01*
X110496777Y-123648738D01*
X110487317Y-123634130D01*
X110477142Y-123620274D01*
X110466252Y-123607168D01*
X110454645Y-123594814D01*
X110449802Y-123590083D01*
X110437380Y-123578720D01*
X110424386Y-123568215D01*
X110410819Y-123558570D01*
X110396680Y-123549783D01*
X110381968Y-123541854D01*
X110366683Y-123534785D01*
X110360409Y-123532197D01*
X110344342Y-123526392D01*
X110327737Y-123521571D01*
X110310596Y-123517734D01*
X110292918Y-123514881D01*
X110274704Y-123513011D01*
X110259746Y-123512224D01*
X110248302Y-123512047D01*
G37*
G36*
X109847500Y-123276841D02*
G01*
X110035444Y-123276841D01*
X110347953Y-122958471D01*
X110358986Y-122947391D01*
X110369826Y-122936592D01*
X110380475Y-122926073D01*
X110396089Y-122910821D01*
X110411271Y-122896200D01*
X110426022Y-122882211D01*
X110440341Y-122868852D01*
X110454229Y-122856124D01*
X110467686Y-122844028D01*
X110480710Y-122832562D01*
X110493304Y-122821728D01*
X110501460Y-122814856D01*
X110513427Y-122804908D01*
X110525150Y-122795399D01*
X110540400Y-122783400D01*
X110555215Y-122772180D01*
X110569595Y-122761739D01*
X110583540Y-122752076D01*
X110597049Y-122743192D01*
X110610124Y-122735086D01*
X110616498Y-122731325D01*
X110632215Y-122722658D01*
X110647539Y-122714975D01*
X110662469Y-122708275D01*
X110677005Y-122702560D01*
X110691148Y-122697828D01*
X110707600Y-122693449D01*
X110710287Y-122692857D01*
X110726478Y-122689620D01*
X110742900Y-122687052D01*
X110759553Y-122685154D01*
X110776439Y-122683927D01*
X110793557Y-122683368D01*
X110799314Y-122683331D01*
X110814543Y-122683927D01*
X110829457Y-122685715D01*
X110844056Y-122688696D01*
X110858339Y-122692868D01*
X110866359Y-122695788D01*
X110880025Y-122701781D01*
X110894571Y-122709961D01*
X110907972Y-122719561D01*
X110920228Y-122730580D01*
X110921680Y-122732058D01*
X110932808Y-122744583D01*
X110941568Y-122756857D01*
X110949417Y-122770359D01*
X110956355Y-122785087D01*
X110959049Y-122791775D01*
X110964473Y-122807974D01*
X110968063Y-122822640D01*
X110970673Y-122838027D01*
X110972304Y-122854136D01*
X110972957Y-122870966D01*
X110972971Y-122873841D01*
X110972690Y-122888647D01*
X110971445Y-122908079D01*
X110969204Y-122927156D01*
X110965967Y-122945877D01*
X110961734Y-122964244D01*
X110956505Y-122982256D01*
X110950279Y-122999913D01*
X110943058Y-123017215D01*
X110941097Y-123021485D01*
X110932791Y-123038321D01*
X110923809Y-123054939D01*
X110914152Y-123071340D01*
X110903819Y-123087523D01*
X110892811Y-123103488D01*
X110884112Y-123115319D01*
X110875032Y-123127028D01*
X110865573Y-123138615D01*
X110855734Y-123150079D01*
X111027559Y-123283070D01*
X111037644Y-123272039D01*
X111047474Y-123260836D01*
X111057050Y-123249461D01*
X111066371Y-123237915D01*
X111075437Y-123226197D01*
X111084248Y-123214308D01*
X111092805Y-123202246D01*
X111101106Y-123190013D01*
X111109154Y-123177608D01*
X111116946Y-123165032D01*
X111124484Y-123152283D01*
X111131767Y-123139363D01*
X111138795Y-123126271D01*
X111145568Y-123113008D01*
X111152087Y-123099573D01*
X111158351Y-123085966D01*
X111164296Y-123072157D01*
X111169857Y-123058208D01*
X111175035Y-123044118D01*
X111179829Y-123029889D01*
X111184240Y-123015519D01*
X111188267Y-123001009D01*
X111191910Y-122986359D01*
X111195170Y-122971568D01*
X111198047Y-122956638D01*
X111200540Y-122941567D01*
X111202649Y-122926355D01*
X111204375Y-122911004D01*
X111205718Y-122895512D01*
X111206677Y-122879880D01*
X111207252Y-122864108D01*
X111207444Y-122848195D01*
X111207221Y-122829812D01*
X111206555Y-122811758D01*
X111205444Y-122794032D01*
X111203889Y-122776634D01*
X111201889Y-122759565D01*
X111199445Y-122742824D01*
X111196557Y-122726412D01*
X111193224Y-122710328D01*
X111189447Y-122694572D01*
X111185226Y-122679145D01*
X111182165Y-122669043D01*
X111177281Y-122654202D01*
X111171972Y-122639767D01*
X111166238Y-122625737D01*
X111160080Y-122612113D01*
X111153496Y-122598895D01*
X111144056Y-122581902D01*
X111133861Y-122565631D01*
X111122910Y-122550080D01*
X111111204Y-122535251D01*
X111108159Y-122531656D01*
X111095502Y-122517769D01*
X111082078Y-122504683D01*
X111067888Y-122492398D01*
X111052930Y-122480915D01*
X111037205Y-122470233D01*
X111020712Y-122460353D01*
X111003453Y-122451274D01*
X110990005Y-122444991D01*
X110985427Y-122442996D01*
X110971420Y-122437366D01*
X110957014Y-122432289D01*
X110942208Y-122427766D01*
X110927003Y-122423797D01*
X110911399Y-122420381D01*
X110895396Y-122417520D01*
X110878993Y-122415212D01*
X110862191Y-122413458D01*
X110844990Y-122412258D01*
X110827389Y-122411612D01*
X110815434Y-122411489D01*
X110800552Y-122411679D01*
X110785857Y-122412249D01*
X110766554Y-122413600D01*
X110747584Y-122415626D01*
X110728945Y-122418328D01*
X110710638Y-122421706D01*
X110692663Y-122425759D01*
X110675021Y-122430487D01*
X110666324Y-122433104D01*
X110649156Y-122438817D01*
X110632091Y-122445149D01*
X110615130Y-122452098D01*
X110598271Y-122459666D01*
X110581516Y-122467852D01*
X110564864Y-122476656D01*
X110548314Y-122486078D01*
X110531868Y-122496119D01*
X110515559Y-122506681D01*
X110503320Y-122515000D01*
X110491074Y-122523661D01*
X110478822Y-122532663D01*
X110466564Y-122542006D01*
X110454299Y-122551691D01*
X110442027Y-122561717D01*
X110429749Y-122572084D01*
X110417465Y-122582793D01*
X110405174Y-122593843D01*
X110401076Y-122597602D01*
X110388719Y-122609019D01*
X110376239Y-122620739D01*
X110363637Y-122632761D01*
X110350913Y-122645086D01*
X110338066Y-122657714D01*
X110325097Y-122670644D01*
X110312005Y-122683878D01*
X110298792Y-122697413D01*
X110285455Y-122711252D01*
X110271997Y-122725393D01*
X110262957Y-122734989D01*
X110081973Y-122930627D01*
X110081973Y-122362763D01*
X109847500Y-122362763D01*
X109847500Y-123276841D01*
G37*
G36*
X110292998Y-121996765D02*
G01*
X110527472Y-121996765D01*
X110527472Y-121355994D01*
X110292998Y-121355994D01*
X110292998Y-121996765D01*
G37*
G36*
X110972971Y-120393188D02*
G01*
X109847500Y-120393188D01*
X109847500Y-120652940D01*
X110972971Y-120652940D01*
X110972971Y-121021869D01*
X111183996Y-121021869D01*
X111183996Y-120024259D01*
X110972971Y-120024259D01*
X110972971Y-120393188D01*
G37*
G36*
X110473460Y-118894876D02*
G01*
X110492219Y-118895492D01*
X110510688Y-118896636D01*
X110528867Y-118898308D01*
X110546756Y-118900509D01*
X110564355Y-118903237D01*
X110581665Y-118906493D01*
X110598685Y-118910278D01*
X110615415Y-118914591D01*
X110631855Y-118919431D01*
X110648005Y-118924800D01*
X110658584Y-118928620D01*
X110674109Y-118934763D01*
X110689221Y-118941401D01*
X110703922Y-118948536D01*
X110718210Y-118956166D01*
X110732086Y-118964292D01*
X110745550Y-118972914D01*
X110758602Y-118982032D01*
X110771241Y-118991646D01*
X110783469Y-119001756D01*
X110795284Y-119012361D01*
X110802916Y-119019661D01*
X110813962Y-119031025D01*
X110824524Y-119042884D01*
X110834604Y-119055239D01*
X110844201Y-119068090D01*
X110853314Y-119081437D01*
X110861945Y-119095280D01*
X110870093Y-119109618D01*
X110877757Y-119124453D01*
X110884939Y-119139783D01*
X110891638Y-119155610D01*
X110895808Y-119166382D01*
X110901559Y-119182921D01*
X110906704Y-119199917D01*
X110911245Y-119217370D01*
X110915179Y-119235281D01*
X110918509Y-119253649D01*
X110921233Y-119272474D01*
X110923352Y-119291757D01*
X110924865Y-119311496D01*
X110925773Y-119331693D01*
X110926076Y-119352347D01*
X110925916Y-119366279D01*
X110925074Y-119386871D01*
X110923511Y-119407096D01*
X110921227Y-119426954D01*
X110918222Y-119446444D01*
X110914495Y-119465568D01*
X110910047Y-119484324D01*
X110904878Y-119502714D01*
X110898988Y-119520736D01*
X110892376Y-119538391D01*
X110885043Y-119555679D01*
X110879779Y-119566977D01*
X110871380Y-119583525D01*
X110862374Y-119599597D01*
X110852764Y-119615193D01*
X110842548Y-119630312D01*
X110831726Y-119644954D01*
X110820300Y-119659120D01*
X110808268Y-119672809D01*
X110795630Y-119686022D01*
X110782387Y-119698758D01*
X110768539Y-119711018D01*
X110759032Y-119718875D01*
X110744327Y-119730241D01*
X110729086Y-119741106D01*
X110713312Y-119751468D01*
X110697002Y-119761327D01*
X110680159Y-119770684D01*
X110662780Y-119779539D01*
X110644867Y-119787892D01*
X110626420Y-119795743D01*
X110607438Y-119803091D01*
X110587922Y-119809936D01*
X110574642Y-119814151D01*
X110554385Y-119819963D01*
X110533723Y-119825163D01*
X110512654Y-119829752D01*
X110491180Y-119833728D01*
X110476639Y-119836040D01*
X110461917Y-119838079D01*
X110447015Y-119839846D01*
X110431932Y-119841342D01*
X110416669Y-119842566D01*
X110401226Y-119843517D01*
X110385603Y-119844197D01*
X110369799Y-119844605D01*
X110353815Y-119844741D01*
X110337724Y-119844605D01*
X110321873Y-119844197D01*
X110306262Y-119843517D01*
X110290892Y-119842566D01*
X110275762Y-119841342D01*
X110260873Y-119839846D01*
X110246224Y-119838079D01*
X110224702Y-119834918D01*
X110203720Y-119831145D01*
X110183280Y-119826761D01*
X110163380Y-119821764D01*
X110144021Y-119816156D01*
X110125204Y-119809936D01*
X110113008Y-119805420D01*
X110095175Y-119798194D01*
X110077897Y-119790427D01*
X110061172Y-119782120D01*
X110045001Y-119773271D01*
X110029384Y-119763882D01*
X110014321Y-119753951D01*
X109999812Y-119743480D01*
X109985856Y-119732467D01*
X109972455Y-119720914D01*
X109959607Y-119708820D01*
X109951354Y-119700463D01*
X109939452Y-119687505D01*
X109928123Y-119674038D01*
X109917367Y-119660062D01*
X109907184Y-119645578D01*
X109897574Y-119630584D01*
X109888538Y-119615082D01*
X109880075Y-119599071D01*
X109872185Y-119582551D01*
X109864868Y-119565523D01*
X109858124Y-119547986D01*
X109852035Y-119529979D01*
X109846545Y-119511540D01*
X109841654Y-119492669D01*
X109837362Y-119473368D01*
X109833668Y-119453635D01*
X109830574Y-119433470D01*
X109828078Y-119412874D01*
X109826182Y-119391846D01*
X109824884Y-119370387D01*
X109824185Y-119348496D01*
X109824052Y-119333663D01*
X109824065Y-119327742D01*
X109824210Y-119312828D01*
X109824516Y-119297753D01*
X109824983Y-119282517D01*
X109825611Y-119267120D01*
X109826400Y-119251562D01*
X109827349Y-119235843D01*
X109827775Y-119229528D01*
X109828950Y-119213777D01*
X109830286Y-119198079D01*
X109831783Y-119182435D01*
X109833442Y-119166845D01*
X109835261Y-119151309D01*
X109837241Y-119135826D01*
X109838073Y-119129652D01*
X109840214Y-119114293D01*
X109842445Y-119099041D01*
X109844765Y-119083896D01*
X109847175Y-119068859D01*
X109849674Y-119053929D01*
X109852262Y-119039106D01*
X109853323Y-119033225D01*
X109856590Y-119015910D01*
X109859986Y-118999085D01*
X109863511Y-118982749D01*
X109867164Y-118966902D01*
X109870947Y-118951545D01*
X110081973Y-118951545D01*
X110078913Y-118963243D01*
X110074527Y-118980693D01*
X110070386Y-118998027D01*
X110066490Y-119015246D01*
X110062839Y-119032348D01*
X110059432Y-119049335D01*
X110056270Y-119066205D01*
X110053353Y-119082960D01*
X110050680Y-119099599D01*
X110048252Y-119116122D01*
X110046069Y-119132529D01*
X110044105Y-119148716D01*
X110042334Y-119164716D01*
X110040756Y-119180529D01*
X110039371Y-119196156D01*
X110038180Y-119211596D01*
X110037182Y-119226849D01*
X110036377Y-119241915D01*
X110035765Y-119256795D01*
X110035250Y-119276344D01*
X110035078Y-119295561D01*
X110035150Y-119303758D01*
X110035722Y-119319878D01*
X110036867Y-119335632D01*
X110038584Y-119351019D01*
X110040874Y-119366040D01*
X110043736Y-119380695D01*
X110048119Y-119398498D01*
X110053396Y-119415728D01*
X110055796Y-119422446D01*
X110062360Y-119438714D01*
X110069728Y-119454231D01*
X110077901Y-119468996D01*
X110086880Y-119483011D01*
X110096663Y-119496273D01*
X110107252Y-119508785D01*
X110111760Y-119513526D01*
X110123606Y-119524791D01*
X110136275Y-119535215D01*
X110149766Y-119544798D01*
X110164081Y-119553540D01*
X110179219Y-119561441D01*
X110195179Y-119568502D01*
X110205147Y-119572234D01*
X110222405Y-119577638D01*
X110236790Y-119581228D01*
X110251691Y-119584164D01*
X110267107Y-119586448D01*
X110283038Y-119588080D01*
X110299484Y-119589059D01*
X110316446Y-119589385D01*
X110316446Y-119150114D01*
X110504024Y-119150114D01*
X110504024Y-119584989D01*
X110517794Y-119583376D01*
X110537709Y-119580232D01*
X110556735Y-119576219D01*
X110574872Y-119571336D01*
X110592121Y-119565584D01*
X110608480Y-119558963D01*
X110623951Y-119551472D01*
X110638534Y-119543112D01*
X110652227Y-119533882D01*
X110665032Y-119523783D01*
X110676948Y-119512815D01*
X110684401Y-119505080D01*
X110694680Y-119492978D01*
X110703876Y-119480277D01*
X110711990Y-119466977D01*
X110719023Y-119453079D01*
X110724973Y-119438581D01*
X110729842Y-119423485D01*
X110733629Y-119407790D01*
X110736334Y-119391495D01*
X110737956Y-119374602D01*
X110738497Y-119357110D01*
X110738443Y-119351729D01*
X110737627Y-119335861D01*
X110735833Y-119320405D01*
X110733059Y-119305361D01*
X110729307Y-119290729D01*
X110724576Y-119276510D01*
X110722777Y-119271830D01*
X110716676Y-119258237D01*
X110709519Y-119245315D01*
X110701306Y-119233061D01*
X110692036Y-119221478D01*
X110681711Y-119210564D01*
X110678032Y-119207041D01*
X110666255Y-119197055D01*
X110653371Y-119187944D01*
X110639379Y-119179710D01*
X110624279Y-119172351D01*
X110608072Y-119165868D01*
X110599625Y-119162928D01*
X110584945Y-119158701D01*
X110569514Y-119155315D01*
X110553332Y-119152769D01*
X110536398Y-119151064D01*
X110518713Y-119150200D01*
X110504024Y-119150114D01*
X110316446Y-119150114D01*
X110316446Y-118900987D01*
X110330090Y-118899814D01*
X110346464Y-118898610D01*
X110363329Y-118897580D01*
X110378175Y-118896838D01*
X110393382Y-118896224D01*
X110395955Y-118896134D01*
X110413120Y-118895583D01*
X110428813Y-118895172D01*
X110444944Y-118894874D01*
X110460793Y-118894758D01*
X110473460Y-118894876D01*
G37*
G36*
X110158543Y-117789804D02*
G01*
X110141811Y-117790155D01*
X110125549Y-117791208D01*
X110109757Y-117792963D01*
X110094435Y-117795419D01*
X110079583Y-117798578D01*
X110065201Y-117802439D01*
X110046757Y-117808679D01*
X110029149Y-117816166D01*
X110012376Y-117824902D01*
X110004303Y-117829737D01*
X109988733Y-117840036D01*
X109973895Y-117851147D01*
X109959790Y-117863071D01*
X109946418Y-117875808D01*
X109933778Y-117889357D01*
X109921871Y-117903720D01*
X109910697Y-117918896D01*
X109900256Y-117934884D01*
X109890616Y-117951468D01*
X109881663Y-117968612D01*
X109873397Y-117986318D01*
X109867648Y-117999965D01*
X109862286Y-118013928D01*
X109857310Y-118028207D01*
X109852720Y-118042801D01*
X109848517Y-118057711D01*
X109844700Y-118072936D01*
X109842370Y-118083261D01*
X109839097Y-118098818D01*
X109836145Y-118114440D01*
X109833515Y-118130125D01*
X109831208Y-118145875D01*
X109829222Y-118161690D01*
X109827558Y-118177569D01*
X109826217Y-118193512D01*
X109825197Y-118209520D01*
X109824499Y-118225592D01*
X109824124Y-118241728D01*
X109824052Y-118252522D01*
X109824107Y-118273961D01*
X109824271Y-118295000D01*
X109824545Y-118315640D01*
X109824928Y-118335881D01*
X109825421Y-118355723D01*
X109826023Y-118375165D01*
X109826734Y-118394208D01*
X109827556Y-118412852D01*
X109828486Y-118431096D01*
X109829526Y-118448942D01*
X109830280Y-118460617D01*
X109831428Y-118477906D01*
X109832672Y-118495015D01*
X109834012Y-118511943D01*
X109835450Y-118528692D01*
X109836983Y-118545260D01*
X109838614Y-118561647D01*
X109840341Y-118577855D01*
X109842164Y-118593882D01*
X109844085Y-118609728D01*
X109846101Y-118625395D01*
X109847500Y-118635739D01*
X110081973Y-118635739D01*
X110075212Y-118617607D01*
X110068805Y-118599482D01*
X110062752Y-118581363D01*
X110057054Y-118563250D01*
X110051710Y-118545144D01*
X110046720Y-118527045D01*
X110042084Y-118508951D01*
X110037803Y-118490865D01*
X110033876Y-118472784D01*
X110030302Y-118454710D01*
X110028117Y-118442665D01*
X110025171Y-118424692D01*
X110022514Y-118406906D01*
X110020148Y-118389306D01*
X110018071Y-118371894D01*
X110016284Y-118354668D01*
X110014786Y-118337628D01*
X110013579Y-118320776D01*
X110012661Y-118304110D01*
X110012033Y-118287632D01*
X110011695Y-118271339D01*
X110011631Y-118260582D01*
X110011924Y-118242476D01*
X110012803Y-118225252D01*
X110014268Y-118208910D01*
X110016319Y-118193451D01*
X110018956Y-118178874D01*
X110023384Y-118160811D01*
X110028854Y-118144316D01*
X110035365Y-118129389D01*
X110042919Y-118116031D01*
X110044970Y-118112937D01*
X110055995Y-118098794D01*
X110068004Y-118087048D01*
X110080996Y-118077699D01*
X110094973Y-118070748D01*
X110109933Y-118066193D01*
X110125878Y-118064036D01*
X110132531Y-118063844D01*
X110148427Y-118065056D01*
X110163370Y-118068693D01*
X110176128Y-118074102D01*
X110188314Y-118082303D01*
X110198976Y-118092742D01*
X110208209Y-118104454D01*
X110213864Y-118112937D01*
X110221913Y-118126401D01*
X110228868Y-118139727D01*
X110235875Y-118154703D01*
X110241753Y-118168441D01*
X110247667Y-118183325D01*
X110251233Y-118192804D01*
X110257408Y-118209620D01*
X110262503Y-118224206D01*
X110267735Y-118239799D01*
X110273105Y-118256400D01*
X110278612Y-118274008D01*
X110284256Y-118292624D01*
X110288579Y-118307247D01*
X110292980Y-118322437D01*
X110294464Y-118327626D01*
X110298634Y-118341953D01*
X110304344Y-118360535D01*
X110310226Y-118378521D01*
X110316279Y-118395912D01*
X110322505Y-118412707D01*
X110328902Y-118428908D01*
X110335471Y-118444512D01*
X110342211Y-118459522D01*
X110343923Y-118463181D01*
X110350947Y-118477429D01*
X110358280Y-118491048D01*
X110365922Y-118504037D01*
X110373873Y-118516396D01*
X110384247Y-118530959D01*
X110395104Y-118544538D01*
X110406444Y-118557134D01*
X110408770Y-118559535D01*
X110420743Y-118570977D01*
X110433306Y-118581488D01*
X110446460Y-118591070D01*
X110460204Y-118599721D01*
X110474538Y-118607441D01*
X110489463Y-118614232D01*
X110495598Y-118616688D01*
X110511465Y-118622176D01*
X110528156Y-118626734D01*
X110545669Y-118630362D01*
X110560272Y-118632595D01*
X110575402Y-118634232D01*
X110591058Y-118635274D01*
X110607241Y-118635720D01*
X110611369Y-118635739D01*
X110627375Y-118635292D01*
X110643151Y-118633953D01*
X110658699Y-118631720D01*
X110674017Y-118628595D01*
X110689107Y-118624576D01*
X110703968Y-118619665D01*
X110718599Y-118613860D01*
X110733002Y-118607162D01*
X110747067Y-118599486D01*
X110760685Y-118590928D01*
X110773857Y-118581488D01*
X110786583Y-118571167D01*
X110798862Y-118559964D01*
X110810694Y-118547880D01*
X110822080Y-118534914D01*
X110833019Y-118521067D01*
X110843541Y-118506252D01*
X110853490Y-118490567D01*
X110862867Y-118474012D01*
X110871671Y-118456587D01*
X110877898Y-118442947D01*
X110883804Y-118428817D01*
X110889387Y-118414199D01*
X110894649Y-118399090D01*
X110899588Y-118383493D01*
X110901163Y-118378185D01*
X110905615Y-118361922D01*
X110909630Y-118345143D01*
X110913206Y-118327850D01*
X110916344Y-118310041D01*
X110919045Y-118291717D01*
X110921307Y-118272878D01*
X110923132Y-118253524D01*
X110924519Y-118233654D01*
X110925468Y-118213269D01*
X110925979Y-118192369D01*
X110926076Y-118178150D01*
X110926012Y-118159802D01*
X110925818Y-118141854D01*
X110925496Y-118124305D01*
X110925046Y-118107155D01*
X110924466Y-118090405D01*
X110923758Y-118074054D01*
X110922920Y-118058102D01*
X110921954Y-118042549D01*
X110920860Y-118027396D01*
X110919636Y-118012642D01*
X110918749Y-118003028D01*
X110916894Y-117984252D01*
X110914993Y-117966025D01*
X110913047Y-117948348D01*
X110911055Y-117931220D01*
X110909017Y-117914642D01*
X110906933Y-117898614D01*
X110904804Y-117883135D01*
X110902629Y-117868206D01*
X110691603Y-117868206D01*
X110696279Y-117884939D01*
X110700692Y-117901479D01*
X110704840Y-117917826D01*
X110708725Y-117933979D01*
X110712345Y-117949940D01*
X110715701Y-117965707D01*
X110718794Y-117981281D01*
X110721622Y-117996662D01*
X110724186Y-118011850D01*
X110726486Y-118026844D01*
X110727873Y-118036733D01*
X110729772Y-118051489D01*
X110731484Y-118066220D01*
X110733009Y-118080924D01*
X110734347Y-118095603D01*
X110735499Y-118110257D01*
X110736464Y-118124884D01*
X110737460Y-118144347D01*
X110738124Y-118163764D01*
X110738456Y-118183136D01*
X110738497Y-118192804D01*
X110738062Y-118211655D01*
X110736757Y-118229555D01*
X110734582Y-118246505D01*
X110731536Y-118262505D01*
X110727621Y-118277555D01*
X110722835Y-118291654D01*
X110715630Y-118307942D01*
X110710654Y-118317002D01*
X110701425Y-118330512D01*
X110691141Y-118341731D01*
X110677406Y-118352173D01*
X110662152Y-118359317D01*
X110645378Y-118363164D01*
X110633351Y-118363897D01*
X110617585Y-118362814D01*
X110603031Y-118359567D01*
X110590853Y-118354737D01*
X110578094Y-118346111D01*
X110566645Y-118334662D01*
X110557589Y-118323030D01*
X110554216Y-118318101D01*
X110546435Y-118305063D01*
X110538478Y-118289991D01*
X110531519Y-118275454D01*
X110524430Y-118259423D01*
X110518425Y-118244922D01*
X110517213Y-118241897D01*
X110511171Y-118225795D01*
X110506207Y-118211819D01*
X110501130Y-118196870D01*
X110495938Y-118180947D01*
X110490631Y-118164052D01*
X110485210Y-118146183D01*
X110479675Y-118127341D01*
X110475448Y-118112571D01*
X110470538Y-118095789D01*
X110465565Y-118079516D01*
X110460526Y-118063752D01*
X110455424Y-118048497D01*
X110450257Y-118033750D01*
X110445025Y-118019513D01*
X110439729Y-118005784D01*
X110432568Y-117988270D01*
X110425292Y-117971660D01*
X110419760Y-117959797D01*
X110412221Y-117944701D01*
X110404442Y-117930373D01*
X110396422Y-117916812D01*
X110388162Y-117904018D01*
X110379661Y-117891991D01*
X110368697Y-117878036D01*
X110357357Y-117865279D01*
X110352716Y-117860512D01*
X110340779Y-117849238D01*
X110328323Y-117839002D01*
X110315348Y-117829804D01*
X110301854Y-117821643D01*
X110287842Y-117814520D01*
X110273311Y-117808434D01*
X110267353Y-117806290D01*
X110252138Y-117801541D01*
X110236262Y-117797596D01*
X110219724Y-117794457D01*
X110202524Y-117792122D01*
X110184662Y-117790593D01*
X110169895Y-117789949D01*
X110158543Y-117789804D01*
G37*
G36*
X109847500Y-116636489D02*
G01*
X109844912Y-116653536D01*
X109842462Y-116670607D01*
X109840149Y-116687700D01*
X109837974Y-116704816D01*
X109835936Y-116721955D01*
X109834036Y-116739117D01*
X109832272Y-116756302D01*
X109830647Y-116773509D01*
X109829101Y-116790620D01*
X109827762Y-116807512D01*
X109826628Y-116824188D01*
X109825701Y-116840645D01*
X109824980Y-116856886D01*
X109824464Y-116872908D01*
X109824155Y-116888714D01*
X109824052Y-116904301D01*
X109824245Y-116923356D01*
X109824825Y-116941915D01*
X109825791Y-116959978D01*
X109827143Y-116977545D01*
X109828882Y-116994617D01*
X109831007Y-117011192D01*
X109833519Y-117027272D01*
X109836417Y-117042856D01*
X109839701Y-117057943D01*
X109843372Y-117072535D01*
X109846034Y-117081988D01*
X109851890Y-117100272D01*
X109858468Y-117117754D01*
X109865766Y-117134435D01*
X109873786Y-117150315D01*
X109882527Y-117165393D01*
X109891990Y-117179670D01*
X109902174Y-117193145D01*
X109913079Y-117205819D01*
X109924814Y-117217606D01*
X109937305Y-117228602D01*
X109950551Y-117238809D01*
X109964553Y-117248226D01*
X109979310Y-117256852D01*
X109994824Y-117264689D01*
X110011093Y-117271736D01*
X110028117Y-117277993D01*
X110046023Y-117283402D01*
X110064754Y-117288091D01*
X110079342Y-117291134D01*
X110094395Y-117293771D01*
X110109911Y-117296002D01*
X110125891Y-117297828D01*
X110142334Y-117299248D01*
X110159241Y-117300262D01*
X110176612Y-117300871D01*
X110194446Y-117301074D01*
X110715050Y-117301074D01*
X110715050Y-117582442D01*
X110902629Y-117582442D01*
X110902629Y-117301074D01*
X111165312Y-117301074D01*
X111230891Y-117043520D01*
X110902629Y-117043520D01*
X110902629Y-116636489D01*
X110715050Y-116636489D01*
X110715050Y-117043520D01*
X110217894Y-117043520D01*
X110201378Y-117043159D01*
X110185629Y-117042077D01*
X110170647Y-117040274D01*
X110151862Y-117036748D01*
X110134440Y-117031939D01*
X110118380Y-117025848D01*
X110103682Y-117018475D01*
X110090347Y-117009820D01*
X110081240Y-117002487D01*
X110070421Y-116991273D01*
X110061044Y-116978330D01*
X110053110Y-116963658D01*
X110046618Y-116947257D01*
X110041570Y-116929128D01*
X110038729Y-116914397D01*
X110036701Y-116898693D01*
X110035484Y-116882016D01*
X110035078Y-116864368D01*
X110035187Y-116848940D01*
X110035513Y-116833616D01*
X110036057Y-116818395D01*
X110036818Y-116803276D01*
X110037797Y-116788261D01*
X110038994Y-116773349D01*
X110040407Y-116758540D01*
X110042039Y-116743834D01*
X110043899Y-116729254D01*
X110046305Y-116711495D01*
X110048801Y-116694256D01*
X110051386Y-116677535D01*
X110054060Y-116661333D01*
X110056824Y-116645650D01*
X110058525Y-116636489D01*
X109847500Y-116636489D01*
G37*
G36*
X110767807Y-115416268D02*
G01*
X110786697Y-115416997D01*
X110805176Y-115418351D01*
X110823242Y-115420329D01*
X110840896Y-115422932D01*
X110858138Y-115426159D01*
X110874968Y-115430011D01*
X110891386Y-115434488D01*
X110907391Y-115439590D01*
X110922985Y-115445316D01*
X110938166Y-115451667D01*
X110948051Y-115456238D01*
X110962507Y-115463577D01*
X110976520Y-115471496D01*
X110990088Y-115479995D01*
X111003211Y-115489073D01*
X111015891Y-115498731D01*
X111028126Y-115508969D01*
X111039916Y-115519786D01*
X111051262Y-115531182D01*
X111062164Y-115543159D01*
X111072622Y-115555714D01*
X111079342Y-115564404D01*
X111089036Y-115577911D01*
X111098267Y-115591984D01*
X111107034Y-115606625D01*
X111115337Y-115621832D01*
X111123177Y-115637605D01*
X111130553Y-115653946D01*
X111137465Y-115670853D01*
X111143914Y-115688327D01*
X111149899Y-115706367D01*
X111155420Y-115724975D01*
X111157178Y-115731278D01*
X111162118Y-115750546D01*
X111166555Y-115770348D01*
X111170490Y-115790684D01*
X111173922Y-115811555D01*
X111176852Y-115832961D01*
X111178527Y-115847528D01*
X111179978Y-115862333D01*
X111181206Y-115877375D01*
X111182210Y-115892655D01*
X111182992Y-115908173D01*
X111183550Y-115923928D01*
X111183885Y-115939920D01*
X111183996Y-115956151D01*
X111183996Y-116350725D01*
X109847500Y-116350725D01*
X109847500Y-116095369D01*
X110269551Y-116095369D01*
X110480577Y-116095369D01*
X110972971Y-116095369D01*
X110972971Y-115962379D01*
X110972906Y-115953434D01*
X110972391Y-115936009D01*
X110971361Y-115919202D01*
X110969815Y-115903013D01*
X110967754Y-115887443D01*
X110965178Y-115872491D01*
X110961234Y-115854670D01*
X110956484Y-115837815D01*
X110955440Y-115834535D01*
X110949799Y-115818675D01*
X110943461Y-115803709D01*
X110936426Y-115789638D01*
X110928692Y-115776461D01*
X110920261Y-115764178D01*
X110909223Y-115750620D01*
X110905325Y-115746384D01*
X110893012Y-115734500D01*
X110879771Y-115723853D01*
X110865603Y-115714442D01*
X110850508Y-115706267D01*
X110834485Y-115699329D01*
X110828997Y-115697244D01*
X110814938Y-115692620D01*
X110800396Y-115688836D01*
X110785371Y-115685894D01*
X110769863Y-115683792D01*
X110753872Y-115682530D01*
X110737398Y-115682110D01*
X110730158Y-115682180D01*
X110712422Y-115682969D01*
X110695203Y-115684635D01*
X110678504Y-115687177D01*
X110662324Y-115690595D01*
X110646662Y-115694890D01*
X110631519Y-115700062D01*
X110625663Y-115702372D01*
X110611473Y-115708722D01*
X110597928Y-115715896D01*
X110585027Y-115723892D01*
X110572769Y-115732711D01*
X110561156Y-115742353D01*
X110550186Y-115752818D01*
X110546035Y-115757186D01*
X110536194Y-115768656D01*
X110527122Y-115780914D01*
X110518820Y-115793958D01*
X110511287Y-115807790D01*
X110504523Y-115822409D01*
X110498529Y-115837815D01*
X110497424Y-115840990D01*
X110492428Y-115857315D01*
X110488308Y-115874392D01*
X110485065Y-115892220D01*
X110483101Y-115907023D01*
X110481699Y-115922308D01*
X110480857Y-115938073D01*
X110480577Y-115954319D01*
X110480577Y-116095369D01*
X110269551Y-116095369D01*
X110269551Y-115966409D01*
X110269691Y-115949547D01*
X110270112Y-115932944D01*
X110270813Y-115916597D01*
X110271795Y-115900509D01*
X110273057Y-115884678D01*
X110274600Y-115869105D01*
X110276423Y-115853789D01*
X110278527Y-115838731D01*
X110280911Y-115823930D01*
X110283576Y-115809387D01*
X110288099Y-115788056D01*
X110293253Y-115767304D01*
X110299038Y-115747132D01*
X110305455Y-115727539D01*
X110310100Y-115714759D01*
X110317487Y-115696094D01*
X110325376Y-115678034D01*
X110333767Y-115660580D01*
X110342661Y-115643731D01*
X110352057Y-115627487D01*
X110361955Y-115611848D01*
X110372356Y-115596815D01*
X110383259Y-115582387D01*
X110394664Y-115568565D01*
X110406571Y-115555348D01*
X110414816Y-115546827D01*
X110427532Y-115534550D01*
X110440666Y-115522879D01*
X110454219Y-115511813D01*
X110468191Y-115501352D01*
X110482581Y-115491497D01*
X110497390Y-115482247D01*
X110512617Y-115473602D01*
X110528263Y-115465563D01*
X110544328Y-115458129D01*
X110560811Y-115451301D01*
X110572002Y-115447042D01*
X110589025Y-115441168D01*
X110606331Y-115435913D01*
X110623921Y-115431276D01*
X110641794Y-115427258D01*
X110659951Y-115423858D01*
X110678391Y-115421075D01*
X110697114Y-115418912D01*
X110716121Y-115417366D01*
X110735411Y-115416439D01*
X110754984Y-115416130D01*
X110767807Y-115416268D01*
G37*
G36*
X110574070Y-114321825D02*
G01*
X110590503Y-114322206D01*
X110606544Y-114323044D01*
X110622192Y-114324340D01*
X110637448Y-114326092D01*
X110652310Y-114328302D01*
X110671516Y-114331960D01*
X110690023Y-114336431D01*
X110707832Y-114341715D01*
X110724942Y-114347811D01*
X110741354Y-114354669D01*
X110757067Y-114362420D01*
X110772083Y-114371064D01*
X110786400Y-114380601D01*
X110800018Y-114391031D01*
X110812938Y-114402354D01*
X110825160Y-114414570D01*
X110836683Y-114427679D01*
X110847508Y-114441606D01*
X110857634Y-114456461D01*
X110867063Y-114472244D01*
X110875792Y-114488953D01*
X110883824Y-114506590D01*
X110889389Y-114520427D01*
X110894561Y-114534785D01*
X110899341Y-114549664D01*
X110903728Y-114565065D01*
X110906434Y-114575591D01*
X110910166Y-114591868D01*
X110913505Y-114608731D01*
X110916451Y-114626181D01*
X110919005Y-114644216D01*
X110921165Y-114662837D01*
X110922933Y-114682044D01*
X110924308Y-114701838D01*
X110925290Y-114722217D01*
X110925879Y-114743182D01*
X110926076Y-114764734D01*
X110926023Y-114777985D01*
X110925745Y-114797748D01*
X110925229Y-114817376D01*
X110924474Y-114836869D01*
X110923481Y-114856226D01*
X110922250Y-114875449D01*
X110920781Y-114894536D01*
X110919073Y-114913487D01*
X110917127Y-114932304D01*
X110914943Y-114950985D01*
X110912520Y-114969532D01*
X110910845Y-114981715D01*
X110908229Y-114999651D01*
X110905491Y-115017182D01*
X110902630Y-115034307D01*
X110899648Y-115051026D01*
X110896542Y-115067340D01*
X110893315Y-115083248D01*
X110889965Y-115098750D01*
X110886493Y-115113846D01*
X110882898Y-115128537D01*
X110879181Y-115142822D01*
X110668155Y-115142822D01*
X110672264Y-115132222D01*
X110678207Y-115116241D01*
X110683886Y-115100163D01*
X110689301Y-115083989D01*
X110694452Y-115067719D01*
X110699339Y-115051351D01*
X110703962Y-115034887D01*
X110708321Y-115018327D01*
X110712415Y-115001670D01*
X110716246Y-114984916D01*
X110719813Y-114968066D01*
X110722075Y-114956790D01*
X110725196Y-114939839D01*
X110727987Y-114922843D01*
X110730451Y-114905802D01*
X110732585Y-114888715D01*
X110734392Y-114871584D01*
X110735870Y-114854407D01*
X110737019Y-114837186D01*
X110737841Y-114819919D01*
X110738333Y-114802607D01*
X110738497Y-114785250D01*
X110738202Y-114767388D01*
X110737317Y-114750439D01*
X110735841Y-114734401D01*
X110733775Y-114719276D01*
X110730516Y-114702330D01*
X110726407Y-114686698D01*
X110722379Y-114674471D01*
X110716883Y-114660767D01*
X110709560Y-114646113D01*
X110701256Y-114632898D01*
X110691969Y-114621119D01*
X110690563Y-114619553D01*
X110678616Y-114608001D01*
X110665432Y-114598189D01*
X110651013Y-114590118D01*
X110637381Y-114584483D01*
X110629292Y-114581821D01*
X110614559Y-114578017D01*
X110599089Y-114575299D01*
X110582882Y-114573669D01*
X110565940Y-114573125D01*
X110504024Y-114573125D01*
X110504024Y-114710146D01*
X110503999Y-114718219D01*
X110503792Y-114734170D01*
X110503380Y-114749861D01*
X110502762Y-114765291D01*
X110501938Y-114780461D01*
X110500907Y-114795370D01*
X110498975Y-114817246D01*
X110496580Y-114838535D01*
X110493720Y-114859239D01*
X110490397Y-114879356D01*
X110486611Y-114898888D01*
X110482360Y-114917833D01*
X110477646Y-114936192D01*
X110474271Y-114948112D01*
X110468920Y-114965525D01*
X110463220Y-114982377D01*
X110457173Y-114998669D01*
X110450778Y-115014401D01*
X110444036Y-115029573D01*
X110436945Y-115044184D01*
X110429507Y-115058235D01*
X110421721Y-115071726D01*
X110413587Y-115084656D01*
X110405106Y-115097026D01*
X110393279Y-115112545D01*
X110380880Y-115127045D01*
X110367908Y-115140526D01*
X110354364Y-115152988D01*
X110340248Y-115164432D01*
X110325559Y-115174856D01*
X110310298Y-115184261D01*
X110294464Y-115192647D01*
X110278252Y-115200032D01*
X110261674Y-115206432D01*
X110244730Y-115211847D01*
X110227419Y-115216278D01*
X110209742Y-115219724D01*
X110191699Y-115222185D01*
X110173289Y-115223662D01*
X110154513Y-115224155D01*
X110136298Y-115223828D01*
X110118472Y-115222850D01*
X110101035Y-115221218D01*
X110083988Y-115218934D01*
X110067330Y-115215997D01*
X110051061Y-115212408D01*
X110035181Y-115208166D01*
X110019691Y-115203272D01*
X110004761Y-115197651D01*
X109990382Y-115191411D01*
X109976551Y-115184553D01*
X109963271Y-115177077D01*
X109950539Y-115168983D01*
X109938358Y-115160270D01*
X109926726Y-115150939D01*
X109915643Y-115140990D01*
X109905133Y-115130337D01*
X109895218Y-115119077D01*
X109885899Y-115107210D01*
X109877175Y-115094737D01*
X109869046Y-115081656D01*
X109861513Y-115067969D01*
X109854575Y-115053675D01*
X109848232Y-115038774D01*
X109846745Y-115034954D01*
X109841266Y-115019286D01*
X109836544Y-115003000D01*
X109832577Y-114986096D01*
X109829365Y-114968573D01*
X109826909Y-114950433D01*
X109825209Y-114931674D01*
X109824265Y-114912296D01*
X109824052Y-114897358D01*
X109824158Y-114886107D01*
X109824631Y-114871367D01*
X109825752Y-114853360D01*
X109827464Y-114835818D01*
X109829767Y-114818741D01*
X109831834Y-114806866D01*
X110011631Y-114806866D01*
X110011665Y-114811279D01*
X110012498Y-114828352D01*
X110014442Y-114844498D01*
X110017496Y-114859716D01*
X110021660Y-114874007D01*
X110028428Y-114890567D01*
X110036930Y-114905678D01*
X110047168Y-114919340D01*
X110059061Y-114931161D01*
X110072527Y-114940978D01*
X110087568Y-114948792D01*
X110104183Y-114954602D01*
X110118609Y-114957808D01*
X110134042Y-114959731D01*
X110150483Y-114960372D01*
X110167107Y-114959571D01*
X110183272Y-114957167D01*
X110198980Y-114953160D01*
X110214230Y-114947550D01*
X110217957Y-114945888D01*
X110232291Y-114938069D01*
X110245709Y-114928371D01*
X110256698Y-114918346D01*
X110266987Y-114906883D01*
X110276611Y-114893913D01*
X110285289Y-114879364D01*
X110291974Y-114865639D01*
X110297963Y-114850754D01*
X110303257Y-114834709D01*
X110306348Y-114823324D01*
X110309632Y-114808238D01*
X110312273Y-114792204D01*
X110314269Y-114775222D01*
X110315621Y-114757292D01*
X110316240Y-114742265D01*
X110316446Y-114726632D01*
X110316446Y-114573125D01*
X110167702Y-114573125D01*
X110153922Y-114585803D01*
X110140748Y-114598280D01*
X110128180Y-114610558D01*
X110116216Y-114622636D01*
X110104858Y-114634515D01*
X110094106Y-114646194D01*
X110083958Y-114657673D01*
X110074416Y-114668953D01*
X110062635Y-114683682D01*
X110051931Y-114698056D01*
X110042485Y-114712098D01*
X110034299Y-114726014D01*
X110027373Y-114739804D01*
X110020486Y-114756865D01*
X110015566Y-114773728D01*
X110012615Y-114790396D01*
X110011631Y-114806866D01*
X109831834Y-114806866D01*
X109832659Y-114802130D01*
X109836142Y-114785983D01*
X109837648Y-114779603D01*
X109841762Y-114763929D01*
X109846378Y-114748648D01*
X109851494Y-114733761D01*
X109857111Y-114719268D01*
X109863229Y-114705168D01*
X109869848Y-114691461D01*
X109876896Y-114678130D01*
X109884302Y-114665157D01*
X109892066Y-114652542D01*
X109900187Y-114640285D01*
X109910405Y-114626048D01*
X109921139Y-114612326D01*
X109924871Y-114607805D01*
X109934402Y-114596616D01*
X109944220Y-114585588D01*
X109954323Y-114574720D01*
X109964713Y-114564014D01*
X109975389Y-114553468D01*
X109986352Y-114543084D01*
X109847500Y-114536855D01*
X109847500Y-114321800D01*
X110568504Y-114321800D01*
X110574070Y-114321825D01*
G37*
G36*
X109847500Y-113176545D02*
G01*
X109844912Y-113193592D01*
X109842462Y-113210662D01*
X109840149Y-113227756D01*
X109837974Y-113244872D01*
X109835936Y-113262011D01*
X109834036Y-113279173D01*
X109832272Y-113296357D01*
X109830647Y-113313565D01*
X109829101Y-113330675D01*
X109827762Y-113347568D01*
X109826628Y-113364244D01*
X109825701Y-113380701D01*
X109824980Y-113396942D01*
X109824464Y-113412964D01*
X109824155Y-113428769D01*
X109824052Y-113444357D01*
X109824245Y-113463412D01*
X109824825Y-113481971D01*
X109825791Y-113500034D01*
X109827143Y-113517601D01*
X109828882Y-113534673D01*
X109831007Y-113551248D01*
X109833519Y-113567328D01*
X109836417Y-113582911D01*
X109839701Y-113597999D01*
X109843372Y-113612591D01*
X109846034Y-113622044D01*
X109851890Y-113640328D01*
X109858468Y-113657810D01*
X109865766Y-113674491D01*
X109873786Y-113690371D01*
X109882527Y-113705449D01*
X109891990Y-113719726D01*
X109902174Y-113733201D01*
X109913079Y-113745875D01*
X109924814Y-113757661D01*
X109937305Y-113768658D01*
X109950551Y-113778865D01*
X109964553Y-113788282D01*
X109979310Y-113796908D01*
X109994824Y-113804745D01*
X110011093Y-113811792D01*
X110028117Y-113818049D01*
X110046023Y-113823458D01*
X110064754Y-113828147D01*
X110079342Y-113831189D01*
X110094395Y-113833827D01*
X110109911Y-113836058D01*
X110125891Y-113837884D01*
X110142334Y-113839304D01*
X110159241Y-113840318D01*
X110176612Y-113840927D01*
X110194446Y-113841130D01*
X110715050Y-113841130D01*
X110715050Y-114122497D01*
X110902629Y-114122497D01*
X110902629Y-113841130D01*
X111165312Y-113841130D01*
X111230891Y-113583575D01*
X110902629Y-113583575D01*
X110902629Y-113176545D01*
X110715050Y-113176545D01*
X110715050Y-113583575D01*
X110217894Y-113583575D01*
X110201378Y-113583215D01*
X110185629Y-113582133D01*
X110170647Y-113580330D01*
X110151862Y-113576803D01*
X110134440Y-113571995D01*
X110118380Y-113565904D01*
X110103682Y-113558531D01*
X110090347Y-113549876D01*
X110081240Y-113542543D01*
X110070421Y-113531329D01*
X110061044Y-113518386D01*
X110053110Y-113503714D01*
X110046618Y-113487313D01*
X110041570Y-113469184D01*
X110038729Y-113454452D01*
X110036701Y-113438749D01*
X110035484Y-113422072D01*
X110035078Y-113404423D01*
X110035187Y-113388996D01*
X110035513Y-113373672D01*
X110036057Y-113358450D01*
X110036818Y-113343332D01*
X110037797Y-113328317D01*
X110038994Y-113313405D01*
X110040407Y-113298596D01*
X110042039Y-113283890D01*
X110043899Y-113269309D01*
X110046305Y-113251551D01*
X110048801Y-113234312D01*
X110051386Y-113217591D01*
X110054060Y-113201389D01*
X110056824Y-113185706D01*
X110058525Y-113176545D01*
X109847500Y-113176545D01*
G37*
G36*
X109847500Y-112023230D02*
G01*
X109844912Y-112040277D01*
X109842462Y-112057348D01*
X109840149Y-112074441D01*
X109837974Y-112091557D01*
X109835936Y-112108696D01*
X109834036Y-112125858D01*
X109832272Y-112143043D01*
X109830647Y-112160250D01*
X109829101Y-112177361D01*
X109827762Y-112194253D01*
X109826628Y-112210929D01*
X109825701Y-112227387D01*
X109824980Y-112243627D01*
X109824464Y-112259650D01*
X109824155Y-112275455D01*
X109824052Y-112291042D01*
X109824245Y-112310097D01*
X109824825Y-112328656D01*
X109825791Y-112346719D01*
X109827143Y-112364287D01*
X109828882Y-112381358D01*
X109831007Y-112397933D01*
X109833519Y-112414013D01*
X109836417Y-112429597D01*
X109839701Y-112444685D01*
X109843372Y-112459277D01*
X109846034Y-112468729D01*
X109851890Y-112487013D01*
X109858468Y-112504495D01*
X109865766Y-112521176D01*
X109873786Y-112537056D01*
X109882527Y-112552134D01*
X109891990Y-112566411D01*
X109902174Y-112579886D01*
X109913079Y-112592560D01*
X109924814Y-112604347D01*
X109937305Y-112615343D01*
X109950551Y-112625550D01*
X109964553Y-112634967D01*
X109979310Y-112643594D01*
X109994824Y-112651430D01*
X110011093Y-112658477D01*
X110028117Y-112664734D01*
X110046023Y-112670144D01*
X110064754Y-112674832D01*
X110079342Y-112677875D01*
X110094395Y-112680512D01*
X110109911Y-112682743D01*
X110125891Y-112684569D01*
X110142334Y-112685989D01*
X110159241Y-112687003D01*
X110176612Y-112687612D01*
X110194446Y-112687815D01*
X110715050Y-112687815D01*
X110715050Y-112969183D01*
X110902629Y-112969183D01*
X110902629Y-112687815D01*
X111165312Y-112687815D01*
X111230891Y-112430261D01*
X110902629Y-112430261D01*
X110902629Y-112023230D01*
X110715050Y-112023230D01*
X110715050Y-112430261D01*
X110217894Y-112430261D01*
X110201378Y-112429900D01*
X110185629Y-112428818D01*
X110170647Y-112427015D01*
X110151862Y-112423489D01*
X110134440Y-112418680D01*
X110118380Y-112412589D01*
X110103682Y-112405216D01*
X110090347Y-112396561D01*
X110081240Y-112389228D01*
X110070421Y-112378014D01*
X110061044Y-112365071D01*
X110053110Y-112350399D01*
X110046618Y-112333999D01*
X110041570Y-112315869D01*
X110038729Y-112301138D01*
X110036701Y-112285434D01*
X110035484Y-112268757D01*
X110035078Y-112251109D01*
X110035187Y-112235681D01*
X110035513Y-112220357D01*
X110036057Y-112205136D01*
X110036818Y-112190017D01*
X110037797Y-112175002D01*
X110038994Y-112160090D01*
X110040407Y-112145281D01*
X110042039Y-112130575D01*
X110043899Y-112115995D01*
X110046305Y-112098236D01*
X110048801Y-112080997D01*
X110051386Y-112064276D01*
X110054060Y-112048074D01*
X110056824Y-112032391D01*
X110058525Y-112023230D01*
X109847500Y-112023230D01*
G37*
G36*
X110473460Y-110821673D02*
G01*
X110492219Y-110822289D01*
X110510688Y-110823433D01*
X110528867Y-110825105D01*
X110546756Y-110827305D01*
X110564355Y-110830034D01*
X110581665Y-110833290D01*
X110598685Y-110837075D01*
X110615415Y-110841388D01*
X110631855Y-110846228D01*
X110648005Y-110851597D01*
X110658584Y-110855417D01*
X110674109Y-110861559D01*
X110689221Y-110868198D01*
X110703922Y-110875332D01*
X110718210Y-110882963D01*
X110732086Y-110891089D01*
X110745550Y-110899711D01*
X110758602Y-110908829D01*
X110771241Y-110918443D01*
X110783469Y-110928553D01*
X110795284Y-110939158D01*
X110802916Y-110946458D01*
X110813962Y-110957822D01*
X110824524Y-110969681D01*
X110834604Y-110982036D01*
X110844201Y-110994887D01*
X110853314Y-111008234D01*
X110861945Y-111022077D01*
X110870093Y-111036415D01*
X110877757Y-111051250D01*
X110884939Y-111066580D01*
X110891638Y-111082407D01*
X110895808Y-111093179D01*
X110901559Y-111109718D01*
X110906704Y-111126714D01*
X110911245Y-111144167D01*
X110915179Y-111162078D01*
X110918509Y-111180446D01*
X110921233Y-111199271D01*
X110923352Y-111218554D01*
X110924865Y-111238293D01*
X110925773Y-111258490D01*
X110926076Y-111279144D01*
X110925916Y-111293076D01*
X110925074Y-111313668D01*
X110923511Y-111333893D01*
X110921227Y-111353751D01*
X110918222Y-111373241D01*
X110914495Y-111392365D01*
X110910047Y-111411121D01*
X110904878Y-111429511D01*
X110898988Y-111447533D01*
X110892376Y-111465188D01*
X110885043Y-111482476D01*
X110879779Y-111493774D01*
X110871380Y-111510322D01*
X110862374Y-111526394D01*
X110852764Y-111541990D01*
X110842548Y-111557109D01*
X110831726Y-111571751D01*
X110820300Y-111585917D01*
X110808268Y-111599606D01*
X110795630Y-111612819D01*
X110782387Y-111625555D01*
X110768539Y-111637815D01*
X110759032Y-111645672D01*
X110744327Y-111657038D01*
X110729086Y-111667903D01*
X110713312Y-111678264D01*
X110697002Y-111688124D01*
X110680159Y-111697481D01*
X110662780Y-111706336D01*
X110644867Y-111714689D01*
X110626420Y-111722539D01*
X110607438Y-111729887D01*
X110587922Y-111736733D01*
X110574642Y-111740948D01*
X110554385Y-111746760D01*
X110533723Y-111751960D01*
X110512654Y-111756549D01*
X110491180Y-111760525D01*
X110476639Y-111762837D01*
X110461917Y-111764876D01*
X110447015Y-111766643D01*
X110431932Y-111768139D01*
X110416669Y-111769363D01*
X110401226Y-111770314D01*
X110385603Y-111770994D01*
X110369799Y-111771402D01*
X110353815Y-111771538D01*
X110337724Y-111771402D01*
X110321873Y-111770994D01*
X110306262Y-111770314D01*
X110290892Y-111769363D01*
X110275762Y-111768139D01*
X110260873Y-111766643D01*
X110246224Y-111764876D01*
X110224702Y-111761715D01*
X110203720Y-111757942D01*
X110183280Y-111753558D01*
X110163380Y-111748561D01*
X110144021Y-111742953D01*
X110125204Y-111736733D01*
X110113008Y-111732217D01*
X110095175Y-111724991D01*
X110077897Y-111717224D01*
X110061172Y-111708917D01*
X110045001Y-111700068D01*
X110029384Y-111690679D01*
X110014321Y-111680748D01*
X109999812Y-111670277D01*
X109985856Y-111659264D01*
X109972455Y-111647711D01*
X109959607Y-111635617D01*
X109951354Y-111627260D01*
X109939452Y-111614302D01*
X109928123Y-111600835D01*
X109917367Y-111586859D01*
X109907184Y-111572374D01*
X109897574Y-111557381D01*
X109888538Y-111541879D01*
X109880075Y-111525868D01*
X109872185Y-111509348D01*
X109864868Y-111492320D01*
X109858124Y-111474783D01*
X109852035Y-111456775D01*
X109846545Y-111438337D01*
X109841654Y-111419466D01*
X109837362Y-111400165D01*
X109833668Y-111380431D01*
X109830574Y-111360267D01*
X109828078Y-111339671D01*
X109826182Y-111318643D01*
X109824884Y-111297184D01*
X109824185Y-111275293D01*
X109824052Y-111260460D01*
X109824065Y-111254539D01*
X109824210Y-111239625D01*
X109824516Y-111224550D01*
X109824983Y-111209314D01*
X109825611Y-111193917D01*
X109826400Y-111178359D01*
X109827349Y-111162640D01*
X109827775Y-111156325D01*
X109828950Y-111140574D01*
X109830286Y-111124876D01*
X109831783Y-111109232D01*
X109833442Y-111093642D01*
X109835261Y-111078106D01*
X109837241Y-111062623D01*
X109838073Y-111056449D01*
X109840214Y-111041090D01*
X109842445Y-111025838D01*
X109844765Y-111010693D01*
X109847175Y-110995656D01*
X109849674Y-110980726D01*
X109852262Y-110965903D01*
X109853323Y-110960022D01*
X109856590Y-110942707D01*
X109859986Y-110925882D01*
X109863511Y-110909546D01*
X109867164Y-110893699D01*
X109870947Y-110878342D01*
X110081973Y-110878342D01*
X110078913Y-110890040D01*
X110074527Y-110907490D01*
X110070386Y-110924824D01*
X110066490Y-110942043D01*
X110062839Y-110959145D01*
X110059432Y-110976132D01*
X110056270Y-110993002D01*
X110053353Y-111009757D01*
X110050680Y-111026396D01*
X110048252Y-111042919D01*
X110046069Y-111059326D01*
X110044105Y-111075513D01*
X110042334Y-111091513D01*
X110040756Y-111107326D01*
X110039371Y-111122953D01*
X110038180Y-111138393D01*
X110037182Y-111153646D01*
X110036377Y-111168712D01*
X110035765Y-111183592D01*
X110035250Y-111203141D01*
X110035078Y-111222358D01*
X110035150Y-111230555D01*
X110035722Y-111246675D01*
X110036867Y-111262429D01*
X110038584Y-111277816D01*
X110040874Y-111292837D01*
X110043736Y-111307492D01*
X110048119Y-111325295D01*
X110053396Y-111342525D01*
X110055796Y-111349243D01*
X110062360Y-111365511D01*
X110069728Y-111381028D01*
X110077901Y-111395793D01*
X110086880Y-111409807D01*
X110096663Y-111423070D01*
X110107252Y-111435582D01*
X110111760Y-111440323D01*
X110123606Y-111451588D01*
X110136275Y-111462012D01*
X110149766Y-111471595D01*
X110164081Y-111480337D01*
X110179219Y-111488238D01*
X110195179Y-111495299D01*
X110205147Y-111499031D01*
X110222405Y-111504435D01*
X110236790Y-111508025D01*
X110251691Y-111510961D01*
X110267107Y-111513245D01*
X110283038Y-111514877D01*
X110299484Y-111515856D01*
X110316446Y-111516182D01*
X110316446Y-111076911D01*
X110504024Y-111076911D01*
X110504024Y-111511786D01*
X110517794Y-111510173D01*
X110537709Y-111507029D01*
X110556735Y-111503016D01*
X110574872Y-111498133D01*
X110592121Y-111492381D01*
X110608480Y-111485760D01*
X110623951Y-111478269D01*
X110638534Y-111469909D01*
X110652227Y-111460679D01*
X110665032Y-111450580D01*
X110676948Y-111439612D01*
X110684401Y-111431877D01*
X110694680Y-111419775D01*
X110703876Y-111407074D01*
X110711990Y-111393774D01*
X110719023Y-111379876D01*
X110724973Y-111365378D01*
X110729842Y-111350282D01*
X110733629Y-111334587D01*
X110736334Y-111318292D01*
X110737956Y-111301399D01*
X110738497Y-111283907D01*
X110738443Y-111278526D01*
X110737627Y-111262658D01*
X110735833Y-111247202D01*
X110733059Y-111232158D01*
X110729307Y-111217526D01*
X110724576Y-111203307D01*
X110722777Y-111198627D01*
X110716676Y-111185034D01*
X110709519Y-111172111D01*
X110701306Y-111159858D01*
X110692036Y-111148275D01*
X110681711Y-111137361D01*
X110678032Y-111133838D01*
X110666255Y-111123852D01*
X110653371Y-111114741D01*
X110639379Y-111106507D01*
X110624279Y-111099148D01*
X110608072Y-111092665D01*
X110599625Y-111089725D01*
X110584945Y-111085498D01*
X110569514Y-111082111D01*
X110553332Y-111079566D01*
X110536398Y-111077861D01*
X110518713Y-111076997D01*
X110504024Y-111076911D01*
X110316446Y-111076911D01*
X110316446Y-110827783D01*
X110330090Y-110826611D01*
X110346464Y-110825407D01*
X110363329Y-110824377D01*
X110378175Y-110823635D01*
X110393382Y-110823021D01*
X110395955Y-110822931D01*
X110413120Y-110822380D01*
X110428813Y-110821969D01*
X110444944Y-110821671D01*
X110460793Y-110821555D01*
X110473460Y-110821673D01*
G37*
G36*
X110504024Y-109906377D02*
G01*
X110521244Y-109905941D01*
X110537641Y-109906005D01*
X110553215Y-109906571D01*
X110567966Y-109907637D01*
X110584581Y-109909577D01*
X110600012Y-109912239D01*
X110614360Y-109915446D01*
X110629863Y-109920002D01*
X110644033Y-109925434D01*
X110658596Y-109932715D01*
X110665225Y-109936786D01*
X110677337Y-109945716D01*
X110688830Y-109956966D01*
X110698061Y-109969492D01*
X110702960Y-109978551D01*
X110708804Y-109992967D01*
X110712736Y-110008600D01*
X110714625Y-110023518D01*
X110715050Y-110035338D01*
X110713852Y-110052724D01*
X110710256Y-110070307D01*
X110705653Y-110084515D01*
X110699517Y-110098849D01*
X110691846Y-110113309D01*
X110682641Y-110127895D01*
X110671902Y-110142606D01*
X110665957Y-110150010D01*
X110656192Y-110161241D01*
X110645306Y-110172678D01*
X110633300Y-110184322D01*
X110620173Y-110196171D01*
X110605926Y-110208227D01*
X110590558Y-110220489D01*
X110574069Y-110232957D01*
X110556460Y-110245631D01*
X110544098Y-110254194D01*
X110531238Y-110262850D01*
X110517880Y-110271597D01*
X110504024Y-110280435D01*
X109847500Y-110280435D01*
X109847500Y-110537989D01*
X110902629Y-110537989D01*
X110902629Y-110310111D01*
X110738497Y-110300952D01*
X110751678Y-110292776D01*
X110764429Y-110284279D01*
X110776751Y-110275460D01*
X110788644Y-110266319D01*
X110800107Y-110256856D01*
X110811141Y-110247070D01*
X110815434Y-110243066D01*
X110825963Y-110232707D01*
X110836028Y-110222007D01*
X110847491Y-110208719D01*
X110858284Y-110194942D01*
X110868408Y-110180675D01*
X110874785Y-110170892D01*
X110882284Y-110158207D01*
X110889211Y-110145111D01*
X110895565Y-110131603D01*
X110901346Y-110117684D01*
X110906556Y-110103353D01*
X110911192Y-110088611D01*
X110912887Y-110082599D01*
X110916686Y-110067253D01*
X110919842Y-110051443D01*
X110922354Y-110035168D01*
X110924221Y-110018428D01*
X110925445Y-110001222D01*
X110926024Y-109983551D01*
X110926076Y-109976353D01*
X110925841Y-109961673D01*
X110924796Y-109942590D01*
X110922916Y-109924069D01*
X110920199Y-109906109D01*
X110916647Y-109888709D01*
X110912260Y-109871871D01*
X110907036Y-109855593D01*
X110900977Y-109839877D01*
X110899331Y-109836035D01*
X110892239Y-109820957D01*
X110884333Y-109806497D01*
X110875615Y-109792656D01*
X110866084Y-109779432D01*
X110855740Y-109766827D01*
X110844583Y-109754840D01*
X110832613Y-109743471D01*
X110819830Y-109732721D01*
X110806223Y-109722617D01*
X110791781Y-109713189D01*
X110776502Y-109704436D01*
X110760388Y-109696359D01*
X110743438Y-109688957D01*
X110725652Y-109682231D01*
X110707030Y-109676180D01*
X110692515Y-109672086D01*
X110687573Y-109670805D01*
X110672513Y-109667233D01*
X110657009Y-109664073D01*
X110641060Y-109661325D01*
X110624667Y-109658990D01*
X110607830Y-109657066D01*
X110590548Y-109655555D01*
X110572822Y-109654456D01*
X110554651Y-109653769D01*
X110536036Y-109653494D01*
X110516977Y-109653632D01*
X110504024Y-109653952D01*
X110504024Y-109906377D01*
G37*
G36*
X109847500Y-108802522D02*
G01*
X110540294Y-108802522D01*
X110561456Y-108803021D01*
X110581253Y-108804520D01*
X110599684Y-108807017D01*
X110616750Y-108810513D01*
X110632451Y-108815008D01*
X110646786Y-108820502D01*
X110665729Y-108830616D01*
X110681601Y-108842978D01*
X110694400Y-108857587D01*
X110704128Y-108874444D01*
X110710784Y-108893548D01*
X110714367Y-108914900D01*
X110715050Y-108930383D01*
X110714231Y-108946234D01*
X110711776Y-108961913D01*
X110707683Y-108977421D01*
X110701953Y-108992756D01*
X110694585Y-109007920D01*
X110685581Y-109022913D01*
X110674939Y-109037733D01*
X110662660Y-109052382D01*
X110652508Y-109063362D01*
X110641700Y-109074459D01*
X110630235Y-109085671D01*
X110618112Y-109096998D01*
X110605333Y-109108442D01*
X110591897Y-109120002D01*
X110577804Y-109131678D01*
X110563055Y-109143470D01*
X110547648Y-109155377D01*
X110531585Y-109167401D01*
X110520511Y-109175481D01*
X109847500Y-109175481D01*
X109847500Y-109426806D01*
X110902629Y-109426806D01*
X110902629Y-109209552D01*
X110746924Y-109203324D01*
X110759453Y-109193301D01*
X110771625Y-109183153D01*
X110783439Y-109172879D01*
X110794895Y-109162480D01*
X110805993Y-109151956D01*
X110816733Y-109141307D01*
X110820929Y-109137012D01*
X110831106Y-109126011D01*
X110840800Y-109114759D01*
X110850011Y-109103256D01*
X110860427Y-109089122D01*
X110870147Y-109074628D01*
X110877716Y-109062274D01*
X110886122Y-109046955D01*
X110893756Y-109031225D01*
X110900616Y-109015082D01*
X110905743Y-109001314D01*
X110910334Y-108987261D01*
X110913620Y-108975812D01*
X110917208Y-108960995D01*
X110920188Y-108945623D01*
X110922560Y-108929696D01*
X110924324Y-108913215D01*
X110925480Y-108896180D01*
X110926027Y-108878590D01*
X110926076Y-108871398D01*
X110925841Y-108856535D01*
X110924796Y-108837278D01*
X110922916Y-108818662D01*
X110920199Y-108800687D01*
X110916647Y-108783353D01*
X110912260Y-108766661D01*
X110907036Y-108750610D01*
X110900977Y-108735199D01*
X110899331Y-108731447D01*
X110892393Y-108716741D01*
X110884768Y-108702665D01*
X110876456Y-108689218D01*
X110867458Y-108676401D01*
X110857772Y-108664214D01*
X110847399Y-108652656D01*
X110836340Y-108641728D01*
X110824593Y-108631430D01*
X110812280Y-108621669D01*
X110799337Y-108612539D01*
X110785764Y-108604038D01*
X110771562Y-108596167D01*
X110756730Y-108588926D01*
X110741268Y-108582314D01*
X110725177Y-108576332D01*
X110708456Y-108570980D01*
X110691168Y-108566257D01*
X110673376Y-108562164D01*
X110655081Y-108558701D01*
X110636282Y-108555867D01*
X110616979Y-108553663D01*
X110602171Y-108552423D01*
X110587080Y-108551538D01*
X110571706Y-108551007D01*
X110556048Y-108550830D01*
X109847500Y-108550830D01*
X109847500Y-108802522D01*
G37*
G36*
X110410235Y-107830557D02*
G01*
X110621261Y-107830557D01*
X110621261Y-107351353D01*
X109907950Y-107351353D01*
X109900109Y-107368806D01*
X109892661Y-107386408D01*
X109885606Y-107404158D01*
X109878944Y-107422055D01*
X109872675Y-107440101D01*
X109866798Y-107458295D01*
X109861314Y-107476638D01*
X109856224Y-107495128D01*
X109851526Y-107513766D01*
X109847220Y-107532553D01*
X109844569Y-107545160D01*
X109840902Y-107564208D01*
X109837596Y-107583572D01*
X109834651Y-107603252D01*
X109832066Y-107623247D01*
X109829842Y-107643557D01*
X109827979Y-107664184D01*
X109826476Y-107685125D01*
X109825334Y-107706383D01*
X109824553Y-107727956D01*
X109824132Y-107749844D01*
X109824052Y-107764612D01*
X109824220Y-107781997D01*
X109824722Y-107799165D01*
X109825559Y-107816115D01*
X109826731Y-107832847D01*
X109828238Y-107849362D01*
X109830080Y-107865660D01*
X109832257Y-107881740D01*
X109834768Y-107897602D01*
X109837615Y-107913247D01*
X109840796Y-107928674D01*
X109844312Y-107943884D01*
X109848164Y-107958876D01*
X109852350Y-107973651D01*
X109856870Y-107988208D01*
X109861726Y-108002548D01*
X109866917Y-108016670D01*
X109872482Y-108030508D01*
X109878371Y-108044085D01*
X109884584Y-108057401D01*
X109894509Y-108076888D01*
X109905162Y-108095788D01*
X109916542Y-108114102D01*
X109928651Y-108131830D01*
X109941487Y-108148973D01*
X109955050Y-108165529D01*
X109969342Y-108181499D01*
X109984361Y-108196883D01*
X109994778Y-108206813D01*
X110011072Y-108221126D01*
X110028081Y-108234802D01*
X110045805Y-108247839D01*
X110058018Y-108256177D01*
X110070549Y-108264231D01*
X110083398Y-108272002D01*
X110096564Y-108279490D01*
X110110048Y-108286694D01*
X110123849Y-108293615D01*
X110137969Y-108300252D01*
X110152406Y-108306607D01*
X110167161Y-108312677D01*
X110182233Y-108318465D01*
X110197623Y-108323969D01*
X110205437Y-108326615D01*
X110221347Y-108331672D01*
X110237569Y-108336403D01*
X110254102Y-108340808D01*
X110270948Y-108344887D01*
X110288105Y-108348639D01*
X110305575Y-108352065D01*
X110323357Y-108355165D01*
X110341450Y-108357939D01*
X110359856Y-108360386D01*
X110378573Y-108362507D01*
X110397603Y-108364301D01*
X110416944Y-108365770D01*
X110436598Y-108366912D01*
X110456563Y-108367728D01*
X110476840Y-108368217D01*
X110497430Y-108368380D01*
X110518131Y-108368210D01*
X110538560Y-108367699D01*
X110558717Y-108366847D01*
X110578602Y-108365655D01*
X110598216Y-108364123D01*
X110617557Y-108362249D01*
X110636627Y-108360035D01*
X110655424Y-108357481D01*
X110673950Y-108354586D01*
X110692204Y-108351350D01*
X110710186Y-108347774D01*
X110727896Y-108343857D01*
X110745334Y-108339599D01*
X110762500Y-108335001D01*
X110779394Y-108330062D01*
X110796017Y-108324783D01*
X110812389Y-108319131D01*
X110828440Y-108313168D01*
X110844171Y-108306892D01*
X110859581Y-108300305D01*
X110874670Y-108293406D01*
X110889439Y-108286194D01*
X110903888Y-108278671D01*
X110918016Y-108270836D01*
X110931823Y-108262688D01*
X110945310Y-108254229D01*
X110958476Y-108245458D01*
X110971322Y-108236374D01*
X110983847Y-108226979D01*
X110996051Y-108217272D01*
X111007935Y-108207253D01*
X111019499Y-108196922D01*
X111030777Y-108186241D01*
X111041715Y-108175266D01*
X111052313Y-108163996D01*
X111062570Y-108152431D01*
X111072486Y-108140572D01*
X111082061Y-108128417D01*
X111091296Y-108115968D01*
X111100191Y-108103224D01*
X111108744Y-108090185D01*
X111116957Y-108076851D01*
X111124830Y-108063223D01*
X111132362Y-108049300D01*
X111139553Y-108035082D01*
X111146404Y-108020569D01*
X111152914Y-108005761D01*
X111159084Y-107990659D01*
X111164940Y-107975273D01*
X111170418Y-107959615D01*
X111175518Y-107943685D01*
X111180241Y-107927484D01*
X111184586Y-107911010D01*
X111188553Y-107894265D01*
X111192142Y-107877247D01*
X111195354Y-107859958D01*
X111198187Y-107842397D01*
X111200643Y-107824564D01*
X111202721Y-107806459D01*
X111204421Y-107788082D01*
X111205744Y-107769433D01*
X111206688Y-107750512D01*
X111207255Y-107731320D01*
X111207444Y-107711855D01*
X111207331Y-107694518D01*
X111206993Y-107677264D01*
X111206429Y-107660094D01*
X111205640Y-107643007D01*
X111204626Y-107626005D01*
X111203386Y-107609086D01*
X111201921Y-107592251D01*
X111200231Y-107575499D01*
X111198315Y-107558831D01*
X111196174Y-107542247D01*
X111194621Y-107531238D01*
X111192143Y-107514689D01*
X111189516Y-107498153D01*
X111186742Y-107481630D01*
X111183819Y-107465120D01*
X111180748Y-107448623D01*
X111177529Y-107432139D01*
X111174162Y-107415668D01*
X111170647Y-107399209D01*
X111166984Y-107382764D01*
X111163172Y-107366331D01*
X111160549Y-107355383D01*
X110902629Y-107355383D01*
X110908302Y-107369813D01*
X110913783Y-107384526D01*
X110919070Y-107399523D01*
X110924164Y-107414803D01*
X110929065Y-107430366D01*
X110933772Y-107446213D01*
X110938287Y-107462343D01*
X110942608Y-107478756D01*
X110946736Y-107495453D01*
X110950671Y-107512433D01*
X110953187Y-107523910D01*
X110956722Y-107541234D01*
X110959910Y-107558583D01*
X110962750Y-107575959D01*
X110965243Y-107593359D01*
X110967387Y-107610786D01*
X110969184Y-107628238D01*
X110970633Y-107645717D01*
X110971734Y-107663220D01*
X110972488Y-107680750D01*
X110972893Y-107698306D01*
X110972971Y-107710024D01*
X110972687Y-107727556D01*
X110971837Y-107744709D01*
X110970420Y-107761482D01*
X110968437Y-107777875D01*
X110965887Y-107793888D01*
X110962770Y-107809521D01*
X110959086Y-107824775D01*
X110954836Y-107839648D01*
X110950018Y-107854141D01*
X110944635Y-107868254D01*
X110940730Y-107877452D01*
X110934513Y-107890847D01*
X110925471Y-107908066D01*
X110915570Y-107924553D01*
X110904811Y-107940306D01*
X110893194Y-107955327D01*
X110880717Y-107969615D01*
X110867382Y-107983171D01*
X110853188Y-107995994D01*
X110849506Y-107999085D01*
X110834330Y-108010900D01*
X110818296Y-108021983D01*
X110805707Y-108029814D01*
X110792635Y-108037233D01*
X110779080Y-108044239D01*
X110765042Y-108050834D01*
X110750521Y-108057016D01*
X110735516Y-108062787D01*
X110720029Y-108068145D01*
X110704059Y-108073091D01*
X110687723Y-108077608D01*
X110671001Y-108081681D01*
X110653892Y-108085310D01*
X110636396Y-108088495D01*
X110618515Y-108091235D01*
X110600246Y-108093531D01*
X110581592Y-108095383D01*
X110562551Y-108096790D01*
X110543124Y-108097752D01*
X110523310Y-108098271D01*
X110509886Y-108098370D01*
X110490489Y-108098199D01*
X110471452Y-108097687D01*
X110452776Y-108096834D01*
X110434461Y-108095639D01*
X110416506Y-108094103D01*
X110398912Y-108092226D01*
X110381679Y-108090007D01*
X110364806Y-108087447D01*
X110348294Y-108084546D01*
X110332142Y-108081304D01*
X110321575Y-108078952D01*
X110306132Y-108075034D01*
X110291127Y-108070696D01*
X110276559Y-108065940D01*
X110262430Y-108060766D01*
X110248739Y-108055173D01*
X110231164Y-108047064D01*
X110214369Y-108038211D01*
X110198352Y-108028614D01*
X110183114Y-108018273D01*
X110179426Y-108015571D01*
X110165200Y-108004191D01*
X110151834Y-107992032D01*
X110139326Y-107979095D01*
X110127677Y-107965379D01*
X110116886Y-107950885D01*
X110106954Y-107935612D01*
X110097881Y-107919561D01*
X110089666Y-107902731D01*
X110082368Y-107884957D01*
X110077532Y-107871017D01*
X110073244Y-107856556D01*
X110069504Y-107841574D01*
X110066311Y-107826069D01*
X110063665Y-107810043D01*
X110061566Y-107793496D01*
X110060015Y-107776427D01*
X110059012Y-107758836D01*
X110058556Y-107740723D01*
X110058525Y-107734570D01*
X110058698Y-107718977D01*
X110059282Y-107703745D01*
X110059991Y-107693537D01*
X110061554Y-107678571D01*
X110063850Y-107663469D01*
X110064387Y-107660564D01*
X110067376Y-107646198D01*
X110071097Y-107631761D01*
X110071348Y-107630889D01*
X110075561Y-107616601D01*
X110079844Y-107602540D01*
X110080141Y-107601580D01*
X110410235Y-107601580D01*
X110410235Y-107830557D01*
G37*
G36*
X110473460Y-106208414D02*
G01*
X110492219Y-106209030D01*
X110510688Y-106210174D01*
X110528867Y-106211846D01*
X110546756Y-106214047D01*
X110564355Y-106216775D01*
X110581665Y-106220031D01*
X110598685Y-106223816D01*
X110615415Y-106228129D01*
X110631855Y-106232969D01*
X110648005Y-106238338D01*
X110658584Y-106242158D01*
X110674109Y-106248301D01*
X110689221Y-106254939D01*
X110703922Y-106262074D01*
X110718210Y-106269704D01*
X110732086Y-106277830D01*
X110745550Y-106286452D01*
X110758602Y-106295570D01*
X110771241Y-106305184D01*
X110783469Y-106315294D01*
X110795284Y-106325899D01*
X110802916Y-106333199D01*
X110813962Y-106344563D01*
X110824524Y-106356422D01*
X110834604Y-106368777D01*
X110844201Y-106381628D01*
X110853314Y-106394975D01*
X110861945Y-106408818D01*
X110870093Y-106423156D01*
X110877757Y-106437991D01*
X110884939Y-106453321D01*
X110891638Y-106469148D01*
X110895808Y-106479920D01*
X110901559Y-106496459D01*
X110906704Y-106513455D01*
X110911245Y-106530908D01*
X110915179Y-106548819D01*
X110918509Y-106567187D01*
X110921233Y-106586012D01*
X110923352Y-106605295D01*
X110924865Y-106625034D01*
X110925773Y-106645231D01*
X110926076Y-106665885D01*
X110925916Y-106679817D01*
X110925074Y-106700409D01*
X110923511Y-106720634D01*
X110921227Y-106740492D01*
X110918222Y-106759982D01*
X110914495Y-106779106D01*
X110910047Y-106797862D01*
X110904878Y-106816252D01*
X110898988Y-106834274D01*
X110892376Y-106851929D01*
X110885043Y-106869218D01*
X110879779Y-106880515D01*
X110871380Y-106897063D01*
X110862374Y-106913135D01*
X110852764Y-106928731D01*
X110842548Y-106943850D01*
X110831726Y-106958492D01*
X110820300Y-106972658D01*
X110808268Y-106986347D01*
X110795630Y-106999560D01*
X110782387Y-107012296D01*
X110768539Y-107024556D01*
X110759032Y-107032413D01*
X110744327Y-107043779D01*
X110729086Y-107054644D01*
X110713312Y-107065006D01*
X110697002Y-107074865D01*
X110680159Y-107084223D01*
X110662780Y-107093078D01*
X110644867Y-107101430D01*
X110626420Y-107109281D01*
X110607438Y-107116629D01*
X110587922Y-107123474D01*
X110574642Y-107127689D01*
X110554385Y-107133501D01*
X110533723Y-107138701D01*
X110512654Y-107143290D01*
X110491180Y-107147267D01*
X110476639Y-107149578D01*
X110461917Y-107151617D01*
X110447015Y-107153385D01*
X110431932Y-107154880D01*
X110416669Y-107156104D01*
X110401226Y-107157055D01*
X110385603Y-107157735D01*
X110369799Y-107158143D01*
X110353815Y-107158279D01*
X110337724Y-107158143D01*
X110321873Y-107157735D01*
X110306262Y-107157055D01*
X110290892Y-107156104D01*
X110275762Y-107154880D01*
X110260873Y-107153385D01*
X110246224Y-107151617D01*
X110224702Y-107148456D01*
X110203720Y-107144683D01*
X110183280Y-107140299D01*
X110163380Y-107135302D01*
X110144021Y-107129694D01*
X110125204Y-107123474D01*
X110113008Y-107118958D01*
X110095175Y-107111732D01*
X110077897Y-107103965D01*
X110061172Y-107095658D01*
X110045001Y-107086809D01*
X110029384Y-107077420D01*
X110014321Y-107067489D01*
X109999812Y-107057018D01*
X109985856Y-107046005D01*
X109972455Y-107034452D01*
X109959607Y-107022358D01*
X109951354Y-107014002D01*
X109939452Y-107001043D01*
X109928123Y-106987576D01*
X109917367Y-106973600D01*
X109907184Y-106959116D01*
X109897574Y-106944122D01*
X109888538Y-106928620D01*
X109880075Y-106912609D01*
X109872185Y-106896089D01*
X109864868Y-106879061D01*
X109858124Y-106861524D01*
X109852035Y-106843517D01*
X109846545Y-106825078D01*
X109841654Y-106806208D01*
X109837362Y-106786906D01*
X109833668Y-106767173D01*
X109830574Y-106747008D01*
X109828078Y-106726412D01*
X109826182Y-106705384D01*
X109824884Y-106683925D01*
X109824185Y-106662034D01*
X109824052Y-106647201D01*
X109824065Y-106641280D01*
X109824210Y-106626366D01*
X109824516Y-106611291D01*
X109824983Y-106596055D01*
X109825611Y-106580658D01*
X109826400Y-106565100D01*
X109827349Y-106549381D01*
X109827775Y-106543066D01*
X109828950Y-106527315D01*
X109830286Y-106511617D01*
X109831783Y-106495974D01*
X109833442Y-106480383D01*
X109835261Y-106464847D01*
X109837241Y-106449364D01*
X109838073Y-106443190D01*
X109840214Y-106427831D01*
X109842445Y-106412579D01*
X109844765Y-106397434D01*
X109847175Y-106382397D01*
X109849674Y-106367467D01*
X109852262Y-106352644D01*
X109853323Y-106346763D01*
X109856590Y-106329448D01*
X109859986Y-106312623D01*
X109863511Y-106296287D01*
X109867164Y-106280440D01*
X109870947Y-106265083D01*
X110081973Y-106265083D01*
X110078913Y-106276781D01*
X110074527Y-106294231D01*
X110070386Y-106311565D01*
X110066490Y-106328784D01*
X110062839Y-106345886D01*
X110059432Y-106362873D01*
X110056270Y-106379743D01*
X110053353Y-106396498D01*
X110050680Y-106413137D01*
X110048252Y-106429660D01*
X110046069Y-106446067D01*
X110044105Y-106462254D01*
X110042334Y-106478254D01*
X110040756Y-106494067D01*
X110039371Y-106509694D01*
X110038180Y-106525134D01*
X110037182Y-106540387D01*
X110036377Y-106555453D01*
X110035765Y-106570333D01*
X110035250Y-106589882D01*
X110035078Y-106609099D01*
X110035150Y-106617296D01*
X110035722Y-106633416D01*
X110036867Y-106649170D01*
X110038584Y-106664557D01*
X110040874Y-106679578D01*
X110043736Y-106694233D01*
X110048119Y-106712036D01*
X110053396Y-106729266D01*
X110055796Y-106735984D01*
X110062360Y-106752252D01*
X110069728Y-106767769D01*
X110077901Y-106782534D01*
X110086880Y-106796549D01*
X110096663Y-106809811D01*
X110107252Y-106822323D01*
X110111760Y-106827064D01*
X110123606Y-106838329D01*
X110136275Y-106848753D01*
X110149766Y-106858336D01*
X110164081Y-106867078D01*
X110179219Y-106874980D01*
X110195179Y-106882040D01*
X110205147Y-106885772D01*
X110222405Y-106891176D01*
X110236790Y-106894766D01*
X110251691Y-106897702D01*
X110267107Y-106899986D01*
X110283038Y-106901618D01*
X110299484Y-106902597D01*
X110316446Y-106902923D01*
X110316446Y-106463652D01*
X110504024Y-106463652D01*
X110504024Y-106898527D01*
X110517794Y-106896914D01*
X110537709Y-106893770D01*
X110556735Y-106889757D01*
X110574872Y-106884874D01*
X110592121Y-106879122D01*
X110608480Y-106872501D01*
X110623951Y-106865010D01*
X110638534Y-106856650D01*
X110652227Y-106847420D01*
X110665032Y-106837321D01*
X110676948Y-106826353D01*
X110684401Y-106818618D01*
X110694680Y-106806516D01*
X110703876Y-106793815D01*
X110711990Y-106780515D01*
X110719023Y-106766617D01*
X110724973Y-106752119D01*
X110729842Y-106737023D01*
X110733629Y-106721328D01*
X110736334Y-106705033D01*
X110737956Y-106688140D01*
X110738497Y-106670648D01*
X110738443Y-106665267D01*
X110737627Y-106649399D01*
X110735833Y-106633943D01*
X110733059Y-106618899D01*
X110729307Y-106604267D01*
X110724576Y-106590048D01*
X110722777Y-106585368D01*
X110716676Y-106571776D01*
X110709519Y-106558853D01*
X110701306Y-106546599D01*
X110692036Y-106535016D01*
X110681711Y-106524102D01*
X110678032Y-106520579D01*
X110666255Y-106510593D01*
X110653371Y-106501482D01*
X110639379Y-106493248D01*
X110624279Y-106485889D01*
X110608072Y-106479406D01*
X110599625Y-106476466D01*
X110584945Y-106472239D01*
X110569514Y-106468853D01*
X110553332Y-106466307D01*
X110536398Y-106464602D01*
X110518713Y-106463738D01*
X110504024Y-106463652D01*
X110316446Y-106463652D01*
X110316446Y-106214525D01*
X110330090Y-106213352D01*
X110346464Y-106212148D01*
X110363329Y-106211119D01*
X110378175Y-106210376D01*
X110393382Y-106209762D01*
X110395955Y-106209672D01*
X110413120Y-106209121D01*
X110428813Y-106208710D01*
X110444944Y-106208412D01*
X110460793Y-106208296D01*
X110473460Y-106208414D01*
G37*
G36*
X109847500Y-105342578D02*
G01*
X110540294Y-105342578D01*
X110561456Y-105343077D01*
X110581253Y-105344575D01*
X110599684Y-105347073D01*
X110616750Y-105350569D01*
X110632451Y-105355064D01*
X110646786Y-105360558D01*
X110665729Y-105370672D01*
X110681601Y-105383034D01*
X110694400Y-105397643D01*
X110704128Y-105414499D01*
X110710784Y-105433604D01*
X110714367Y-105454956D01*
X110715050Y-105470439D01*
X110714231Y-105486290D01*
X110711776Y-105501969D01*
X110707683Y-105517476D01*
X110701953Y-105532812D01*
X110694585Y-105547976D01*
X110685581Y-105562969D01*
X110674939Y-105577789D01*
X110662660Y-105592438D01*
X110652508Y-105603418D01*
X110641700Y-105614514D01*
X110630235Y-105625726D01*
X110618112Y-105637054D01*
X110605333Y-105648498D01*
X110591897Y-105660058D01*
X110577804Y-105671734D01*
X110563055Y-105683525D01*
X110547648Y-105695433D01*
X110531585Y-105707456D01*
X110520511Y-105715536D01*
X109847500Y-105715536D01*
X109847500Y-105966862D01*
X110902629Y-105966862D01*
X110902629Y-105749608D01*
X110746924Y-105743380D01*
X110759453Y-105733357D01*
X110771625Y-105723209D01*
X110783439Y-105712935D01*
X110794895Y-105702536D01*
X110805993Y-105692012D01*
X110816733Y-105681363D01*
X110820929Y-105677068D01*
X110831106Y-105666067D01*
X110840800Y-105654814D01*
X110850011Y-105643312D01*
X110860427Y-105629178D01*
X110870147Y-105614684D01*
X110877716Y-105602330D01*
X110886122Y-105587011D01*
X110893756Y-105571280D01*
X110900616Y-105555138D01*
X110905743Y-105541370D01*
X110910334Y-105527317D01*
X110913620Y-105515868D01*
X110917208Y-105501051D01*
X110920188Y-105485679D01*
X110922560Y-105469752D01*
X110924324Y-105453271D01*
X110925480Y-105436236D01*
X110926027Y-105418645D01*
X110926076Y-105411454D01*
X110925841Y-105396591D01*
X110924796Y-105377334D01*
X110922916Y-105358718D01*
X110920199Y-105340743D01*
X110916647Y-105323409D01*
X110912260Y-105306717D01*
X110907036Y-105290665D01*
X110900977Y-105275255D01*
X110899331Y-105271503D01*
X110892393Y-105256797D01*
X110884768Y-105242720D01*
X110876456Y-105229274D01*
X110867458Y-105216457D01*
X110857772Y-105204269D01*
X110847399Y-105192712D01*
X110836340Y-105181784D01*
X110824593Y-105171485D01*
X110812280Y-105161725D01*
X110799337Y-105152595D01*
X110785764Y-105144094D01*
X110771562Y-105136223D01*
X110756730Y-105128981D01*
X110741268Y-105122370D01*
X110725177Y-105116388D01*
X110708456Y-105111035D01*
X110691168Y-105106313D01*
X110673376Y-105102220D01*
X110655081Y-105098756D01*
X110636282Y-105095923D01*
X110616979Y-105093719D01*
X110602171Y-105092479D01*
X110587080Y-105091594D01*
X110571706Y-105091062D01*
X110556048Y-105090885D01*
X109847500Y-105090885D01*
X109847500Y-105342578D01*
G37*
G36*
X110473460Y-103901784D02*
G01*
X110492219Y-103902400D01*
X110510688Y-103903545D01*
X110528867Y-103905217D01*
X110546756Y-103907417D01*
X110564355Y-103910146D01*
X110581665Y-103913402D01*
X110598685Y-103917187D01*
X110615415Y-103921499D01*
X110631855Y-103926340D01*
X110648005Y-103931709D01*
X110658584Y-103935528D01*
X110674109Y-103941671D01*
X110689221Y-103948310D01*
X110703922Y-103955444D01*
X110718210Y-103963074D01*
X110732086Y-103971201D01*
X110745550Y-103979823D01*
X110758602Y-103988941D01*
X110771241Y-103998555D01*
X110783469Y-104008664D01*
X110795284Y-104019270D01*
X110802916Y-104026570D01*
X110813962Y-104037933D01*
X110824524Y-104049793D01*
X110834604Y-104062148D01*
X110844201Y-104074999D01*
X110853314Y-104088346D01*
X110861945Y-104102188D01*
X110870093Y-104116527D01*
X110877757Y-104131362D01*
X110884939Y-104146692D01*
X110891638Y-104162518D01*
X110895808Y-104173290D01*
X110901559Y-104189829D01*
X110906704Y-104206825D01*
X110911245Y-104224279D01*
X110915179Y-104242190D01*
X110918509Y-104260558D01*
X110921233Y-104279383D01*
X110923352Y-104298665D01*
X110924865Y-104318405D01*
X110925773Y-104338602D01*
X110926076Y-104359256D01*
X110925916Y-104373188D01*
X110925074Y-104393780D01*
X110923511Y-104414004D01*
X110921227Y-104433862D01*
X110918222Y-104453353D01*
X110914495Y-104472476D01*
X110910047Y-104491233D01*
X110904878Y-104509622D01*
X110898988Y-104527645D01*
X110892376Y-104545300D01*
X110885043Y-104562588D01*
X110879779Y-104573885D01*
X110871380Y-104590434D01*
X110862374Y-104606506D01*
X110852764Y-104622102D01*
X110842548Y-104637220D01*
X110831726Y-104651863D01*
X110820300Y-104666029D01*
X110808268Y-104679718D01*
X110795630Y-104692931D01*
X110782387Y-104705667D01*
X110768539Y-104717927D01*
X110759032Y-104725783D01*
X110744327Y-104737150D01*
X110729086Y-104748014D01*
X110713312Y-104758376D01*
X110697002Y-104768236D01*
X110680159Y-104777593D01*
X110662780Y-104786448D01*
X110644867Y-104794801D01*
X110626420Y-104802651D01*
X110607438Y-104809999D01*
X110587922Y-104816845D01*
X110574642Y-104821059D01*
X110554385Y-104826872D01*
X110533723Y-104832072D01*
X110512654Y-104836660D01*
X110491180Y-104840637D01*
X110476639Y-104842948D01*
X110461917Y-104844988D01*
X110447015Y-104846755D01*
X110431932Y-104848251D01*
X110416669Y-104849474D01*
X110401226Y-104850426D01*
X110385603Y-104851106D01*
X110369799Y-104851514D01*
X110353815Y-104851649D01*
X110337724Y-104851514D01*
X110321873Y-104851106D01*
X110306262Y-104850426D01*
X110290892Y-104849474D01*
X110275762Y-104848251D01*
X110260873Y-104846755D01*
X110246224Y-104844988D01*
X110224702Y-104841827D01*
X110203720Y-104838054D01*
X110183280Y-104833669D01*
X110163380Y-104828673D01*
X110144021Y-104823065D01*
X110125204Y-104816845D01*
X110113008Y-104812328D01*
X110095175Y-104805103D01*
X110077897Y-104797336D01*
X110061172Y-104789028D01*
X110045001Y-104780180D01*
X110029384Y-104770790D01*
X110014321Y-104760860D01*
X109999812Y-104750388D01*
X109985856Y-104739376D01*
X109972455Y-104727823D01*
X109959607Y-104715728D01*
X109951354Y-104707372D01*
X109939452Y-104694414D01*
X109928123Y-104680947D01*
X109917367Y-104666971D01*
X109907184Y-104652486D01*
X109897574Y-104637493D01*
X109888538Y-104621991D01*
X109880075Y-104605980D01*
X109872185Y-104589460D01*
X109864868Y-104572432D01*
X109858124Y-104554894D01*
X109852035Y-104536887D01*
X109846545Y-104518448D01*
X109841654Y-104499578D01*
X109837362Y-104480276D01*
X109833668Y-104460543D01*
X109830574Y-104440378D01*
X109828078Y-104419782D01*
X109826182Y-104398755D01*
X109824884Y-104377295D01*
X109824185Y-104355405D01*
X109824052Y-104340571D01*
X109824065Y-104334651D01*
X109824210Y-104319737D01*
X109824516Y-104304662D01*
X109824983Y-104289426D01*
X109825611Y-104274029D01*
X109826400Y-104258471D01*
X109827349Y-104242752D01*
X109827775Y-104236437D01*
X109828950Y-104220685D01*
X109830286Y-104204988D01*
X109831783Y-104189344D01*
X109833442Y-104173754D01*
X109835261Y-104158217D01*
X109837241Y-104142735D01*
X109838073Y-104136561D01*
X109840214Y-104121201D01*
X109842445Y-104105949D01*
X109844765Y-104090805D01*
X109847175Y-104075767D01*
X109849674Y-104060837D01*
X109852262Y-104046014D01*
X109853323Y-104040134D01*
X109856590Y-104022819D01*
X109859986Y-104005993D01*
X109863511Y-103989657D01*
X109867164Y-103973811D01*
X109870947Y-103958453D01*
X110081973Y-103958453D01*
X110078913Y-103970151D01*
X110074527Y-103987602D01*
X110070386Y-104004936D01*
X110066490Y-104022154D01*
X110062839Y-104039257D01*
X110059432Y-104056243D01*
X110056270Y-104073114D01*
X110053353Y-104089869D01*
X110050680Y-104106507D01*
X110048252Y-104123030D01*
X110046069Y-104139437D01*
X110044105Y-104155624D01*
X110042334Y-104171624D01*
X110040756Y-104187438D01*
X110039371Y-104203064D01*
X110038180Y-104218504D01*
X110037182Y-104233758D01*
X110036377Y-104248824D01*
X110035765Y-104263704D01*
X110035250Y-104283252D01*
X110035078Y-104302469D01*
X110035150Y-104310667D01*
X110035722Y-104326787D01*
X110036867Y-104342541D01*
X110038584Y-104357928D01*
X110040874Y-104372949D01*
X110043736Y-104387603D01*
X110048119Y-104405406D01*
X110053396Y-104422637D01*
X110055796Y-104429355D01*
X110062360Y-104445623D01*
X110069728Y-104461140D01*
X110077901Y-104475905D01*
X110086880Y-104489919D01*
X110096663Y-104503182D01*
X110107252Y-104515693D01*
X110111760Y-104520435D01*
X110123606Y-104531699D01*
X110136275Y-104542123D01*
X110149766Y-104551706D01*
X110164081Y-104560449D01*
X110179219Y-104568350D01*
X110195179Y-104575411D01*
X110205147Y-104579143D01*
X110222405Y-104584547D01*
X110236790Y-104588136D01*
X110251691Y-104591073D01*
X110267107Y-104593357D01*
X110283038Y-104594988D01*
X110299484Y-104595967D01*
X110316446Y-104596294D01*
X110316446Y-104157023D01*
X110504024Y-104157023D01*
X110504024Y-104591897D01*
X110517794Y-104590284D01*
X110537709Y-104587141D01*
X110556735Y-104583127D01*
X110574872Y-104578245D01*
X110592121Y-104572493D01*
X110608480Y-104565871D01*
X110623951Y-104558381D01*
X110638534Y-104550020D01*
X110652227Y-104540791D01*
X110665032Y-104530692D01*
X110676948Y-104519723D01*
X110684401Y-104511988D01*
X110694680Y-104499886D01*
X110703876Y-104487186D01*
X110711990Y-104473886D01*
X110719023Y-104459987D01*
X110724973Y-104445490D01*
X110729842Y-104430394D01*
X110733629Y-104414698D01*
X110736334Y-104398404D01*
X110737956Y-104381511D01*
X110738497Y-104364019D01*
X110738443Y-104358638D01*
X110737627Y-104342769D01*
X110735833Y-104327314D01*
X110733059Y-104312270D01*
X110729307Y-104297638D01*
X110724576Y-104283418D01*
X110722777Y-104278739D01*
X110716676Y-104265146D01*
X110709519Y-104252223D01*
X110701306Y-104239970D01*
X110692036Y-104228387D01*
X110681711Y-104217473D01*
X110678032Y-104213950D01*
X110666255Y-104203963D01*
X110653371Y-104194853D01*
X110639379Y-104186618D01*
X110624279Y-104179259D01*
X110608072Y-104172776D01*
X110599625Y-104169837D01*
X110584945Y-104165609D01*
X110569514Y-104162223D01*
X110553332Y-104159678D01*
X110536398Y-104157973D01*
X110518713Y-104157109D01*
X110504024Y-104157023D01*
X110316446Y-104157023D01*
X110316446Y-103907895D01*
X110330090Y-103906723D01*
X110346464Y-103905518D01*
X110363329Y-103904489D01*
X110378175Y-103903746D01*
X110393382Y-103903132D01*
X110395955Y-103903042D01*
X110413120Y-103902491D01*
X110428813Y-103902081D01*
X110444944Y-103901783D01*
X110460793Y-103901667D01*
X110473460Y-103901784D01*
G37*
G36*
X110504024Y-102986489D02*
G01*
X110521244Y-102986052D01*
X110537641Y-102986117D01*
X110553215Y-102986682D01*
X110567966Y-102987748D01*
X110584581Y-102989689D01*
X110600012Y-102992351D01*
X110614360Y-102995558D01*
X110629863Y-103000113D01*
X110644033Y-103005546D01*
X110658596Y-103012827D01*
X110665225Y-103016897D01*
X110677337Y-103025827D01*
X110688830Y-103037078D01*
X110698061Y-103049604D01*
X110702960Y-103058663D01*
X110708804Y-103073079D01*
X110712736Y-103088712D01*
X110714625Y-103103630D01*
X110715050Y-103115449D01*
X110713852Y-103132835D01*
X110710256Y-103150418D01*
X110705653Y-103164626D01*
X110699517Y-103178960D01*
X110691846Y-103193420D01*
X110682641Y-103208006D01*
X110671902Y-103222718D01*
X110665957Y-103230121D01*
X110656192Y-103241353D01*
X110645306Y-103252790D01*
X110633300Y-103264434D01*
X110620173Y-103276283D01*
X110605926Y-103288339D01*
X110590558Y-103300601D01*
X110574069Y-103313068D01*
X110556460Y-103325742D01*
X110544098Y-103334306D01*
X110531238Y-103342961D01*
X110517880Y-103351708D01*
X110504024Y-103360547D01*
X109847500Y-103360547D01*
X109847500Y-103618101D01*
X110902629Y-103618101D01*
X110902629Y-103390222D01*
X110738497Y-103381063D01*
X110751678Y-103372888D01*
X110764429Y-103364391D01*
X110776751Y-103355572D01*
X110788644Y-103346430D01*
X110800107Y-103336967D01*
X110811141Y-103327182D01*
X110815434Y-103323178D01*
X110825963Y-103312818D01*
X110836028Y-103302119D01*
X110847491Y-103288831D01*
X110858284Y-103275054D01*
X110868408Y-103260787D01*
X110874785Y-103251004D01*
X110882284Y-103238319D01*
X110889211Y-103225223D01*
X110895565Y-103211715D01*
X110901346Y-103197795D01*
X110906556Y-103183465D01*
X110911192Y-103168722D01*
X110912887Y-103162710D01*
X110916686Y-103147365D01*
X110919842Y-103131555D01*
X110922354Y-103115280D01*
X110924221Y-103098539D01*
X110925445Y-103081334D01*
X110926024Y-103063663D01*
X110926076Y-103056465D01*
X110925841Y-103041785D01*
X110924796Y-103022702D01*
X110922916Y-103004181D01*
X110920199Y-102986220D01*
X110916647Y-102968821D01*
X110912260Y-102951982D01*
X110907036Y-102935705D01*
X110900977Y-102919988D01*
X110899331Y-102916147D01*
X110892239Y-102901069D01*
X110884333Y-102886609D01*
X110875615Y-102872767D01*
X110866084Y-102859544D01*
X110855740Y-102846939D01*
X110844583Y-102834952D01*
X110832613Y-102823583D01*
X110819830Y-102812832D01*
X110806223Y-102802729D01*
X110791781Y-102793301D01*
X110776502Y-102784548D01*
X110760388Y-102776471D01*
X110743438Y-102769069D01*
X110725652Y-102762343D01*
X110707030Y-102756292D01*
X110692515Y-102752197D01*
X110687573Y-102750917D01*
X110672513Y-102747345D01*
X110657009Y-102744185D01*
X110641060Y-102741437D01*
X110624667Y-102739101D01*
X110607830Y-102737178D01*
X110590548Y-102735667D01*
X110572822Y-102734568D01*
X110554651Y-102733881D01*
X110536036Y-102733606D01*
X110516977Y-102733743D01*
X110504024Y-102734064D01*
X110504024Y-102986489D01*
G37*
G36*
X110574070Y-101635363D02*
G01*
X110590503Y-101635744D01*
X110606544Y-101636582D01*
X110622192Y-101637878D01*
X110637448Y-101639631D01*
X110652310Y-101641841D01*
X110671516Y-101645498D01*
X110690023Y-101649969D01*
X110707832Y-101655253D01*
X110724942Y-101661349D01*
X110741354Y-101668207D01*
X110757067Y-101675958D01*
X110772083Y-101684602D01*
X110786400Y-101694139D01*
X110800018Y-101704569D01*
X110812938Y-101715892D01*
X110825160Y-101728108D01*
X110836683Y-101741217D01*
X110847508Y-101755144D01*
X110857634Y-101769999D01*
X110867063Y-101785782D01*
X110875792Y-101802491D01*
X110883824Y-101820128D01*
X110889389Y-101833965D01*
X110894561Y-101848323D01*
X110899341Y-101863202D01*
X110903728Y-101878603D01*
X110906434Y-101889129D01*
X110910166Y-101905406D01*
X110913505Y-101922269D01*
X110916451Y-101939719D01*
X110919005Y-101957754D01*
X110921165Y-101976375D01*
X110922933Y-101995582D01*
X110924308Y-102015376D01*
X110925290Y-102035755D01*
X110925879Y-102056720D01*
X110926076Y-102078272D01*
X110926023Y-102091523D01*
X110925745Y-102111286D01*
X110925229Y-102130914D01*
X110924474Y-102150407D01*
X110923481Y-102169764D01*
X110922250Y-102188987D01*
X110920781Y-102208074D01*
X110919073Y-102227025D01*
X110917127Y-102245842D01*
X110914943Y-102264523D01*
X110912520Y-102283070D01*
X110910845Y-102295253D01*
X110908229Y-102313189D01*
X110905491Y-102330720D01*
X110902630Y-102347845D01*
X110899648Y-102364564D01*
X110896542Y-102380878D01*
X110893315Y-102396786D01*
X110889965Y-102412288D01*
X110886493Y-102427384D01*
X110882898Y-102442075D01*
X110879181Y-102456360D01*
X110668155Y-102456360D01*
X110672264Y-102445760D01*
X110678207Y-102429779D01*
X110683886Y-102413701D01*
X110689301Y-102397527D01*
X110694452Y-102381257D01*
X110699339Y-102364889D01*
X110703962Y-102348426D01*
X110708321Y-102331865D01*
X110712415Y-102315208D01*
X110716246Y-102298454D01*
X110719813Y-102281604D01*
X110722075Y-102270328D01*
X110725196Y-102253377D01*
X110727987Y-102236381D01*
X110730451Y-102219340D01*
X110732585Y-102202253D01*
X110734392Y-102185122D01*
X110735870Y-102167945D01*
X110737019Y-102150724D01*
X110737841Y-102133457D01*
X110738333Y-102116145D01*
X110738497Y-102098788D01*
X110738202Y-102080926D01*
X110737317Y-102063977D01*
X110735841Y-102047939D01*
X110733775Y-102032814D01*
X110730516Y-102015868D01*
X110726407Y-102000236D01*
X110722379Y-101988009D01*
X110716883Y-101974305D01*
X110709560Y-101959651D01*
X110701256Y-101946436D01*
X110691969Y-101934657D01*
X110690563Y-101933091D01*
X110678616Y-101921539D01*
X110665432Y-101911727D01*
X110651013Y-101903656D01*
X110637381Y-101898021D01*
X110629292Y-101895359D01*
X110614559Y-101891555D01*
X110599089Y-101888837D01*
X110582882Y-101887207D01*
X110565940Y-101886663D01*
X110504024Y-101886663D01*
X110504024Y-102023684D01*
X110503999Y-102031757D01*
X110503792Y-102047708D01*
X110503380Y-102063399D01*
X110502762Y-102078829D01*
X110501938Y-102093999D01*
X110500907Y-102108908D01*
X110498975Y-102130784D01*
X110496580Y-102152073D01*
X110493720Y-102172777D01*
X110490397Y-102192894D01*
X110486611Y-102212426D01*
X110482360Y-102231371D01*
X110477646Y-102249730D01*
X110474271Y-102261650D01*
X110468920Y-102279063D01*
X110463220Y-102295915D01*
X110457173Y-102312207D01*
X110450778Y-102327939D01*
X110444036Y-102343111D01*
X110436945Y-102357722D01*
X110429507Y-102371773D01*
X110421721Y-102385264D01*
X110413587Y-102398194D01*
X110405106Y-102410564D01*
X110393279Y-102426083D01*
X110380880Y-102440583D01*
X110367908Y-102454064D01*
X110354364Y-102466526D01*
X110340248Y-102477970D01*
X110325559Y-102488394D01*
X110310298Y-102497799D01*
X110294464Y-102506185D01*
X110278252Y-102513570D01*
X110261674Y-102519970D01*
X110244730Y-102525385D01*
X110227419Y-102529816D01*
X110209742Y-102533262D01*
X110191699Y-102535724D01*
X110173289Y-102537200D01*
X110154513Y-102537693D01*
X110136298Y-102537366D01*
X110118472Y-102536388D01*
X110101035Y-102534756D01*
X110083988Y-102532472D01*
X110067330Y-102529535D01*
X110051061Y-102525946D01*
X110035181Y-102521704D01*
X110019691Y-102516810D01*
X110004761Y-102511189D01*
X109990382Y-102504949D01*
X109976551Y-102498091D01*
X109963271Y-102490615D01*
X109950539Y-102482521D01*
X109938358Y-102473808D01*
X109926726Y-102464477D01*
X109915643Y-102454528D01*
X109905133Y-102443875D01*
X109895218Y-102432615D01*
X109885899Y-102420748D01*
X109877175Y-102408275D01*
X109869046Y-102395194D01*
X109861513Y-102381507D01*
X109854575Y-102367213D01*
X109848232Y-102352312D01*
X109846745Y-102348492D01*
X109841266Y-102332824D01*
X109836544Y-102316538D01*
X109832577Y-102299634D01*
X109829365Y-102282111D01*
X109826909Y-102263971D01*
X109825209Y-102245212D01*
X109824265Y-102225834D01*
X109824052Y-102210896D01*
X109824158Y-102199645D01*
X109824631Y-102184905D01*
X109825752Y-102166898D01*
X109827464Y-102149356D01*
X109829767Y-102132279D01*
X109831834Y-102120404D01*
X110011631Y-102120404D01*
X110011665Y-102124817D01*
X110012498Y-102141890D01*
X110014442Y-102158036D01*
X110017496Y-102173254D01*
X110021660Y-102187545D01*
X110028428Y-102204105D01*
X110036930Y-102219216D01*
X110047168Y-102232878D01*
X110059061Y-102244699D01*
X110072527Y-102254516D01*
X110087568Y-102262330D01*
X110104183Y-102268140D01*
X110118609Y-102271346D01*
X110134042Y-102273269D01*
X110150483Y-102273910D01*
X110167107Y-102273109D01*
X110183272Y-102270705D01*
X110198980Y-102266698D01*
X110214230Y-102261088D01*
X110217957Y-102259426D01*
X110232291Y-102251607D01*
X110245709Y-102241909D01*
X110256698Y-102231884D01*
X110266987Y-102220421D01*
X110276611Y-102207451D01*
X110285289Y-102192902D01*
X110291974Y-102179177D01*
X110297963Y-102164292D01*
X110303257Y-102148248D01*
X110306348Y-102136862D01*
X110309632Y-102121776D01*
X110312273Y-102105742D01*
X110314269Y-102088760D01*
X110315621Y-102070830D01*
X110316240Y-102055804D01*
X110316446Y-102040170D01*
X110316446Y-101886663D01*
X110167702Y-101886663D01*
X110153922Y-101899341D01*
X110140748Y-101911818D01*
X110128180Y-101924096D01*
X110116216Y-101936174D01*
X110104858Y-101948053D01*
X110094106Y-101959732D01*
X110083958Y-101971211D01*
X110074416Y-101982491D01*
X110062635Y-101997220D01*
X110051931Y-102011594D01*
X110042485Y-102025636D01*
X110034299Y-102039552D01*
X110027373Y-102053342D01*
X110020486Y-102070403D01*
X110015566Y-102087266D01*
X110012615Y-102103934D01*
X110011631Y-102120404D01*
X109831834Y-102120404D01*
X109832659Y-102115668D01*
X109836142Y-102099521D01*
X109837648Y-102093141D01*
X109841762Y-102077467D01*
X109846378Y-102062186D01*
X109851494Y-102047299D01*
X109857111Y-102032806D01*
X109863229Y-102018706D01*
X109869848Y-102004999D01*
X109876896Y-101991668D01*
X109884302Y-101978695D01*
X109892066Y-101966080D01*
X109900187Y-101953823D01*
X109910405Y-101939586D01*
X109921139Y-101925864D01*
X109924871Y-101921344D01*
X109934402Y-101910154D01*
X109944220Y-101899126D01*
X109954323Y-101888258D01*
X109964713Y-101877552D01*
X109975389Y-101867006D01*
X109986352Y-101856622D01*
X109847500Y-101850393D01*
X109847500Y-101635338D01*
X110568504Y-101635338D01*
X110574070Y-101635363D01*
G37*
G36*
X109847500Y-100490083D02*
G01*
X109844912Y-100507130D01*
X109842462Y-100524200D01*
X109840149Y-100541294D01*
X109837974Y-100558410D01*
X109835936Y-100575549D01*
X109834036Y-100592711D01*
X109832272Y-100609895D01*
X109830647Y-100627103D01*
X109829101Y-100644213D01*
X109827762Y-100661106D01*
X109826628Y-100677782D01*
X109825701Y-100694239D01*
X109824980Y-100710480D01*
X109824464Y-100726502D01*
X109824155Y-100742307D01*
X109824052Y-100757895D01*
X109824245Y-100776950D01*
X109824825Y-100795509D01*
X109825791Y-100813572D01*
X109827143Y-100831139D01*
X109828882Y-100848211D01*
X109831007Y-100864786D01*
X109833519Y-100880866D01*
X109836417Y-100896449D01*
X109839701Y-100911537D01*
X109843372Y-100926129D01*
X109846034Y-100935582D01*
X109851890Y-100953866D01*
X109858468Y-100971348D01*
X109865766Y-100988029D01*
X109873786Y-101003909D01*
X109882527Y-101018987D01*
X109891990Y-101033264D01*
X109902174Y-101046739D01*
X109913079Y-101059413D01*
X109924814Y-101071200D01*
X109937305Y-101082196D01*
X109950551Y-101092403D01*
X109964553Y-101101820D01*
X109979310Y-101110446D01*
X109994824Y-101118283D01*
X110011093Y-101125330D01*
X110028117Y-101131587D01*
X110046023Y-101136996D01*
X110064754Y-101141685D01*
X110079342Y-101144727D01*
X110094395Y-101147365D01*
X110109911Y-101149596D01*
X110125891Y-101151422D01*
X110142334Y-101152842D01*
X110159241Y-101153856D01*
X110176612Y-101154465D01*
X110194446Y-101154668D01*
X110715050Y-101154668D01*
X110715050Y-101436035D01*
X110902629Y-101436035D01*
X110902629Y-101154668D01*
X111165312Y-101154668D01*
X111230891Y-100897114D01*
X110902629Y-100897114D01*
X110902629Y-100490083D01*
X110715050Y-100490083D01*
X110715050Y-100897114D01*
X110217894Y-100897114D01*
X110201378Y-100896753D01*
X110185629Y-100895671D01*
X110170647Y-100893868D01*
X110151862Y-100890342D01*
X110134440Y-100885533D01*
X110118380Y-100879442D01*
X110103682Y-100872069D01*
X110090347Y-100863414D01*
X110081240Y-100856081D01*
X110070421Y-100844867D01*
X110061044Y-100831924D01*
X110053110Y-100817252D01*
X110046618Y-100800851D01*
X110041570Y-100782722D01*
X110038729Y-100767991D01*
X110036701Y-100752287D01*
X110035484Y-100735610D01*
X110035078Y-100717961D01*
X110035187Y-100702534D01*
X110035513Y-100687210D01*
X110036057Y-100671988D01*
X110036818Y-100656870D01*
X110037797Y-100641855D01*
X110038994Y-100626943D01*
X110040407Y-100612134D01*
X110042039Y-100597428D01*
X110043899Y-100582847D01*
X110046305Y-100565089D01*
X110048801Y-100547850D01*
X110051386Y-100531129D01*
X110054060Y-100514927D01*
X110056824Y-100499244D01*
X110058525Y-100490083D01*
X109847500Y-100490083D01*
G37*
G36*
X110392138Y-99257666D02*
G01*
X110408512Y-99257930D01*
X110424638Y-99258456D01*
X110440515Y-99259246D01*
X110456143Y-99260300D01*
X110471521Y-99261616D01*
X110486651Y-99263196D01*
X110501532Y-99265039D01*
X110516163Y-99267146D01*
X110537644Y-99270800D01*
X110558564Y-99275046D01*
X110578924Y-99279884D01*
X110598724Y-99285315D01*
X110617964Y-99291339D01*
X110630520Y-99295625D01*
X110648872Y-99302500D01*
X110666644Y-99309909D01*
X110683837Y-99317853D01*
X110700450Y-99326331D01*
X110716483Y-99335344D01*
X110731937Y-99344891D01*
X110746811Y-99354973D01*
X110761106Y-99365589D01*
X110774821Y-99376740D01*
X110787957Y-99388425D01*
X110796389Y-99396504D01*
X110808543Y-99409035D01*
X110820105Y-99422062D01*
X110831075Y-99435585D01*
X110841451Y-99449604D01*
X110851236Y-99464119D01*
X110860428Y-99479129D01*
X110869028Y-99494636D01*
X110877035Y-99510638D01*
X110884449Y-99527136D01*
X110891271Y-99544130D01*
X110895486Y-99555679D01*
X110901298Y-99573379D01*
X110906498Y-99591529D01*
X110911087Y-99610130D01*
X110915064Y-99629181D01*
X110918428Y-99648684D01*
X110921182Y-99668637D01*
X110923323Y-99689041D01*
X110924852Y-99709896D01*
X110925770Y-99731201D01*
X110926076Y-99752958D01*
X110926037Y-99760467D01*
X110925725Y-99775342D01*
X110925101Y-99790025D01*
X110923580Y-99811691D01*
X110921357Y-99832924D01*
X110918432Y-99853727D01*
X110914806Y-99874097D01*
X110910477Y-99894037D01*
X110905446Y-99913545D01*
X110899713Y-99932621D01*
X110893279Y-99951266D01*
X110886142Y-99969479D01*
X110881022Y-99981319D01*
X110872858Y-99998654D01*
X110864115Y-100015481D01*
X110854792Y-100031799D01*
X110844889Y-100047608D01*
X110834407Y-100062908D01*
X110823345Y-100077700D01*
X110811704Y-100091983D01*
X110799483Y-100105757D01*
X110786682Y-100119022D01*
X110773302Y-100131779D01*
X110764116Y-100139947D01*
X110749891Y-100151750D01*
X110735131Y-100163011D01*
X110719838Y-100173732D01*
X110704009Y-100183911D01*
X110687646Y-100193550D01*
X110670749Y-100202647D01*
X110653317Y-100211204D01*
X110635350Y-100219219D01*
X110616849Y-100226694D01*
X110597814Y-100233628D01*
X110578311Y-100239979D01*
X110558409Y-100245705D01*
X110538108Y-100250807D01*
X110517408Y-100255283D01*
X110496308Y-100259136D01*
X110474810Y-100262363D01*
X110460255Y-100264168D01*
X110445523Y-100265695D01*
X110430614Y-100266944D01*
X110415527Y-100267916D01*
X110400263Y-100268610D01*
X110384821Y-100269026D01*
X110369202Y-100269165D01*
X110352344Y-100269032D01*
X110335749Y-100268633D01*
X110319417Y-100267967D01*
X110303348Y-100267036D01*
X110287543Y-100265838D01*
X110272001Y-100264374D01*
X110256723Y-100262644D01*
X110241707Y-100260647D01*
X110226956Y-100258385D01*
X110212467Y-100255856D01*
X110191228Y-100251564D01*
X110170581Y-100246672D01*
X110150527Y-100241182D01*
X110131065Y-100235093D01*
X110118422Y-100230718D01*
X110099955Y-100223721D01*
X110082087Y-100216203D01*
X110064818Y-100208162D01*
X110048148Y-100199600D01*
X110032077Y-100190517D01*
X110016605Y-100180911D01*
X110001732Y-100170785D01*
X109987458Y-100160136D01*
X109973782Y-100148966D01*
X109960706Y-100137274D01*
X109952320Y-100129197D01*
X109940234Y-100116673D01*
X109928741Y-100103660D01*
X109917840Y-100090158D01*
X109907532Y-100076166D01*
X109897816Y-100061684D01*
X109888693Y-100046713D01*
X109880162Y-100031253D01*
X109872223Y-100015303D01*
X109864877Y-99998864D01*
X109858124Y-99981936D01*
X109853998Y-99970346D01*
X109848308Y-99952609D01*
X109843218Y-99934446D01*
X109838726Y-99915858D01*
X109834833Y-99896845D01*
X109831539Y-99877407D01*
X109828844Y-99857543D01*
X109826747Y-99837255D01*
X109825250Y-99816542D01*
X109824352Y-99795404D01*
X109824052Y-99773841D01*
X109824092Y-99766196D01*
X109824192Y-99761384D01*
X110035078Y-99761384D01*
X110035413Y-99775484D01*
X110037171Y-99795924D01*
X110040436Y-99815515D01*
X110045208Y-99834255D01*
X110051487Y-99852145D01*
X110059273Y-99869186D01*
X110068566Y-99885376D01*
X110079366Y-99900716D01*
X110091673Y-99915206D01*
X110105486Y-99928846D01*
X110120807Y-99941636D01*
X110131848Y-99949621D01*
X110149628Y-99960634D01*
X110168870Y-99970487D01*
X110182510Y-99976411D01*
X110196799Y-99981821D01*
X110211739Y-99986715D01*
X110227328Y-99991095D01*
X110243566Y-99994959D01*
X110260455Y-99998307D01*
X110277993Y-100001141D01*
X110296181Y-100003459D01*
X110315019Y-100005263D01*
X110334506Y-100006551D01*
X110354644Y-100007323D01*
X110375430Y-100007581D01*
X110392879Y-100007364D01*
X110410052Y-100006711D01*
X110426950Y-100005623D01*
X110443574Y-100004101D01*
X110459923Y-100002143D01*
X110475997Y-99999750D01*
X110491797Y-99996922D01*
X110507322Y-99993659D01*
X110522554Y-99989933D01*
X110537295Y-99985714D01*
X110551543Y-99981002D01*
X110568661Y-99974421D01*
X110585009Y-99967071D01*
X110600589Y-99958951D01*
X110615399Y-99950062D01*
X110621136Y-99946244D01*
X110634791Y-99936147D01*
X110647462Y-99925264D01*
X110659148Y-99913593D01*
X110669851Y-99901135D01*
X110679570Y-99887890D01*
X110688306Y-99873858D01*
X110689951Y-99870931D01*
X110697394Y-99855727D01*
X110703532Y-99839576D01*
X110708364Y-99822476D01*
X110711289Y-99808113D01*
X110713379Y-99793143D01*
X110714632Y-99777567D01*
X110715050Y-99761384D01*
X110714720Y-99746682D01*
X110712984Y-99725483D01*
X110709761Y-99705308D01*
X110705050Y-99686156D01*
X110698851Y-99668029D01*
X110691165Y-99650925D01*
X110681991Y-99634846D01*
X110671330Y-99619790D01*
X110659181Y-99605758D01*
X110645544Y-99592750D01*
X110630420Y-99580767D01*
X110625049Y-99576980D01*
X110607957Y-99566341D01*
X110589397Y-99556784D01*
X110569369Y-99548309D01*
X110555201Y-99543260D01*
X110540380Y-99538692D01*
X110524907Y-99534605D01*
X110508781Y-99530998D01*
X110492003Y-99527873D01*
X110474572Y-99525228D01*
X110456489Y-99523064D01*
X110437752Y-99521381D01*
X110418364Y-99520179D01*
X110398322Y-99519458D01*
X110377629Y-99519218D01*
X110359728Y-99519446D01*
X110342114Y-99520133D01*
X110324786Y-99521278D01*
X110307745Y-99522881D01*
X110290989Y-99524942D01*
X110274520Y-99527461D01*
X110258337Y-99530437D01*
X110242440Y-99533872D01*
X110238540Y-99534779D01*
X110223256Y-99538695D01*
X110208476Y-99543068D01*
X110194199Y-99547900D01*
X110180426Y-99553189D01*
X110163918Y-99560445D01*
X110148197Y-99568416D01*
X110133264Y-99577103D01*
X110127572Y-99580745D01*
X110114032Y-99590464D01*
X110101476Y-99601060D01*
X110089903Y-99612532D01*
X110079315Y-99624881D01*
X110069711Y-99638106D01*
X110061090Y-99652208D01*
X110054993Y-99664012D01*
X110048516Y-99679507D01*
X110043308Y-99695825D01*
X110039371Y-99712966D01*
X110036704Y-99730930D01*
X110035484Y-99745894D01*
X110035078Y-99761384D01*
X109824192Y-99761384D01*
X109824406Y-99751067D01*
X109825036Y-99736149D01*
X109826571Y-99714169D01*
X109828814Y-99692666D01*
X109831766Y-99671639D01*
X109835426Y-99651089D01*
X109839794Y-99631016D01*
X109844871Y-99611419D01*
X109850657Y-99592299D01*
X109857150Y-99573655D01*
X109864352Y-99555488D01*
X109869564Y-99543606D01*
X109877866Y-99526225D01*
X109886746Y-99509371D01*
X109896207Y-99493046D01*
X109906247Y-99477249D01*
X109916866Y-99461980D01*
X109928065Y-99447238D01*
X109939844Y-99433025D01*
X109952202Y-99419340D01*
X109965140Y-99406183D01*
X109978658Y-99393555D01*
X109988023Y-99385433D01*
X110002500Y-99373707D01*
X110017493Y-99362528D01*
X110033000Y-99351897D01*
X110049023Y-99341813D01*
X110065561Y-99332276D01*
X110082614Y-99323287D01*
X110100182Y-99314845D01*
X110118266Y-99306951D01*
X110136864Y-99299604D01*
X110155978Y-99292804D01*
X110168976Y-99288545D01*
X110188783Y-99282672D01*
X110208964Y-99277417D01*
X110229518Y-99272780D01*
X110250446Y-99268762D01*
X110271747Y-99265361D01*
X110293422Y-99262579D01*
X110308079Y-99261068D01*
X110322903Y-99259832D01*
X110337892Y-99258870D01*
X110353048Y-99258183D01*
X110368369Y-99257771D01*
X110383857Y-99257633D01*
X110392138Y-99257666D01*
G37*
G36*
X110504024Y-98373230D02*
G01*
X110521244Y-98372794D01*
X110537641Y-98372858D01*
X110553215Y-98373423D01*
X110567966Y-98374489D01*
X110584581Y-98376430D01*
X110600012Y-98379092D01*
X110614360Y-98382299D01*
X110629863Y-98386855D01*
X110644033Y-98392287D01*
X110658596Y-98399568D01*
X110665225Y-98403638D01*
X110677337Y-98412568D01*
X110688830Y-98423819D01*
X110698061Y-98436345D01*
X110702960Y-98445404D01*
X110708804Y-98459820D01*
X110712736Y-98475453D01*
X110714625Y-98490371D01*
X110715050Y-98502190D01*
X110713852Y-98519576D01*
X110710256Y-98537159D01*
X110705653Y-98551368D01*
X110699517Y-98565702D01*
X110691846Y-98580161D01*
X110682641Y-98594747D01*
X110671902Y-98609459D01*
X110665957Y-98616862D01*
X110656192Y-98628094D01*
X110645306Y-98639531D01*
X110633300Y-98651175D01*
X110620173Y-98663024D01*
X110605926Y-98675080D01*
X110590558Y-98687342D01*
X110574069Y-98699809D01*
X110556460Y-98712483D01*
X110544098Y-98721047D01*
X110531238Y-98729703D01*
X110517880Y-98738449D01*
X110504024Y-98747288D01*
X109847500Y-98747288D01*
X109847500Y-99004842D01*
X110902629Y-99004842D01*
X110902629Y-98776963D01*
X110738497Y-98767804D01*
X110751678Y-98759629D01*
X110764429Y-98751132D01*
X110776751Y-98742313D01*
X110788644Y-98733172D01*
X110800107Y-98723708D01*
X110811141Y-98713923D01*
X110815434Y-98709919D01*
X110825963Y-98699559D01*
X110836028Y-98688860D01*
X110847491Y-98675572D01*
X110858284Y-98661795D01*
X110868408Y-98647528D01*
X110874785Y-98637745D01*
X110882284Y-98625060D01*
X110889211Y-98611964D01*
X110895565Y-98598456D01*
X110901346Y-98584536D01*
X110906556Y-98570206D01*
X110911192Y-98555463D01*
X110912887Y-98549451D01*
X110916686Y-98534106D01*
X110919842Y-98518296D01*
X110922354Y-98502021D01*
X110924221Y-98485280D01*
X110925445Y-98468075D01*
X110926024Y-98450404D01*
X110926076Y-98443206D01*
X110925841Y-98428526D01*
X110924796Y-98409443D01*
X110922916Y-98390922D01*
X110920199Y-98372961D01*
X110916647Y-98355562D01*
X110912260Y-98338723D01*
X110907036Y-98322446D01*
X110900977Y-98306730D01*
X110899331Y-98302888D01*
X110892239Y-98287810D01*
X110884333Y-98273350D01*
X110875615Y-98259508D01*
X110866084Y-98246285D01*
X110855740Y-98233680D01*
X110844583Y-98221693D01*
X110832613Y-98210324D01*
X110819830Y-98199573D01*
X110806223Y-98189470D01*
X110791781Y-98180042D01*
X110776502Y-98171289D01*
X110760388Y-98163212D01*
X110743438Y-98155810D01*
X110725652Y-98149084D01*
X110707030Y-98143033D01*
X110692515Y-98138938D01*
X110687573Y-98137658D01*
X110672513Y-98134086D01*
X110657009Y-98130926D01*
X110641060Y-98128178D01*
X110624667Y-98125843D01*
X110607830Y-98123919D01*
X110590548Y-98122408D01*
X110572822Y-98121309D01*
X110554651Y-98120622D01*
X110536036Y-98120347D01*
X110516977Y-98120485D01*
X110504024Y-98120805D01*
X110504024Y-98373230D01*
G37*
G36*
X107327500Y-118644897D02*
G01*
X107327500Y-118934325D01*
X108382629Y-119349416D01*
X108382629Y-119069147D01*
X107771167Y-118851893D01*
X107573696Y-118787047D01*
X107762740Y-118722933D01*
X108382629Y-118503481D01*
X108382629Y-118233470D01*
X107327500Y-118644897D01*
G37*
G36*
X107327500Y-118063111D02*
G01*
X107561973Y-118063111D01*
X107561973Y-117720194D01*
X108403511Y-117720194D01*
X108241945Y-118019147D01*
X108452971Y-118101579D01*
X108663996Y-117673666D01*
X108663996Y-117462640D01*
X107561973Y-117462640D01*
X107561973Y-117166984D01*
X107327500Y-117166984D01*
X107327500Y-118063111D01*
G37*
G36*
X107702657Y-116492507D02*
G01*
X107702103Y-116476515D01*
X107700441Y-116460960D01*
X107697672Y-116445843D01*
X107693795Y-116431164D01*
X107688811Y-116416923D01*
X107686903Y-116412273D01*
X107680596Y-116398621D01*
X107673490Y-116385689D01*
X107664191Y-116371514D01*
X107653806Y-116358321D01*
X107644038Y-116347793D01*
X107631864Y-116336351D01*
X107618743Y-116326065D01*
X107604676Y-116316936D01*
X107589662Y-116308964D01*
X107580657Y-116304929D01*
X107566738Y-116299699D01*
X107552459Y-116295552D01*
X107537818Y-116292487D01*
X107522817Y-116290503D01*
X107507456Y-116289602D01*
X107502255Y-116289541D01*
X107487160Y-116290082D01*
X107472374Y-116291705D01*
X107457897Y-116294410D01*
X107443729Y-116298197D01*
X107429870Y-116303065D01*
X107425319Y-116304929D01*
X107410032Y-116312239D01*
X107395586Y-116320707D01*
X107381982Y-116330331D01*
X107369219Y-116341113D01*
X107362304Y-116347793D01*
X107351129Y-116360145D01*
X107341006Y-116373479D01*
X107331935Y-116387794D01*
X107324997Y-116400846D01*
X107319806Y-116412273D01*
X107314452Y-116426368D01*
X107310206Y-116440901D01*
X107307068Y-116455872D01*
X107305037Y-116471281D01*
X107304114Y-116487128D01*
X107304052Y-116492507D01*
X107304606Y-116507839D01*
X107306268Y-116522784D01*
X107309037Y-116537342D01*
X107312914Y-116551515D01*
X107317898Y-116565301D01*
X107319806Y-116569810D01*
X107327224Y-116585097D01*
X107335694Y-116599543D01*
X107345216Y-116613147D01*
X107355790Y-116625910D01*
X107362304Y-116632825D01*
X107374586Y-116643982D01*
X107387709Y-116654052D01*
X107401674Y-116663036D01*
X107416480Y-116670932D01*
X107425319Y-116674957D01*
X107439075Y-116680186D01*
X107453140Y-116684333D01*
X107467514Y-116687399D01*
X107482197Y-116689382D01*
X107497189Y-116690284D01*
X107502255Y-116690344D01*
X107517737Y-116689803D01*
X107532858Y-116688180D01*
X107547619Y-116685475D01*
X107562018Y-116681689D01*
X107576058Y-116676820D01*
X107580657Y-116674957D01*
X107594048Y-116668787D01*
X107608792Y-116660580D01*
X107622589Y-116651286D01*
X107635439Y-116640905D01*
X107644038Y-116632825D01*
X107655356Y-116620543D01*
X107665586Y-116607420D01*
X107674730Y-116593455D01*
X107682787Y-116578649D01*
X107686903Y-116569810D01*
X107692257Y-116556153D01*
X107696503Y-116542110D01*
X107699641Y-116527680D01*
X107701672Y-116512863D01*
X107702595Y-116497661D01*
X107702657Y-116492507D01*
G37*
G36*
X108024532Y-114807747D02*
G01*
X108046678Y-114808193D01*
X108068415Y-114808937D01*
X108089743Y-114809979D01*
X108110662Y-114811319D01*
X108131171Y-114812956D01*
X108151271Y-114814891D01*
X108170962Y-114817123D01*
X108190243Y-114819654D01*
X108209115Y-114822482D01*
X108227578Y-114825607D01*
X108245631Y-114829030D01*
X108263275Y-114832751D01*
X108280510Y-114836770D01*
X108297336Y-114841086D01*
X108313752Y-114845700D01*
X108321835Y-114848110D01*
X108337723Y-114853105D01*
X108353242Y-114858331D01*
X108368392Y-114863789D01*
X108383172Y-114869480D01*
X108397583Y-114875401D01*
X108411625Y-114881555D01*
X108425298Y-114887941D01*
X108438602Y-114894558D01*
X108457865Y-114904919D01*
X108476297Y-114915802D01*
X108493899Y-114927206D01*
X108510670Y-114939132D01*
X108526610Y-114951579D01*
X108536832Y-114960109D01*
X108551516Y-114973289D01*
X108565421Y-114986933D01*
X108578547Y-115001041D01*
X108590894Y-115015613D01*
X108602461Y-115030648D01*
X108613249Y-115046147D01*
X108623258Y-115062109D01*
X108632488Y-115078536D01*
X108640938Y-115095426D01*
X108648609Y-115112779D01*
X108653312Y-115124570D01*
X108659797Y-115142509D01*
X108665599Y-115160750D01*
X108670719Y-115179294D01*
X108675156Y-115198141D01*
X108678911Y-115217290D01*
X108681983Y-115236742D01*
X108684372Y-115256497D01*
X108686078Y-115276554D01*
X108687102Y-115296914D01*
X108687444Y-115317577D01*
X108687259Y-115333455D01*
X108686705Y-115349124D01*
X108685782Y-115364585D01*
X108684490Y-115379836D01*
X108682828Y-115394878D01*
X108680798Y-115409712D01*
X108678398Y-115424336D01*
X108674105Y-115445881D01*
X108668982Y-115466956D01*
X108663029Y-115487561D01*
X108656244Y-115507696D01*
X108648629Y-115527360D01*
X108640183Y-115546555D01*
X108634153Y-115559025D01*
X108624482Y-115577270D01*
X108614056Y-115594961D01*
X108602878Y-115612097D01*
X108590945Y-115628680D01*
X108578260Y-115644710D01*
X108564820Y-115660185D01*
X108550628Y-115675106D01*
X108535682Y-115689474D01*
X108519982Y-115703288D01*
X108503529Y-115716548D01*
X108497902Y-115720821D01*
X108480545Y-115733263D01*
X108462473Y-115745138D01*
X108443687Y-115756447D01*
X108430765Y-115763671D01*
X108417526Y-115770644D01*
X108403969Y-115777364D01*
X108390095Y-115783833D01*
X108375902Y-115790050D01*
X108361392Y-115796014D01*
X108346565Y-115801727D01*
X108331419Y-115807189D01*
X108315956Y-115812398D01*
X108300175Y-115817355D01*
X108284077Y-115822061D01*
X108267728Y-115826497D01*
X108251104Y-115830647D01*
X108234205Y-115834511D01*
X108217032Y-115838089D01*
X108199584Y-115841381D01*
X108181861Y-115844386D01*
X108163863Y-115847105D01*
X108145591Y-115849538D01*
X108127044Y-115851685D01*
X108108222Y-115853545D01*
X108089125Y-115855119D01*
X108069754Y-115856407D01*
X108050107Y-115857409D01*
X108030186Y-115858125D01*
X108009990Y-115858554D01*
X107989520Y-115858697D01*
X107967096Y-115858548D01*
X107945069Y-115858102D01*
X107923441Y-115857358D01*
X107902211Y-115856316D01*
X107881378Y-115854976D01*
X107860943Y-115853339D01*
X107840906Y-115851404D01*
X107821267Y-115849172D01*
X107802026Y-115846641D01*
X107783182Y-115843814D01*
X107764737Y-115840688D01*
X107746689Y-115837265D01*
X107729039Y-115833544D01*
X107711787Y-115829525D01*
X107694933Y-115825209D01*
X107678476Y-115820595D01*
X107670416Y-115818185D01*
X107654565Y-115813190D01*
X107639074Y-115807964D01*
X107623945Y-115802506D01*
X107609176Y-115796815D01*
X107594767Y-115790894D01*
X107580719Y-115784740D01*
X107567032Y-115778354D01*
X107553706Y-115771737D01*
X107534392Y-115761376D01*
X107515890Y-115750493D01*
X107498199Y-115739089D01*
X107481320Y-115727163D01*
X107465252Y-115714716D01*
X107454986Y-115706098D01*
X107440240Y-115692795D01*
X107426280Y-115679041D01*
X107413106Y-115664837D01*
X107400718Y-115650181D01*
X107389115Y-115635075D01*
X107378298Y-115619518D01*
X107368267Y-115603511D01*
X107367966Y-115602975D01*
X107913682Y-115602975D01*
X107924261Y-115603936D01*
X107939958Y-115604864D01*
X107955448Y-115605173D01*
X107968557Y-115605173D01*
X107983638Y-115605173D01*
X107999412Y-115605173D01*
X108007027Y-115605153D01*
X108022065Y-115604989D01*
X108036846Y-115604663D01*
X108058534Y-115603868D01*
X108079642Y-115602705D01*
X108100170Y-115601176D01*
X108120119Y-115599279D01*
X108139489Y-115597016D01*
X108158278Y-115594385D01*
X108176489Y-115591387D01*
X108194119Y-115588022D01*
X108211170Y-115584290D01*
X108216728Y-115582947D01*
X108233049Y-115578738D01*
X108248842Y-115574257D01*
X108264107Y-115569507D01*
X108278844Y-115564486D01*
X108293053Y-115559194D01*
X108311176Y-115551718D01*
X108328361Y-115543761D01*
X108344607Y-115535323D01*
X108359914Y-115526405D01*
X108367213Y-115521775D01*
X108381089Y-115512215D01*
X108394003Y-115502255D01*
X108405956Y-115491893D01*
X108416947Y-115481131D01*
X108426976Y-115469969D01*
X108438160Y-115455452D01*
X108447841Y-115440309D01*
X108451302Y-115434094D01*
X108458976Y-115418267D01*
X108465255Y-115402030D01*
X108470139Y-115385381D01*
X108473627Y-115368320D01*
X108475720Y-115350848D01*
X108476418Y-115332964D01*
X108476373Y-115327970D01*
X108475697Y-115313232D01*
X108473533Y-115294153D01*
X108469926Y-115275726D01*
X108464877Y-115257951D01*
X108458386Y-115240829D01*
X108450452Y-115224360D01*
X108441075Y-115208544D01*
X108430256Y-115193380D01*
X108418029Y-115178908D01*
X108404244Y-115165169D01*
X108392884Y-115155346D01*
X108380648Y-115145935D01*
X108367536Y-115136937D01*
X108353548Y-115128350D01*
X108338685Y-115120175D01*
X108322946Y-115112413D01*
X108306330Y-115105063D01*
X108288839Y-115098125D01*
X107913682Y-115602975D01*
X107367966Y-115602975D01*
X107359021Y-115587052D01*
X107350561Y-115570143D01*
X107342887Y-115552783D01*
X107338184Y-115540991D01*
X107331699Y-115523044D01*
X107325897Y-115504789D01*
X107320777Y-115486225D01*
X107316340Y-115467351D01*
X107312585Y-115448169D01*
X107309513Y-115428677D01*
X107307124Y-115408876D01*
X107305417Y-115388766D01*
X107304394Y-115368347D01*
X107304052Y-115347619D01*
X107304220Y-115332964D01*
X107515078Y-115332964D01*
X107515799Y-115352530D01*
X107517963Y-115371478D01*
X107521570Y-115389808D01*
X107526618Y-115407519D01*
X107533110Y-115424613D01*
X107541044Y-115441088D01*
X107550421Y-115456944D01*
X107561240Y-115472183D01*
X107573547Y-115486694D01*
X107587389Y-115500370D01*
X107598777Y-115510078D01*
X107611028Y-115519316D01*
X107624142Y-115528084D01*
X107638119Y-115536382D01*
X107652959Y-115544210D01*
X107668662Y-115551568D01*
X107685228Y-115558455D01*
X107702657Y-115564873D01*
X108054366Y-115063320D01*
X108040078Y-115063045D01*
X108025057Y-115062221D01*
X108010128Y-115061397D01*
X107995382Y-115061122D01*
X107987765Y-115061142D01*
X107972718Y-115061302D01*
X107957920Y-115061623D01*
X107936191Y-115062404D01*
X107915021Y-115063546D01*
X107894412Y-115065049D01*
X107874364Y-115066912D01*
X107854875Y-115069136D01*
X107835947Y-115071721D01*
X107817579Y-115074666D01*
X107799771Y-115077972D01*
X107782524Y-115081638D01*
X107771334Y-115084266D01*
X107755005Y-115088443D01*
X107739224Y-115092904D01*
X107723990Y-115097648D01*
X107709304Y-115102676D01*
X107695165Y-115107987D01*
X107681573Y-115113581D01*
X107664303Y-115121481D01*
X107648005Y-115129884D01*
X107632681Y-115138791D01*
X107621882Y-115145780D01*
X107608295Y-115155468D01*
X107595636Y-115165581D01*
X107583903Y-115176116D01*
X107573098Y-115187076D01*
X107563221Y-115198459D01*
X107554271Y-115210266D01*
X107544387Y-115225620D01*
X107540838Y-115231878D01*
X107532967Y-115247786D01*
X107526527Y-115264071D01*
X107521518Y-115280731D01*
X107517940Y-115297766D01*
X107515794Y-115315177D01*
X107515078Y-115332964D01*
X107304220Y-115332964D01*
X107304235Y-115331613D01*
X107304785Y-115315837D01*
X107305701Y-115300289D01*
X107306983Y-115284971D01*
X107308632Y-115269881D01*
X107310647Y-115255020D01*
X107313028Y-115240389D01*
X107317287Y-115218870D01*
X107322370Y-115197867D01*
X107328278Y-115177380D01*
X107335010Y-115157407D01*
X107342566Y-115137950D01*
X107350947Y-115119008D01*
X107357019Y-115106624D01*
X107366744Y-115088495D01*
X107377211Y-115070899D01*
X107388417Y-115053839D01*
X107400364Y-115037313D01*
X107413052Y-115021321D01*
X107426481Y-115005864D01*
X107440650Y-114990941D01*
X107455560Y-114976553D01*
X107471210Y-114962700D01*
X107487601Y-114949381D01*
X107498977Y-114940811D01*
X107516625Y-114928451D01*
X107534976Y-114916683D01*
X107547600Y-114909167D01*
X107560536Y-114901914D01*
X107573784Y-114894924D01*
X107587343Y-114888198D01*
X107601215Y-114881735D01*
X107615399Y-114875536D01*
X107629895Y-114869599D01*
X107644702Y-114863926D01*
X107659822Y-114858517D01*
X107675254Y-114853371D01*
X107690997Y-114848488D01*
X107707053Y-114843868D01*
X107723446Y-114839476D01*
X107740112Y-114835367D01*
X107757049Y-114831542D01*
X107774258Y-114828000D01*
X107791739Y-114824741D01*
X107809492Y-114821766D01*
X107827517Y-114819074D01*
X107845813Y-114816665D01*
X107864382Y-114814540D01*
X107883223Y-114812698D01*
X107902335Y-114811140D01*
X107921719Y-114809865D01*
X107941376Y-114808873D01*
X107961304Y-114808165D01*
X107981504Y-114807740D01*
X108001976Y-114807598D01*
X108024532Y-114807747D01*
G37*
G36*
X107772998Y-113346904D02*
G01*
X108007472Y-113346904D01*
X108007472Y-112706133D01*
X107772998Y-112706133D01*
X107772998Y-113346904D01*
G37*
G36*
X107327500Y-111167036D02*
G01*
X107515444Y-111167036D01*
X107827953Y-110848666D01*
X107838986Y-110837586D01*
X107849826Y-110826787D01*
X107860475Y-110816268D01*
X107876089Y-110801016D01*
X107891271Y-110786395D01*
X107906022Y-110772405D01*
X107920341Y-110759047D01*
X107934229Y-110746319D01*
X107947686Y-110734223D01*
X107960710Y-110722757D01*
X107973304Y-110711923D01*
X107981460Y-110705051D01*
X107993427Y-110695103D01*
X108005150Y-110685593D01*
X108020400Y-110673595D01*
X108035215Y-110662375D01*
X108049595Y-110651934D01*
X108063540Y-110642271D01*
X108077049Y-110633387D01*
X108090124Y-110625281D01*
X108096498Y-110621520D01*
X108112215Y-110612853D01*
X108127539Y-110605169D01*
X108142469Y-110598470D01*
X108157005Y-110592754D01*
X108171148Y-110588023D01*
X108187600Y-110583644D01*
X108190287Y-110583052D01*
X108206478Y-110579814D01*
X108222900Y-110577247D01*
X108239553Y-110575349D01*
X108256439Y-110574121D01*
X108273557Y-110573563D01*
X108279314Y-110573526D01*
X108294543Y-110574122D01*
X108309457Y-110575910D01*
X108324056Y-110578891D01*
X108338339Y-110583063D01*
X108346359Y-110585982D01*
X108360025Y-110591976D01*
X108374571Y-110600156D01*
X108387972Y-110609756D01*
X108400228Y-110620775D01*
X108401680Y-110622253D01*
X108412808Y-110634778D01*
X108421568Y-110647052D01*
X108429417Y-110660553D01*
X108436355Y-110675282D01*
X108439049Y-110681970D01*
X108444473Y-110698169D01*
X108448063Y-110712835D01*
X108450673Y-110728222D01*
X108452304Y-110744331D01*
X108452957Y-110761160D01*
X108452971Y-110764036D01*
X108452690Y-110778842D01*
X108451445Y-110798274D01*
X108449204Y-110817350D01*
X108445967Y-110836072D01*
X108441734Y-110854439D01*
X108436505Y-110872451D01*
X108430279Y-110890108D01*
X108423058Y-110907410D01*
X108421097Y-110911680D01*
X108412791Y-110928516D01*
X108403809Y-110945134D01*
X108394152Y-110961534D01*
X108383819Y-110977717D01*
X108372811Y-110993683D01*
X108364112Y-111005514D01*
X108355032Y-111017223D01*
X108345573Y-111028810D01*
X108335734Y-111040274D01*
X108507559Y-111173264D01*
X108517644Y-111162233D01*
X108527474Y-111151031D01*
X108537050Y-111139656D01*
X108546371Y-111128110D01*
X108555437Y-111116392D01*
X108564248Y-111104502D01*
X108572805Y-111092441D01*
X108581106Y-111080208D01*
X108589154Y-111067803D01*
X108596946Y-111055226D01*
X108604484Y-111042478D01*
X108611767Y-111029558D01*
X108618795Y-111016466D01*
X108625568Y-111003203D01*
X108632087Y-110989767D01*
X108638351Y-110976160D01*
X108644296Y-110962352D01*
X108649857Y-110948403D01*
X108655035Y-110934313D01*
X108659829Y-110920084D01*
X108664240Y-110905714D01*
X108668267Y-110891204D01*
X108671910Y-110876554D01*
X108675170Y-110861763D01*
X108678047Y-110846832D01*
X108680540Y-110831761D01*
X108682649Y-110816550D01*
X108684375Y-110801199D01*
X108685718Y-110785707D01*
X108686677Y-110770075D01*
X108687252Y-110754303D01*
X108687444Y-110738390D01*
X108687221Y-110720007D01*
X108686555Y-110701952D01*
X108685444Y-110684226D01*
X108683889Y-110666829D01*
X108681889Y-110649760D01*
X108679445Y-110633019D01*
X108676557Y-110616606D01*
X108673224Y-110600523D01*
X108669447Y-110584767D01*
X108665226Y-110569340D01*
X108662165Y-110559238D01*
X108657281Y-110544397D01*
X108651972Y-110529962D01*
X108646238Y-110515932D01*
X108640080Y-110502308D01*
X108633496Y-110489090D01*
X108624056Y-110472097D01*
X108613861Y-110455825D01*
X108602910Y-110440275D01*
X108591204Y-110425446D01*
X108588159Y-110421851D01*
X108575502Y-110407964D01*
X108562078Y-110394878D01*
X108547888Y-110382593D01*
X108532930Y-110371110D01*
X108517205Y-110360428D01*
X108500712Y-110350548D01*
X108483453Y-110341469D01*
X108470005Y-110335185D01*
X108465427Y-110333191D01*
X108451420Y-110327560D01*
X108437014Y-110322484D01*
X108422208Y-110317961D01*
X108407003Y-110313991D01*
X108391399Y-110310576D01*
X108375396Y-110307714D01*
X108358993Y-110305407D01*
X108342191Y-110303653D01*
X108324990Y-110302453D01*
X108307389Y-110301807D01*
X108295434Y-110301684D01*
X108280552Y-110301874D01*
X108265857Y-110302444D01*
X108246554Y-110303795D01*
X108227584Y-110305821D01*
X108208945Y-110308523D01*
X108190638Y-110311900D01*
X108172663Y-110315953D01*
X108155021Y-110320682D01*
X108146324Y-110323299D01*
X108129156Y-110329012D01*
X108112091Y-110335344D01*
X108095130Y-110342293D01*
X108078271Y-110349861D01*
X108061516Y-110358047D01*
X108044864Y-110366851D01*
X108028314Y-110376273D01*
X108011868Y-110386314D01*
X107995559Y-110396876D01*
X107983320Y-110405195D01*
X107971074Y-110413856D01*
X107958822Y-110422858D01*
X107946564Y-110432201D01*
X107934299Y-110441886D01*
X107922027Y-110451912D01*
X107909749Y-110462279D01*
X107897465Y-110472988D01*
X107885174Y-110484038D01*
X107881076Y-110487797D01*
X107868719Y-110499214D01*
X107856239Y-110510934D01*
X107843637Y-110522956D01*
X107830913Y-110535281D01*
X107818066Y-110547909D01*
X107805097Y-110560839D01*
X107792005Y-110574072D01*
X107778792Y-110587608D01*
X107765455Y-110601447D01*
X107751997Y-110615588D01*
X107742957Y-110625183D01*
X107561973Y-110820822D01*
X107561973Y-110252957D01*
X107327500Y-110252957D01*
X107327500Y-111167036D01*
G37*
G36*
X108024532Y-109041173D02*
G01*
X108046678Y-109041620D01*
X108068415Y-109042364D01*
X108089743Y-109043406D01*
X108110662Y-109044745D01*
X108131171Y-109046382D01*
X108151271Y-109048317D01*
X108170962Y-109050550D01*
X108190243Y-109053080D01*
X108209115Y-109055908D01*
X108227578Y-109059033D01*
X108245631Y-109062457D01*
X108263275Y-109066178D01*
X108280510Y-109070196D01*
X108297336Y-109074512D01*
X108313752Y-109079126D01*
X108321835Y-109081537D01*
X108337723Y-109086531D01*
X108353242Y-109091758D01*
X108368392Y-109097216D01*
X108383172Y-109102906D01*
X108397583Y-109108828D01*
X108411625Y-109114982D01*
X108425298Y-109121367D01*
X108438602Y-109127985D01*
X108457865Y-109138346D01*
X108476297Y-109149228D01*
X108493899Y-109160632D01*
X108510670Y-109172558D01*
X108526610Y-109185005D01*
X108536832Y-109193535D01*
X108551516Y-109206715D01*
X108565421Y-109220360D01*
X108578547Y-109234468D01*
X108590894Y-109249039D01*
X108602461Y-109264074D01*
X108613249Y-109279573D01*
X108623258Y-109295536D01*
X108632488Y-109311962D01*
X108640938Y-109328852D01*
X108648609Y-109346206D01*
X108653312Y-109357997D01*
X108659797Y-109375935D01*
X108665599Y-109394177D01*
X108670719Y-109412721D01*
X108675156Y-109431567D01*
X108678911Y-109450717D01*
X108681983Y-109470169D01*
X108684372Y-109489923D01*
X108686078Y-109509981D01*
X108687102Y-109530341D01*
X108687444Y-109551003D01*
X108687259Y-109566882D01*
X108686705Y-109582551D01*
X108685782Y-109598011D01*
X108684490Y-109613262D01*
X108682828Y-109628305D01*
X108680798Y-109643138D01*
X108678398Y-109657763D01*
X108674105Y-109679308D01*
X108668982Y-109700383D01*
X108663029Y-109720987D01*
X108656244Y-109741122D01*
X108648629Y-109760787D01*
X108640183Y-109779981D01*
X108634153Y-109792452D01*
X108624482Y-109810696D01*
X108614056Y-109828387D01*
X108602878Y-109845524D01*
X108590945Y-109862107D01*
X108578260Y-109878136D01*
X108564820Y-109893611D01*
X108550628Y-109908533D01*
X108535682Y-109922900D01*
X108519982Y-109936714D01*
X108503529Y-109949974D01*
X108497902Y-109954247D01*
X108480545Y-109966689D01*
X108462473Y-109978565D01*
X108443687Y-109989873D01*
X108430765Y-109997098D01*
X108417526Y-110004070D01*
X108403969Y-110010791D01*
X108390095Y-110017259D01*
X108375902Y-110023476D01*
X108361392Y-110029441D01*
X108346565Y-110035154D01*
X108331419Y-110040615D01*
X108315956Y-110045824D01*
X108300175Y-110050782D01*
X108284077Y-110055487D01*
X108267728Y-110059923D01*
X108251104Y-110064074D01*
X108234205Y-110067938D01*
X108217032Y-110071515D01*
X108199584Y-110074807D01*
X108181861Y-110077812D01*
X108163863Y-110080531D01*
X108145591Y-110082964D01*
X108127044Y-110085111D01*
X108108222Y-110086971D01*
X108089125Y-110088546D01*
X108069754Y-110089834D01*
X108050107Y-110090835D01*
X108030186Y-110091551D01*
X108009990Y-110091980D01*
X107989520Y-110092123D01*
X107967096Y-110091975D01*
X107945069Y-110091528D01*
X107923441Y-110090784D01*
X107902211Y-110089742D01*
X107881378Y-110088403D01*
X107860943Y-110086765D01*
X107840906Y-110084830D01*
X107821267Y-110082598D01*
X107802026Y-110080068D01*
X107783182Y-110077240D01*
X107764737Y-110074114D01*
X107746689Y-110070691D01*
X107729039Y-110066970D01*
X107711787Y-110062952D01*
X107694933Y-110058635D01*
X107678476Y-110054022D01*
X107670416Y-110051611D01*
X107654565Y-110046617D01*
X107639074Y-110041390D01*
X107623945Y-110035932D01*
X107609176Y-110030242D01*
X107594767Y-110024320D01*
X107580719Y-110018166D01*
X107567032Y-110011781D01*
X107553706Y-110005163D01*
X107534392Y-109994802D01*
X107515890Y-109983920D01*
X107498199Y-109972516D01*
X107481320Y-109960590D01*
X107465252Y-109948142D01*
X107454986Y-109939524D01*
X107440240Y-109926221D01*
X107426280Y-109912468D01*
X107413106Y-109898263D01*
X107400718Y-109883608D01*
X107389115Y-109868502D01*
X107378298Y-109852945D01*
X107368267Y-109836937D01*
X107367966Y-109836401D01*
X107913682Y-109836401D01*
X107924261Y-109837363D01*
X107939958Y-109838290D01*
X107955448Y-109838599D01*
X107968557Y-109838599D01*
X107983638Y-109838599D01*
X107999412Y-109838599D01*
X108007027Y-109838579D01*
X108022065Y-109838416D01*
X108036846Y-109838090D01*
X108058534Y-109837294D01*
X108079642Y-109836132D01*
X108100170Y-109834602D01*
X108120119Y-109832706D01*
X108139489Y-109830442D01*
X108158278Y-109827811D01*
X108176489Y-109824813D01*
X108194119Y-109821449D01*
X108211170Y-109817717D01*
X108216728Y-109816373D01*
X108233049Y-109812164D01*
X108248842Y-109807684D01*
X108264107Y-109802933D01*
X108278844Y-109797912D01*
X108293053Y-109792621D01*
X108311176Y-109785145D01*
X108328361Y-109777188D01*
X108344607Y-109768750D01*
X108359914Y-109759831D01*
X108367213Y-109755201D01*
X108381089Y-109745642D01*
X108394003Y-109735681D01*
X108405956Y-109725320D01*
X108416947Y-109714558D01*
X108426976Y-109703395D01*
X108438160Y-109688878D01*
X108447841Y-109673735D01*
X108451302Y-109667520D01*
X108458976Y-109651694D01*
X108465255Y-109635456D01*
X108470139Y-109618807D01*
X108473627Y-109601746D01*
X108475720Y-109584274D01*
X108476418Y-109566391D01*
X108476373Y-109561396D01*
X108475697Y-109546659D01*
X108473533Y-109527579D01*
X108469926Y-109509152D01*
X108464877Y-109491378D01*
X108458386Y-109474256D01*
X108450452Y-109457787D01*
X108441075Y-109441970D01*
X108430256Y-109426806D01*
X108418029Y-109412335D01*
X108404244Y-109398596D01*
X108392884Y-109388773D01*
X108380648Y-109379362D01*
X108367536Y-109370363D01*
X108353548Y-109361776D01*
X108338685Y-109353602D01*
X108322946Y-109345839D01*
X108306330Y-109338489D01*
X108288839Y-109331551D01*
X107913682Y-109836401D01*
X107367966Y-109836401D01*
X107359021Y-109820479D01*
X107350561Y-109803569D01*
X107342887Y-109786209D01*
X107338184Y-109774417D01*
X107331699Y-109756471D01*
X107325897Y-109738216D01*
X107320777Y-109719651D01*
X107316340Y-109700778D01*
X107312585Y-109681595D01*
X107309513Y-109662103D01*
X107307124Y-109642303D01*
X107305417Y-109622193D01*
X107304394Y-109601773D01*
X107304052Y-109581045D01*
X107304220Y-109566391D01*
X107515078Y-109566391D01*
X107515799Y-109585957D01*
X107517963Y-109604905D01*
X107521570Y-109623234D01*
X107526618Y-109640946D01*
X107533110Y-109658039D01*
X107541044Y-109674514D01*
X107550421Y-109690371D01*
X107561240Y-109705609D01*
X107573547Y-109720121D01*
X107587389Y-109733796D01*
X107598777Y-109743505D01*
X107611028Y-109752743D01*
X107624142Y-109761511D01*
X107638119Y-109769809D01*
X107652959Y-109777637D01*
X107668662Y-109784994D01*
X107685228Y-109791882D01*
X107702657Y-109798299D01*
X108054366Y-109296747D01*
X108040078Y-109296472D01*
X108025057Y-109295648D01*
X108010128Y-109294823D01*
X107995382Y-109294548D01*
X107987765Y-109294568D01*
X107972718Y-109294729D01*
X107957920Y-109295049D01*
X107936191Y-109295831D01*
X107915021Y-109296973D01*
X107894412Y-109298475D01*
X107874364Y-109300339D01*
X107854875Y-109302563D01*
X107835947Y-109305147D01*
X107817579Y-109308092D01*
X107799771Y-109311398D01*
X107782524Y-109315065D01*
X107771334Y-109317692D01*
X107755005Y-109321870D01*
X107739224Y-109326331D01*
X107723990Y-109331075D01*
X107709304Y-109336102D01*
X107695165Y-109341413D01*
X107681573Y-109347007D01*
X107664303Y-109354907D01*
X107648005Y-109363310D01*
X107632681Y-109372218D01*
X107621882Y-109379206D01*
X107608295Y-109388895D01*
X107595636Y-109399007D01*
X107583903Y-109409543D01*
X107573098Y-109420502D01*
X107563221Y-109431885D01*
X107554271Y-109443692D01*
X107544387Y-109459046D01*
X107540838Y-109465304D01*
X107532967Y-109481213D01*
X107526527Y-109497497D01*
X107521518Y-109514157D01*
X107517940Y-109531193D01*
X107515794Y-109548604D01*
X107515078Y-109566391D01*
X107304220Y-109566391D01*
X107304235Y-109565040D01*
X107304785Y-109549263D01*
X107305701Y-109533716D01*
X107306983Y-109518397D01*
X107308632Y-109503307D01*
X107310647Y-109488447D01*
X107313028Y-109473815D01*
X107317287Y-109452297D01*
X107322370Y-109431294D01*
X107328278Y-109410806D01*
X107335010Y-109390834D01*
X107342566Y-109371376D01*
X107350947Y-109352434D01*
X107357019Y-109340051D01*
X107366744Y-109321921D01*
X107377211Y-109304326D01*
X107388417Y-109287265D01*
X107400364Y-109270739D01*
X107413052Y-109254747D01*
X107426481Y-109239290D01*
X107440650Y-109224368D01*
X107455560Y-109209980D01*
X107471210Y-109196126D01*
X107487601Y-109182807D01*
X107498977Y-109174238D01*
X107516625Y-109161877D01*
X107534976Y-109150109D01*
X107547600Y-109142593D01*
X107560536Y-109135340D01*
X107573784Y-109128351D01*
X107587343Y-109121624D01*
X107601215Y-109115162D01*
X107615399Y-109108962D01*
X107629895Y-109103026D01*
X107644702Y-109097353D01*
X107659822Y-109091943D01*
X107675254Y-109086797D01*
X107690997Y-109081914D01*
X107707053Y-109077294D01*
X107723446Y-109072902D01*
X107740112Y-109068794D01*
X107757049Y-109064968D01*
X107774258Y-109061426D01*
X107791739Y-109058168D01*
X107809492Y-109055192D01*
X107827517Y-109052500D01*
X107845813Y-109050092D01*
X107864382Y-109047967D01*
X107883223Y-109046125D01*
X107902335Y-109044566D01*
X107921719Y-109043291D01*
X107941376Y-109042299D01*
X107961304Y-109041591D01*
X107981504Y-109041166D01*
X108001976Y-109041024D01*
X108024532Y-109041173D01*
G37*
G36*
X107327500Y-108860407D02*
G01*
X107515444Y-108860407D01*
X107827953Y-108542036D01*
X107838986Y-108530957D01*
X107849826Y-108520157D01*
X107860475Y-108509639D01*
X107876089Y-108494387D01*
X107891271Y-108479766D01*
X107906022Y-108465776D01*
X107920341Y-108452417D01*
X107934229Y-108439690D01*
X107947686Y-108427593D01*
X107960710Y-108416128D01*
X107973304Y-108405294D01*
X107981460Y-108398421D01*
X107993427Y-108388474D01*
X108005150Y-108378964D01*
X108020400Y-108366966D01*
X108035215Y-108355746D01*
X108049595Y-108345304D01*
X108063540Y-108335641D01*
X108077049Y-108326757D01*
X108090124Y-108318651D01*
X108096498Y-108314890D01*
X108112215Y-108306223D01*
X108127539Y-108298540D01*
X108142469Y-108291841D01*
X108157005Y-108286125D01*
X108171148Y-108281393D01*
X108187600Y-108277014D01*
X108190287Y-108276422D01*
X108206478Y-108273185D01*
X108222900Y-108270618D01*
X108239553Y-108268720D01*
X108256439Y-108267492D01*
X108273557Y-108266934D01*
X108279314Y-108266897D01*
X108294543Y-108267493D01*
X108309457Y-108269281D01*
X108324056Y-108272261D01*
X108338339Y-108276434D01*
X108346359Y-108279353D01*
X108360025Y-108285346D01*
X108374571Y-108293526D01*
X108387972Y-108303126D01*
X108400228Y-108314146D01*
X108401680Y-108315623D01*
X108412808Y-108328148D01*
X108421568Y-108340422D01*
X108429417Y-108353924D01*
X108436355Y-108368653D01*
X108439049Y-108375340D01*
X108444473Y-108391539D01*
X108448063Y-108406205D01*
X108450673Y-108421593D01*
X108452304Y-108437701D01*
X108452957Y-108454531D01*
X108452971Y-108457406D01*
X108452690Y-108472213D01*
X108451445Y-108491644D01*
X108449204Y-108510721D01*
X108445967Y-108529443D01*
X108441734Y-108547810D01*
X108436505Y-108565822D01*
X108430279Y-108583479D01*
X108423058Y-108600781D01*
X108421097Y-108605051D01*
X108412791Y-108621886D01*
X108403809Y-108638504D01*
X108394152Y-108654905D01*
X108383819Y-108671088D01*
X108372811Y-108687053D01*
X108364112Y-108698885D01*
X108355032Y-108710594D01*
X108345573Y-108722180D01*
X108335734Y-108733645D01*
X108507559Y-108866635D01*
X108517644Y-108855604D01*
X108527474Y-108844401D01*
X108537050Y-108833027D01*
X108546371Y-108821481D01*
X108555437Y-108809763D01*
X108564248Y-108797873D01*
X108572805Y-108785812D01*
X108581106Y-108773578D01*
X108589154Y-108761174D01*
X108596946Y-108748597D01*
X108604484Y-108735849D01*
X108611767Y-108722929D01*
X108618795Y-108709837D01*
X108625568Y-108696573D01*
X108632087Y-108683138D01*
X108638351Y-108669531D01*
X108644296Y-108655722D01*
X108649857Y-108641773D01*
X108655035Y-108627684D01*
X108659829Y-108613454D01*
X108664240Y-108599085D01*
X108668267Y-108584575D01*
X108671910Y-108569924D01*
X108675170Y-108555134D01*
X108678047Y-108540203D01*
X108680540Y-108525132D01*
X108682649Y-108509921D01*
X108684375Y-108494569D01*
X108685718Y-108479077D01*
X108686677Y-108463445D01*
X108687252Y-108447673D01*
X108687444Y-108431761D01*
X108687221Y-108413378D01*
X108686555Y-108395323D01*
X108685444Y-108377597D01*
X108683889Y-108360199D01*
X108681889Y-108343130D01*
X108679445Y-108326389D01*
X108676557Y-108309977D01*
X108673224Y-108293893D01*
X108669447Y-108278138D01*
X108665226Y-108262711D01*
X108662165Y-108252608D01*
X108657281Y-108237767D01*
X108651972Y-108223332D01*
X108646238Y-108209303D01*
X108640080Y-108195679D01*
X108633496Y-108182461D01*
X108624056Y-108165468D01*
X108613861Y-108149196D01*
X108602910Y-108133646D01*
X108591204Y-108118816D01*
X108588159Y-108115222D01*
X108575502Y-108101334D01*
X108562078Y-108088248D01*
X108547888Y-108075964D01*
X108532930Y-108064480D01*
X108517205Y-108053799D01*
X108500712Y-108043918D01*
X108483453Y-108034839D01*
X108470005Y-108028556D01*
X108465427Y-108026562D01*
X108451420Y-108020931D01*
X108437014Y-108015854D01*
X108422208Y-108011331D01*
X108407003Y-108007362D01*
X108391399Y-108003947D01*
X108375396Y-108001085D01*
X108358993Y-107998777D01*
X108342191Y-107997024D01*
X108324990Y-107995824D01*
X108307389Y-107995177D01*
X108295434Y-107995054D01*
X108280552Y-107995244D01*
X108265857Y-107995814D01*
X108246554Y-107997165D01*
X108227584Y-107999192D01*
X108208945Y-108001894D01*
X108190638Y-108005271D01*
X108172663Y-108009324D01*
X108155021Y-108014052D01*
X108146324Y-108016670D01*
X108129156Y-108022383D01*
X108112091Y-108028714D01*
X108095130Y-108035664D01*
X108078271Y-108043231D01*
X108061516Y-108051417D01*
X108044864Y-108060221D01*
X108028314Y-108069644D01*
X108011868Y-108079684D01*
X107995559Y-108090246D01*
X107983320Y-108098565D01*
X107971074Y-108107226D01*
X107958822Y-108116228D01*
X107946564Y-108125572D01*
X107934299Y-108135256D01*
X107922027Y-108145282D01*
X107909749Y-108155650D01*
X107897465Y-108166358D01*
X107885174Y-108177408D01*
X107881076Y-108181167D01*
X107868719Y-108192584D01*
X107856239Y-108204304D01*
X107843637Y-108216327D01*
X107830913Y-108228652D01*
X107818066Y-108241279D01*
X107805097Y-108254210D01*
X107792005Y-108267443D01*
X107778792Y-108280979D01*
X107765455Y-108294817D01*
X107751997Y-108308958D01*
X107742957Y-108318554D01*
X107561973Y-108514193D01*
X107561973Y-107946328D01*
X107327500Y-107946328D01*
X107327500Y-108860407D01*
G37*
G36*
X107819893Y-106928202D02*
G01*
X108663996Y-106928202D01*
X108663996Y-107274416D01*
X107813665Y-107799782D01*
X107608867Y-107799782D01*
X107608867Y-107173299D01*
X107327500Y-107173299D01*
X107327500Y-107170368D01*
X107819893Y-107170368D01*
X107819893Y-107553585D01*
X108424760Y-107170368D01*
X107819893Y-107170368D01*
X107327500Y-107170368D01*
X107327500Y-106928202D01*
X107608867Y-106928202D01*
X107608867Y-106724137D01*
X107819893Y-106724137D01*
X107819893Y-106928202D01*
G37*
G36*
X104807500Y-114569095D02*
G01*
X105500294Y-114569095D01*
X105521456Y-114569595D01*
X105541253Y-114571093D01*
X105559684Y-114573590D01*
X105576750Y-114577087D01*
X105592451Y-114581582D01*
X105606786Y-114587076D01*
X105625729Y-114597190D01*
X105641601Y-114609551D01*
X105654400Y-114624161D01*
X105664128Y-114641017D01*
X105670784Y-114660121D01*
X105674367Y-114681473D01*
X105675050Y-114696956D01*
X105674231Y-114712807D01*
X105671776Y-114728487D01*
X105667683Y-114743994D01*
X105661953Y-114759330D01*
X105654585Y-114774494D01*
X105645581Y-114789486D01*
X105634939Y-114804307D01*
X105622660Y-114818956D01*
X105612508Y-114829936D01*
X105601700Y-114841032D01*
X105590235Y-114852244D01*
X105578112Y-114863572D01*
X105565333Y-114875016D01*
X105551897Y-114886576D01*
X105537804Y-114898251D01*
X105523055Y-114910043D01*
X105507648Y-114921951D01*
X105491585Y-114933974D01*
X105480511Y-114942054D01*
X104807500Y-114942054D01*
X104807500Y-115193380D01*
X105862629Y-115193380D01*
X105862629Y-114976126D01*
X105706924Y-114969898D01*
X105719453Y-114959875D01*
X105731625Y-114949726D01*
X105743439Y-114939453D01*
X105754895Y-114929054D01*
X105765993Y-114918530D01*
X105776733Y-114907881D01*
X105780929Y-114903586D01*
X105791106Y-114892584D01*
X105800800Y-114881332D01*
X105810011Y-114869830D01*
X105820427Y-114855696D01*
X105830147Y-114841202D01*
X105837716Y-114828848D01*
X105846122Y-114813529D01*
X105853756Y-114797798D01*
X105860616Y-114781655D01*
X105865743Y-114767888D01*
X105870334Y-114753835D01*
X105873620Y-114742386D01*
X105877208Y-114727568D01*
X105880188Y-114712196D01*
X105882560Y-114696270D01*
X105884324Y-114679789D01*
X105885480Y-114662753D01*
X105886027Y-114645163D01*
X105886076Y-114637972D01*
X105885841Y-114623108D01*
X105884796Y-114603851D01*
X105882916Y-114585235D01*
X105880199Y-114567261D01*
X105876647Y-114549927D01*
X105872260Y-114533235D01*
X105867036Y-114517183D01*
X105860977Y-114501773D01*
X105859331Y-114498021D01*
X105852393Y-114483315D01*
X105844768Y-114469238D01*
X105836456Y-114455791D01*
X105827458Y-114442974D01*
X105817772Y-114430787D01*
X105807399Y-114419229D01*
X105796340Y-114408302D01*
X105784593Y-114398003D01*
X105772280Y-114388243D01*
X105759337Y-114379113D01*
X105745764Y-114370612D01*
X105731562Y-114362741D01*
X105716730Y-114355499D01*
X105701268Y-114348888D01*
X105685177Y-114342905D01*
X105668456Y-114337553D01*
X105651168Y-114332830D01*
X105633376Y-114328737D01*
X105615081Y-114325274D01*
X105596282Y-114322441D01*
X105576979Y-114320237D01*
X105562171Y-114318997D01*
X105547080Y-114318111D01*
X105531706Y-114317580D01*
X105516048Y-114317403D01*
X104807500Y-114317403D01*
X104807500Y-114569095D01*
G37*
G36*
X104807500Y-113301109D02*
G01*
X105538030Y-113301109D01*
X105552782Y-113301186D01*
X105569081Y-113301471D01*
X105584398Y-113301967D01*
X105600701Y-113302792D01*
X105608372Y-113303307D01*
X105624459Y-113304685D01*
X105640430Y-113307032D01*
X105655684Y-113310605D01*
X105658197Y-113311367D01*
X105671867Y-113316862D01*
X105684169Y-113325357D01*
X105688239Y-113329685D01*
X105695602Y-113342608D01*
X105698407Y-113358156D01*
X105698497Y-113361925D01*
X105695727Y-113377816D01*
X105688757Y-113391646D01*
X105679406Y-113403444D01*
X105666938Y-113415190D01*
X105654167Y-113424940D01*
X105638794Y-113434763D01*
X105624305Y-113442917D01*
X105607870Y-113451335D01*
X105594267Y-113457821D01*
X105579569Y-113464455D01*
X105563776Y-113471238D01*
X105546888Y-113478168D01*
X105528905Y-113485247D01*
X105509828Y-113492473D01*
X105503225Y-113494915D01*
X104807500Y-113494915D01*
X104807500Y-113710338D01*
X105538030Y-113710338D01*
X105552782Y-113710415D01*
X105569081Y-113710700D01*
X105584398Y-113711196D01*
X105600701Y-113712020D01*
X105608372Y-113712536D01*
X105624459Y-113713914D01*
X105640430Y-113716261D01*
X105655684Y-113719834D01*
X105658197Y-113720596D01*
X105671867Y-113726143D01*
X105684169Y-113734828D01*
X105688239Y-113739280D01*
X105695602Y-113752729D01*
X105698337Y-113767250D01*
X105698497Y-113772253D01*
X105694991Y-113787790D01*
X105687415Y-113800555D01*
X105677545Y-113811971D01*
X105664557Y-113823825D01*
X105654167Y-113831970D01*
X105642112Y-113840328D01*
X105628110Y-113848915D01*
X105612161Y-113857730D01*
X105598923Y-113864492D01*
X105584590Y-113871383D01*
X105569162Y-113878403D01*
X105552639Y-113885551D01*
X105535021Y-113892828D01*
X105516308Y-113900234D01*
X105503225Y-113905243D01*
X104807500Y-113905243D01*
X104807500Y-114122497D01*
X105862629Y-114122497D01*
X105862629Y-113936018D01*
X105708756Y-113931988D01*
X105723299Y-113924890D01*
X105737163Y-113917791D01*
X105750347Y-113910693D01*
X105765271Y-113902175D01*
X105779216Y-113893657D01*
X105790088Y-113886559D01*
X105802303Y-113877938D01*
X105815479Y-113867619D01*
X105827498Y-113857021D01*
X105838359Y-113846141D01*
X105845409Y-113838199D01*
X105855462Y-113825147D01*
X105864002Y-113811637D01*
X105871032Y-113797670D01*
X105876550Y-113783244D01*
X105880718Y-113767948D01*
X105883695Y-113751737D01*
X105885322Y-113736800D01*
X105886039Y-113721162D01*
X105886076Y-113716566D01*
X105885664Y-113700515D01*
X105884427Y-113685199D01*
X105882366Y-113670616D01*
X105878336Y-113652315D01*
X105872841Y-113635319D01*
X105865880Y-113619629D01*
X105857454Y-113605243D01*
X105847562Y-113592163D01*
X105839181Y-113583209D01*
X105826885Y-113572378D01*
X105813444Y-113562784D01*
X105798858Y-113554427D01*
X105783128Y-113547305D01*
X105766252Y-113541421D01*
X105748231Y-113536772D01*
X105729066Y-113533361D01*
X105713941Y-113531613D01*
X105708756Y-113531185D01*
X105723299Y-113523418D01*
X105737163Y-113515686D01*
X105750347Y-113507991D01*
X105762852Y-113500331D01*
X105776959Y-113491186D01*
X105790088Y-113482093D01*
X105802303Y-113472961D01*
X105813667Y-113463700D01*
X105825852Y-113452733D01*
X105836879Y-113441591D01*
X105845409Y-113431901D01*
X105854288Y-113420167D01*
X105863018Y-113406286D01*
X105870236Y-113391900D01*
X105875943Y-113377011D01*
X105876550Y-113375114D01*
X105880718Y-113359475D01*
X105883695Y-113342966D01*
X105885322Y-113327806D01*
X105886039Y-113311981D01*
X105886076Y-113307337D01*
X105885368Y-113286429D01*
X105883242Y-113266572D01*
X105879700Y-113247764D01*
X105874742Y-113230005D01*
X105868366Y-113213297D01*
X105860574Y-113197638D01*
X105851364Y-113183029D01*
X105840738Y-113169469D01*
X105828696Y-113156960D01*
X105815236Y-113145500D01*
X105805476Y-113138443D01*
X105789681Y-113128687D01*
X105772520Y-113119891D01*
X105753994Y-113112055D01*
X105734103Y-113105178D01*
X105712847Y-113099261D01*
X105697918Y-113095849D01*
X105682382Y-113092864D01*
X105666239Y-113090305D01*
X105649489Y-113088173D01*
X105632133Y-113086467D01*
X105614169Y-113085187D01*
X105595599Y-113084334D01*
X105576422Y-113083908D01*
X105566606Y-113083855D01*
X104807500Y-113083855D01*
X104807500Y-113301109D01*
G37*
G36*
X105862629Y-112637257D02*
G01*
X105170566Y-112637257D01*
X105154722Y-112636976D01*
X105139612Y-112636136D01*
X105120606Y-112634144D01*
X105102906Y-112631156D01*
X105086512Y-112627172D01*
X105071422Y-112622191D01*
X105057638Y-112616215D01*
X105042242Y-112607344D01*
X105039408Y-112605383D01*
X105026637Y-112594608D01*
X105016031Y-112582206D01*
X105007589Y-112568176D01*
X105001312Y-112552518D01*
X104997199Y-112535232D01*
X104995468Y-112520231D01*
X104995078Y-112508296D01*
X104995902Y-112492703D01*
X104998375Y-112477247D01*
X105002497Y-112461928D01*
X105008267Y-112446747D01*
X105015686Y-112431703D01*
X105024754Y-112416797D01*
X105035470Y-112402028D01*
X105047834Y-112387396D01*
X105058055Y-112376416D01*
X105068932Y-112365320D01*
X105080466Y-112354108D01*
X105092657Y-112342780D01*
X105105505Y-112331336D01*
X105119009Y-112319776D01*
X105133171Y-112308100D01*
X105147989Y-112296309D01*
X105163465Y-112284401D01*
X105179597Y-112272378D01*
X105190717Y-112264298D01*
X105862629Y-112264298D01*
X105862629Y-112012972D01*
X104807500Y-112012972D01*
X104807500Y-112230226D01*
X104963204Y-112236454D01*
X104950780Y-112246785D01*
X104938697Y-112257169D01*
X104926952Y-112267608D01*
X104915548Y-112278099D01*
X104904484Y-112288645D01*
X104893760Y-112299244D01*
X104889565Y-112303499D01*
X104879494Y-112314280D01*
X104868022Y-112327572D01*
X104857220Y-112341251D01*
X104847088Y-112355316D01*
X104837625Y-112369767D01*
X104833145Y-112377138D01*
X104824850Y-112392233D01*
X104817277Y-112407844D01*
X104810425Y-112423970D01*
X104805266Y-112437801D01*
X104800607Y-112451991D01*
X104797241Y-112463600D01*
X104793442Y-112478496D01*
X104790286Y-112493875D01*
X104787775Y-112509737D01*
X104785907Y-112526082D01*
X104784683Y-112542910D01*
X104784104Y-112560221D01*
X104784052Y-112567281D01*
X104784284Y-112582216D01*
X104785314Y-112601579D01*
X104787169Y-112620313D01*
X104789848Y-112638416D01*
X104793352Y-112655890D01*
X104797679Y-112672734D01*
X104802831Y-112688949D01*
X104808808Y-112704533D01*
X104810430Y-112708331D01*
X104817460Y-112723043D01*
X104825177Y-112737137D01*
X104833580Y-112750612D01*
X104842670Y-112763469D01*
X104852448Y-112775708D01*
X104862912Y-112787329D01*
X104874063Y-112798331D01*
X104885901Y-112808715D01*
X104898381Y-112818389D01*
X104911455Y-112827445D01*
X104925125Y-112835883D01*
X104939391Y-112843703D01*
X104954251Y-112850904D01*
X104969707Y-112857487D01*
X104985759Y-112863452D01*
X105002405Y-112868799D01*
X105019693Y-112873521D01*
X105037485Y-112877614D01*
X105055780Y-112881078D01*
X105074579Y-112883911D01*
X105093882Y-112886115D01*
X105108690Y-112887355D01*
X105123781Y-112888240D01*
X105139155Y-112888772D01*
X105154813Y-112888949D01*
X105862629Y-112888949D01*
X105862629Y-112637257D01*
G37*
G36*
X105464024Y-111059692D02*
G01*
X105481244Y-111059256D01*
X105497641Y-111059320D01*
X105513215Y-111059885D01*
X105527966Y-111060951D01*
X105544581Y-111062892D01*
X105560012Y-111065554D01*
X105574360Y-111068761D01*
X105589863Y-111073317D01*
X105604033Y-111078749D01*
X105618596Y-111086030D01*
X105625225Y-111090100D01*
X105637337Y-111099030D01*
X105648830Y-111110281D01*
X105658061Y-111122807D01*
X105662960Y-111131866D01*
X105668804Y-111146282D01*
X105672736Y-111161915D01*
X105674625Y-111176833D01*
X105675050Y-111188652D01*
X105673852Y-111206038D01*
X105670256Y-111223621D01*
X105665653Y-111237829D01*
X105659517Y-111252163D01*
X105651846Y-111266623D01*
X105642641Y-111281209D01*
X105631902Y-111295921D01*
X105625957Y-111303324D01*
X105616192Y-111314556D01*
X105605306Y-111325993D01*
X105593300Y-111337637D01*
X105580173Y-111349486D01*
X105565926Y-111361542D01*
X105550558Y-111373804D01*
X105534069Y-111386271D01*
X105516460Y-111398945D01*
X105504098Y-111407509D01*
X105491238Y-111416164D01*
X105477880Y-111424911D01*
X105464024Y-111433750D01*
X104807500Y-111433750D01*
X104807500Y-111691304D01*
X105862629Y-111691304D01*
X105862629Y-111463425D01*
X105698497Y-111454266D01*
X105711678Y-111446091D01*
X105724429Y-111437594D01*
X105736751Y-111428775D01*
X105748644Y-111419633D01*
X105760107Y-111410170D01*
X105771141Y-111400385D01*
X105775434Y-111396381D01*
X105785963Y-111386021D01*
X105796028Y-111375322D01*
X105807491Y-111362034D01*
X105818284Y-111348257D01*
X105828408Y-111333990D01*
X105834785Y-111324207D01*
X105842284Y-111311522D01*
X105849211Y-111298426D01*
X105855565Y-111284918D01*
X105861346Y-111270998D01*
X105866556Y-111256668D01*
X105871192Y-111241925D01*
X105872887Y-111235913D01*
X105876686Y-111220568D01*
X105879842Y-111204758D01*
X105882354Y-111188483D01*
X105884221Y-111171742D01*
X105885445Y-111154537D01*
X105886024Y-111136866D01*
X105886076Y-111129668D01*
X105885841Y-111114988D01*
X105884796Y-111095905D01*
X105882916Y-111077384D01*
X105880199Y-111059423D01*
X105876647Y-111042024D01*
X105872260Y-111025185D01*
X105867036Y-111008908D01*
X105860977Y-110993192D01*
X105859331Y-110989350D01*
X105852239Y-110974272D01*
X105844333Y-110959812D01*
X105835615Y-110945970D01*
X105826084Y-110932747D01*
X105815740Y-110920142D01*
X105804583Y-110908155D01*
X105792613Y-110896786D01*
X105779830Y-110886035D01*
X105766223Y-110875932D01*
X105751781Y-110866504D01*
X105736502Y-110857751D01*
X105720388Y-110849674D01*
X105703438Y-110842272D01*
X105685652Y-110835546D01*
X105667030Y-110829495D01*
X105652515Y-110825400D01*
X105647573Y-110824120D01*
X105632513Y-110820548D01*
X105617009Y-110817388D01*
X105601060Y-110814640D01*
X105584667Y-110812305D01*
X105567830Y-110810381D01*
X105550548Y-110808870D01*
X105532822Y-110807771D01*
X105514651Y-110807084D01*
X105496036Y-110806809D01*
X105476977Y-110806946D01*
X105464024Y-110807267D01*
X105464024Y-111059692D01*
G37*
M02*
