%TF.GenerationSoftware,KiCad,Pcbnew,7.0.10*%
%TF.CreationDate,2024-10-31T00:10:23+11:00*%
%TF.ProjectId,ESP32-TestPatternGenerator,45535033-322d-4546-9573-745061747465,rev?*%
%TF.SameCoordinates,Original*%
%TF.FileFunction,Soldermask,Top*%
%TF.FilePolarity,Negative*%
%FSLAX46Y46*%
G04 Gerber Fmt 4.6, Leading zero omitted, Abs format (unit mm)*
G04 Created by KiCad (PCBNEW 7.0.10) date 2024-10-31 00:10:23*
%MOMM*%
%LPD*%
G01*
G04 APERTURE LIST*
%ADD10O,4.104000X2.154000*%
%ADD11O,1.904000X5.024000*%
%ADD12C,2.200000*%
%ADD13C,2.000000*%
%ADD14C,1.524000*%
G04 APERTURE END LIST*
D10*
%TO.C,Composite Out*%
X99060000Y-76780000D03*
D11*
X99060000Y-81860000D03*
%TD*%
D12*
%TO.C,REF\u002A\u002A*%
X88900000Y-73660000D03*
%TD*%
D13*
%TO.C,PAL/NTSC*%
X116840000Y-81280000D03*
X116840000Y-74780000D03*
X121340000Y-81280000D03*
X121340000Y-74780000D03*
%TD*%
D12*
%TO.C,REF\u002A\u002A*%
X88900000Y-137160000D03*
%TD*%
%TO.C,REF\u002A\u002A*%
X127000000Y-73660000D03*
%TD*%
%TO.C,REF\u002A\u002A*%
X127000000Y-137160000D03*
%TD*%
D14*
%TO.C,LOLIN D32*%
X119380000Y-132080000D03*
X119380000Y-129540000D03*
X119380000Y-127000000D03*
X119380000Y-124460000D03*
X119380000Y-121920000D03*
X119380000Y-119380000D03*
X119380000Y-116840000D03*
X119380000Y-114300000D03*
X119380000Y-111760000D03*
X119380000Y-109220000D03*
X119380000Y-106680000D03*
X119380000Y-104140000D03*
X119380000Y-101600000D03*
X119380000Y-99060000D03*
X119380000Y-96520000D03*
X119380000Y-93980000D03*
X96520000Y-132080000D03*
X96520000Y-129540000D03*
X96520000Y-127000000D03*
X96520000Y-124460000D03*
X96520000Y-121920000D03*
X96520000Y-119380000D03*
X96520000Y-116840000D03*
X96520000Y-114300000D03*
X96520000Y-111760000D03*
X96520000Y-109220000D03*
X96520000Y-106680000D03*
X96520000Y-104140000D03*
X96520000Y-101600000D03*
X96520000Y-99060000D03*
X96520000Y-96520000D03*
X96520000Y-93980000D03*
%TD*%
D13*
%TO.C,Pattern*%
X106970000Y-81280000D03*
X106970000Y-74780000D03*
X111470000Y-81280000D03*
X111470000Y-74780000D03*
%TD*%
M02*
