%TF.GenerationSoftware,KiCad,Pcbnew,7.0.10*%
%TF.CreationDate,2024-10-16T21:33:48+11:00*%
%TF.ProjectId,ESP32-TestPatternGenerator,45535033-322d-4546-9573-745061747465,rev?*%
%TF.SameCoordinates,Original*%
%TF.FileFunction,Legend,Top*%
%TF.FilePolarity,Positive*%
%FSLAX46Y46*%
G04 Gerber Fmt 4.6, Leading zero omitted, Abs format (unit mm)*
G04 Created by KiCad (PCBNEW 7.0.10) date 2024-10-16 21:33:48*
%MOMM*%
%LPD*%
G01*
G04 APERTURE LIST*
%ADD10C,0.150000*%
%ADD11C,0.100000*%
%ADD12C,0.127000*%
%ADD13C,0.200000*%
%ADD14C,0.120000*%
G04 APERTURE END LIST*
D10*
X92784580Y-82819286D02*
X92832200Y-82866905D01*
X92832200Y-82866905D02*
X92879819Y-83009762D01*
X92879819Y-83009762D02*
X92879819Y-83105000D01*
X92879819Y-83105000D02*
X92832200Y-83247857D01*
X92832200Y-83247857D02*
X92736961Y-83343095D01*
X92736961Y-83343095D02*
X92641723Y-83390714D01*
X92641723Y-83390714D02*
X92451247Y-83438333D01*
X92451247Y-83438333D02*
X92308390Y-83438333D01*
X92308390Y-83438333D02*
X92117914Y-83390714D01*
X92117914Y-83390714D02*
X92022676Y-83343095D01*
X92022676Y-83343095D02*
X91927438Y-83247857D01*
X91927438Y-83247857D02*
X91879819Y-83105000D01*
X91879819Y-83105000D02*
X91879819Y-83009762D01*
X91879819Y-83009762D02*
X91927438Y-82866905D01*
X91927438Y-82866905D02*
X91975057Y-82819286D01*
X92879819Y-82247857D02*
X92832200Y-82343095D01*
X92832200Y-82343095D02*
X92784580Y-82390714D01*
X92784580Y-82390714D02*
X92689342Y-82438333D01*
X92689342Y-82438333D02*
X92403628Y-82438333D01*
X92403628Y-82438333D02*
X92308390Y-82390714D01*
X92308390Y-82390714D02*
X92260771Y-82343095D01*
X92260771Y-82343095D02*
X92213152Y-82247857D01*
X92213152Y-82247857D02*
X92213152Y-82105000D01*
X92213152Y-82105000D02*
X92260771Y-82009762D01*
X92260771Y-82009762D02*
X92308390Y-81962143D01*
X92308390Y-81962143D02*
X92403628Y-81914524D01*
X92403628Y-81914524D02*
X92689342Y-81914524D01*
X92689342Y-81914524D02*
X92784580Y-81962143D01*
X92784580Y-81962143D02*
X92832200Y-82009762D01*
X92832200Y-82009762D02*
X92879819Y-82105000D01*
X92879819Y-82105000D02*
X92879819Y-82247857D01*
X92879819Y-81485952D02*
X92213152Y-81485952D01*
X92308390Y-81485952D02*
X92260771Y-81438333D01*
X92260771Y-81438333D02*
X92213152Y-81343095D01*
X92213152Y-81343095D02*
X92213152Y-81200238D01*
X92213152Y-81200238D02*
X92260771Y-81105000D01*
X92260771Y-81105000D02*
X92356009Y-81057381D01*
X92356009Y-81057381D02*
X92879819Y-81057381D01*
X92356009Y-81057381D02*
X92260771Y-81009762D01*
X92260771Y-81009762D02*
X92213152Y-80914524D01*
X92213152Y-80914524D02*
X92213152Y-80771667D01*
X92213152Y-80771667D02*
X92260771Y-80676428D01*
X92260771Y-80676428D02*
X92356009Y-80628809D01*
X92356009Y-80628809D02*
X92879819Y-80628809D01*
X92213152Y-80152619D02*
X93213152Y-80152619D01*
X92260771Y-80152619D02*
X92213152Y-80057381D01*
X92213152Y-80057381D02*
X92213152Y-79866905D01*
X92213152Y-79866905D02*
X92260771Y-79771667D01*
X92260771Y-79771667D02*
X92308390Y-79724048D01*
X92308390Y-79724048D02*
X92403628Y-79676429D01*
X92403628Y-79676429D02*
X92689342Y-79676429D01*
X92689342Y-79676429D02*
X92784580Y-79724048D01*
X92784580Y-79724048D02*
X92832200Y-79771667D01*
X92832200Y-79771667D02*
X92879819Y-79866905D01*
X92879819Y-79866905D02*
X92879819Y-80057381D01*
X92879819Y-80057381D02*
X92832200Y-80152619D01*
X92879819Y-79105000D02*
X92832200Y-79200238D01*
X92832200Y-79200238D02*
X92784580Y-79247857D01*
X92784580Y-79247857D02*
X92689342Y-79295476D01*
X92689342Y-79295476D02*
X92403628Y-79295476D01*
X92403628Y-79295476D02*
X92308390Y-79247857D01*
X92308390Y-79247857D02*
X92260771Y-79200238D01*
X92260771Y-79200238D02*
X92213152Y-79105000D01*
X92213152Y-79105000D02*
X92213152Y-78962143D01*
X92213152Y-78962143D02*
X92260771Y-78866905D01*
X92260771Y-78866905D02*
X92308390Y-78819286D01*
X92308390Y-78819286D02*
X92403628Y-78771667D01*
X92403628Y-78771667D02*
X92689342Y-78771667D01*
X92689342Y-78771667D02*
X92784580Y-78819286D01*
X92784580Y-78819286D02*
X92832200Y-78866905D01*
X92832200Y-78866905D02*
X92879819Y-78962143D01*
X92879819Y-78962143D02*
X92879819Y-79105000D01*
X92832200Y-78390714D02*
X92879819Y-78295476D01*
X92879819Y-78295476D02*
X92879819Y-78105000D01*
X92879819Y-78105000D02*
X92832200Y-78009762D01*
X92832200Y-78009762D02*
X92736961Y-77962143D01*
X92736961Y-77962143D02*
X92689342Y-77962143D01*
X92689342Y-77962143D02*
X92594104Y-78009762D01*
X92594104Y-78009762D02*
X92546485Y-78105000D01*
X92546485Y-78105000D02*
X92546485Y-78247857D01*
X92546485Y-78247857D02*
X92498866Y-78343095D01*
X92498866Y-78343095D02*
X92403628Y-78390714D01*
X92403628Y-78390714D02*
X92356009Y-78390714D01*
X92356009Y-78390714D02*
X92260771Y-78343095D01*
X92260771Y-78343095D02*
X92213152Y-78247857D01*
X92213152Y-78247857D02*
X92213152Y-78105000D01*
X92213152Y-78105000D02*
X92260771Y-78009762D01*
X92879819Y-77533571D02*
X92213152Y-77533571D01*
X91879819Y-77533571D02*
X91927438Y-77581190D01*
X91927438Y-77581190D02*
X91975057Y-77533571D01*
X91975057Y-77533571D02*
X91927438Y-77485952D01*
X91927438Y-77485952D02*
X91879819Y-77533571D01*
X91879819Y-77533571D02*
X91975057Y-77533571D01*
X92213152Y-77200238D02*
X92213152Y-76819286D01*
X91879819Y-77057381D02*
X92736961Y-77057381D01*
X92736961Y-77057381D02*
X92832200Y-77009762D01*
X92832200Y-77009762D02*
X92879819Y-76914524D01*
X92879819Y-76914524D02*
X92879819Y-76819286D01*
X92832200Y-76105000D02*
X92879819Y-76200238D01*
X92879819Y-76200238D02*
X92879819Y-76390714D01*
X92879819Y-76390714D02*
X92832200Y-76485952D01*
X92832200Y-76485952D02*
X92736961Y-76533571D01*
X92736961Y-76533571D02*
X92356009Y-76533571D01*
X92356009Y-76533571D02*
X92260771Y-76485952D01*
X92260771Y-76485952D02*
X92213152Y-76390714D01*
X92213152Y-76390714D02*
X92213152Y-76200238D01*
X92213152Y-76200238D02*
X92260771Y-76105000D01*
X92260771Y-76105000D02*
X92356009Y-76057381D01*
X92356009Y-76057381D02*
X92451247Y-76057381D01*
X92451247Y-76057381D02*
X92546485Y-76533571D01*
X91879819Y-74676428D02*
X91879819Y-74485952D01*
X91879819Y-74485952D02*
X91927438Y-74390714D01*
X91927438Y-74390714D02*
X92022676Y-74295476D01*
X92022676Y-74295476D02*
X92213152Y-74247857D01*
X92213152Y-74247857D02*
X92546485Y-74247857D01*
X92546485Y-74247857D02*
X92736961Y-74295476D01*
X92736961Y-74295476D02*
X92832200Y-74390714D01*
X92832200Y-74390714D02*
X92879819Y-74485952D01*
X92879819Y-74485952D02*
X92879819Y-74676428D01*
X92879819Y-74676428D02*
X92832200Y-74771666D01*
X92832200Y-74771666D02*
X92736961Y-74866904D01*
X92736961Y-74866904D02*
X92546485Y-74914523D01*
X92546485Y-74914523D02*
X92213152Y-74914523D01*
X92213152Y-74914523D02*
X92022676Y-74866904D01*
X92022676Y-74866904D02*
X91927438Y-74771666D01*
X91927438Y-74771666D02*
X91879819Y-74676428D01*
X92213152Y-73390714D02*
X92879819Y-73390714D01*
X92213152Y-73819285D02*
X92736961Y-73819285D01*
X92736961Y-73819285D02*
X92832200Y-73771666D01*
X92832200Y-73771666D02*
X92879819Y-73676428D01*
X92879819Y-73676428D02*
X92879819Y-73533571D01*
X92879819Y-73533571D02*
X92832200Y-73438333D01*
X92832200Y-73438333D02*
X92784580Y-73390714D01*
X92213152Y-73057380D02*
X92213152Y-72676428D01*
X91879819Y-72914523D02*
X92736961Y-72914523D01*
X92736961Y-72914523D02*
X92832200Y-72866904D01*
X92832200Y-72866904D02*
X92879819Y-72771666D01*
X92879819Y-72771666D02*
X92879819Y-72676428D01*
D11*
X104735714Y-110472419D02*
X104259524Y-110472419D01*
X104259524Y-110472419D02*
X104259524Y-109472419D01*
X105259524Y-109472419D02*
X105450000Y-109472419D01*
X105450000Y-109472419D02*
X105545238Y-109520038D01*
X105545238Y-109520038D02*
X105640476Y-109615276D01*
X105640476Y-109615276D02*
X105688095Y-109805752D01*
X105688095Y-109805752D02*
X105688095Y-110139085D01*
X105688095Y-110139085D02*
X105640476Y-110329561D01*
X105640476Y-110329561D02*
X105545238Y-110424800D01*
X105545238Y-110424800D02*
X105450000Y-110472419D01*
X105450000Y-110472419D02*
X105259524Y-110472419D01*
X105259524Y-110472419D02*
X105164286Y-110424800D01*
X105164286Y-110424800D02*
X105069048Y-110329561D01*
X105069048Y-110329561D02*
X105021429Y-110139085D01*
X105021429Y-110139085D02*
X105021429Y-109805752D01*
X105021429Y-109805752D02*
X105069048Y-109615276D01*
X105069048Y-109615276D02*
X105164286Y-109520038D01*
X105164286Y-109520038D02*
X105259524Y-109472419D01*
X106592857Y-110472419D02*
X106116667Y-110472419D01*
X106116667Y-110472419D02*
X106116667Y-109472419D01*
X106926191Y-110472419D02*
X106926191Y-109472419D01*
X107402381Y-110472419D02*
X107402381Y-109472419D01*
X107402381Y-109472419D02*
X107973809Y-110472419D01*
X107973809Y-110472419D02*
X107973809Y-109472419D01*
X109211905Y-110472419D02*
X109211905Y-109472419D01*
X109211905Y-109472419D02*
X109450000Y-109472419D01*
X109450000Y-109472419D02*
X109592857Y-109520038D01*
X109592857Y-109520038D02*
X109688095Y-109615276D01*
X109688095Y-109615276D02*
X109735714Y-109710514D01*
X109735714Y-109710514D02*
X109783333Y-109900990D01*
X109783333Y-109900990D02*
X109783333Y-110043847D01*
X109783333Y-110043847D02*
X109735714Y-110234323D01*
X109735714Y-110234323D02*
X109688095Y-110329561D01*
X109688095Y-110329561D02*
X109592857Y-110424800D01*
X109592857Y-110424800D02*
X109450000Y-110472419D01*
X109450000Y-110472419D02*
X109211905Y-110472419D01*
X110116667Y-109472419D02*
X110735714Y-109472419D01*
X110735714Y-109472419D02*
X110402381Y-109853371D01*
X110402381Y-109853371D02*
X110545238Y-109853371D01*
X110545238Y-109853371D02*
X110640476Y-109900990D01*
X110640476Y-109900990D02*
X110688095Y-109948609D01*
X110688095Y-109948609D02*
X110735714Y-110043847D01*
X110735714Y-110043847D02*
X110735714Y-110281942D01*
X110735714Y-110281942D02*
X110688095Y-110377180D01*
X110688095Y-110377180D02*
X110640476Y-110424800D01*
X110640476Y-110424800D02*
X110545238Y-110472419D01*
X110545238Y-110472419D02*
X110259524Y-110472419D01*
X110259524Y-110472419D02*
X110164286Y-110424800D01*
X110164286Y-110424800D02*
X110116667Y-110377180D01*
X111116667Y-109567657D02*
X111164286Y-109520038D01*
X111164286Y-109520038D02*
X111259524Y-109472419D01*
X111259524Y-109472419D02*
X111497619Y-109472419D01*
X111497619Y-109472419D02*
X111592857Y-109520038D01*
X111592857Y-109520038D02*
X111640476Y-109567657D01*
X111640476Y-109567657D02*
X111688095Y-109662895D01*
X111688095Y-109662895D02*
X111688095Y-109758133D01*
X111688095Y-109758133D02*
X111640476Y-109900990D01*
X111640476Y-109900990D02*
X111069048Y-110472419D01*
X111069048Y-110472419D02*
X111688095Y-110472419D01*
D10*
X106743809Y-72844819D02*
X106743809Y-71844819D01*
X106743809Y-71844819D02*
X107124761Y-71844819D01*
X107124761Y-71844819D02*
X107219999Y-71892438D01*
X107219999Y-71892438D02*
X107267618Y-71940057D01*
X107267618Y-71940057D02*
X107315237Y-72035295D01*
X107315237Y-72035295D02*
X107315237Y-72178152D01*
X107315237Y-72178152D02*
X107267618Y-72273390D01*
X107267618Y-72273390D02*
X107219999Y-72321009D01*
X107219999Y-72321009D02*
X107124761Y-72368628D01*
X107124761Y-72368628D02*
X106743809Y-72368628D01*
X108172380Y-72844819D02*
X108172380Y-72321009D01*
X108172380Y-72321009D02*
X108124761Y-72225771D01*
X108124761Y-72225771D02*
X108029523Y-72178152D01*
X108029523Y-72178152D02*
X107839047Y-72178152D01*
X107839047Y-72178152D02*
X107743809Y-72225771D01*
X108172380Y-72797200D02*
X108077142Y-72844819D01*
X108077142Y-72844819D02*
X107839047Y-72844819D01*
X107839047Y-72844819D02*
X107743809Y-72797200D01*
X107743809Y-72797200D02*
X107696190Y-72701961D01*
X107696190Y-72701961D02*
X107696190Y-72606723D01*
X107696190Y-72606723D02*
X107743809Y-72511485D01*
X107743809Y-72511485D02*
X107839047Y-72463866D01*
X107839047Y-72463866D02*
X108077142Y-72463866D01*
X108077142Y-72463866D02*
X108172380Y-72416247D01*
X108505714Y-72178152D02*
X108886666Y-72178152D01*
X108648571Y-71844819D02*
X108648571Y-72701961D01*
X108648571Y-72701961D02*
X108696190Y-72797200D01*
X108696190Y-72797200D02*
X108791428Y-72844819D01*
X108791428Y-72844819D02*
X108886666Y-72844819D01*
X109077143Y-72178152D02*
X109458095Y-72178152D01*
X109220000Y-71844819D02*
X109220000Y-72701961D01*
X109220000Y-72701961D02*
X109267619Y-72797200D01*
X109267619Y-72797200D02*
X109362857Y-72844819D01*
X109362857Y-72844819D02*
X109458095Y-72844819D01*
X110172381Y-72797200D02*
X110077143Y-72844819D01*
X110077143Y-72844819D02*
X109886667Y-72844819D01*
X109886667Y-72844819D02*
X109791429Y-72797200D01*
X109791429Y-72797200D02*
X109743810Y-72701961D01*
X109743810Y-72701961D02*
X109743810Y-72321009D01*
X109743810Y-72321009D02*
X109791429Y-72225771D01*
X109791429Y-72225771D02*
X109886667Y-72178152D01*
X109886667Y-72178152D02*
X110077143Y-72178152D01*
X110077143Y-72178152D02*
X110172381Y-72225771D01*
X110172381Y-72225771D02*
X110220000Y-72321009D01*
X110220000Y-72321009D02*
X110220000Y-72416247D01*
X110220000Y-72416247D02*
X109743810Y-72511485D01*
X110648572Y-72844819D02*
X110648572Y-72178152D01*
X110648572Y-72368628D02*
X110696191Y-72273390D01*
X110696191Y-72273390D02*
X110743810Y-72225771D01*
X110743810Y-72225771D02*
X110839048Y-72178152D01*
X110839048Y-72178152D02*
X110934286Y-72178152D01*
X111267620Y-72178152D02*
X111267620Y-72844819D01*
X111267620Y-72273390D02*
X111315239Y-72225771D01*
X111315239Y-72225771D02*
X111410477Y-72178152D01*
X111410477Y-72178152D02*
X111553334Y-72178152D01*
X111553334Y-72178152D02*
X111648572Y-72225771D01*
X111648572Y-72225771D02*
X111696191Y-72321009D01*
X111696191Y-72321009D02*
X111696191Y-72844819D01*
X115626000Y-72844819D02*
X115626000Y-71844819D01*
X115626000Y-71844819D02*
X116006952Y-71844819D01*
X116006952Y-71844819D02*
X116102190Y-71892438D01*
X116102190Y-71892438D02*
X116149809Y-71940057D01*
X116149809Y-71940057D02*
X116197428Y-72035295D01*
X116197428Y-72035295D02*
X116197428Y-72178152D01*
X116197428Y-72178152D02*
X116149809Y-72273390D01*
X116149809Y-72273390D02*
X116102190Y-72321009D01*
X116102190Y-72321009D02*
X116006952Y-72368628D01*
X116006952Y-72368628D02*
X115626000Y-72368628D01*
X116578381Y-72559104D02*
X117054571Y-72559104D01*
X116483143Y-72844819D02*
X116816476Y-71844819D01*
X116816476Y-71844819D02*
X117149809Y-72844819D01*
X117959333Y-72844819D02*
X117483143Y-72844819D01*
X117483143Y-72844819D02*
X117483143Y-71844819D01*
X119006952Y-71797200D02*
X118149810Y-73082914D01*
X119340286Y-72844819D02*
X119340286Y-71844819D01*
X119340286Y-71844819D02*
X119911714Y-72844819D01*
X119911714Y-72844819D02*
X119911714Y-71844819D01*
X120245048Y-71844819D02*
X120816476Y-71844819D01*
X120530762Y-72844819D02*
X120530762Y-71844819D01*
X121102191Y-72797200D02*
X121245048Y-72844819D01*
X121245048Y-72844819D02*
X121483143Y-72844819D01*
X121483143Y-72844819D02*
X121578381Y-72797200D01*
X121578381Y-72797200D02*
X121626000Y-72749580D01*
X121626000Y-72749580D02*
X121673619Y-72654342D01*
X121673619Y-72654342D02*
X121673619Y-72559104D01*
X121673619Y-72559104D02*
X121626000Y-72463866D01*
X121626000Y-72463866D02*
X121578381Y-72416247D01*
X121578381Y-72416247D02*
X121483143Y-72368628D01*
X121483143Y-72368628D02*
X121292667Y-72321009D01*
X121292667Y-72321009D02*
X121197429Y-72273390D01*
X121197429Y-72273390D02*
X121149810Y-72225771D01*
X121149810Y-72225771D02*
X121102191Y-72130533D01*
X121102191Y-72130533D02*
X121102191Y-72035295D01*
X121102191Y-72035295D02*
X121149810Y-71940057D01*
X121149810Y-71940057D02*
X121197429Y-71892438D01*
X121197429Y-71892438D02*
X121292667Y-71844819D01*
X121292667Y-71844819D02*
X121530762Y-71844819D01*
X121530762Y-71844819D02*
X121673619Y-71892438D01*
X122673619Y-72749580D02*
X122626000Y-72797200D01*
X122626000Y-72797200D02*
X122483143Y-72844819D01*
X122483143Y-72844819D02*
X122387905Y-72844819D01*
X122387905Y-72844819D02*
X122245048Y-72797200D01*
X122245048Y-72797200D02*
X122149810Y-72701961D01*
X122149810Y-72701961D02*
X122102191Y-72606723D01*
X122102191Y-72606723D02*
X122054572Y-72416247D01*
X122054572Y-72416247D02*
X122054572Y-72273390D01*
X122054572Y-72273390D02*
X122102191Y-72082914D01*
X122102191Y-72082914D02*
X122149810Y-71987676D01*
X122149810Y-71987676D02*
X122245048Y-71892438D01*
X122245048Y-71892438D02*
X122387905Y-71844819D01*
X122387905Y-71844819D02*
X122483143Y-71844819D01*
X122483143Y-71844819D02*
X122626000Y-71892438D01*
X122626000Y-71892438D02*
X122673619Y-71940057D01*
D12*
%TO.C,Composite Out*%
X104060000Y-82780000D02*
X104060000Y-74800000D01*
X102060000Y-72780000D02*
X96060000Y-72780000D01*
X104060000Y-82780000D02*
X101060000Y-82780000D01*
X101060000Y-82780000D02*
X101060000Y-82380000D01*
X97060000Y-82380000D02*
X97060000Y-82780000D01*
X97060000Y-82780000D02*
X94060000Y-82780000D01*
X94060000Y-82780000D02*
X94060000Y-74800000D01*
X97890000Y-82380000D02*
X97060000Y-82380000D01*
D13*
X104673000Y-76780000D02*
G75*
G03*
X104473000Y-76780000I-100000J0D01*
G01*
X104473000Y-76780000D02*
G75*
G03*
X104673000Y-76780000I100000J0D01*
G01*
D12*
X101060000Y-82380000D02*
X100230000Y-82380000D01*
D11*
%TO.C,LOLIN D32*%
X95250000Y-87630000D02*
X120650000Y-87630000D01*
X120650000Y-87630000D02*
X120650000Y-143510000D01*
X120650000Y-143510000D02*
X95250000Y-143510000D01*
X95250000Y-143510000D02*
X95250000Y-87630000D01*
D14*
%TO.C,Pattern*%
X108470000Y-81530000D02*
X109970000Y-81530000D01*
X109970000Y-74530000D02*
X108470000Y-74530000D01*
X112470000Y-80280000D02*
X112470000Y-75780000D01*
X105970000Y-75780000D02*
X105970000Y-80280000D01*
%TO.C,PAL/NTSC*%
X118340000Y-81530000D02*
X119840000Y-81530000D01*
X119840000Y-74530000D02*
X118340000Y-74530000D01*
X122340000Y-80280000D02*
X122340000Y-75780000D01*
X115840000Y-75780000D02*
X115840000Y-80280000D01*
%TD*%
M02*
