%TF.GenerationSoftware,KiCad,Pcbnew,7.0.10*%
%TF.CreationDate,2024-10-31T00:10:23+11:00*%
%TF.ProjectId,ESP32-TestPatternGenerator,45535033-322d-4546-9573-745061747465,rev?*%
%TF.SameCoordinates,Original*%
%TF.FileFunction,Copper,L1,Top*%
%TF.FilePolarity,Positive*%
%FSLAX46Y46*%
G04 Gerber Fmt 4.6, Leading zero omitted, Abs format (unit mm)*
G04 Created by KiCad (PCBNEW 7.0.10) date 2024-10-31 00:10:23*
%MOMM*%
%LPD*%
G01*
G04 APERTURE LIST*
%TA.AperFunction,ComponentPad*%
%ADD10O,3.900000X1.950000*%
%TD*%
%TA.AperFunction,ComponentPad*%
%ADD11O,1.700000X4.820000*%
%TD*%
%TA.AperFunction,ComponentPad*%
%ADD12C,2.000000*%
%TD*%
%TA.AperFunction,ComponentPad*%
%ADD13C,1.524000*%
%TD*%
G04 APERTURE END LIST*
D10*
%TO.P,Composite Out,2,Ext*%
%TO.N,unconnected-(LOLIND32-GND-Pad17)*%
X99060000Y-76780000D03*
D11*
%TO.P,Composite Out,1,In*%
%TO.N,Net-(J1-In)*%
X99060000Y-81860000D03*
%TD*%
D12*
%TO.P,PAL/NTSC,1,1*%
%TO.N,Net-(LOLIND32-IO2)*%
X116840000Y-81280000D03*
X116840000Y-74780000D03*
%TO.P,PAL/NTSC,2,2*%
%TO.N,unconnected-(LOLIND32-GND-Pad17)*%
X121340000Y-81280000D03*
X121340000Y-74780000D03*
%TD*%
D13*
%TO.P,LOLIN D32,32,GND*%
%TO.N,Net-(J1-Ext)*%
X119380000Y-132080000D03*
%TO.P,LOLIN D32,31,IO15*%
%TO.N,Net-(LOLIND32-IO15)*%
X119380000Y-129540000D03*
%TO.P,LOLIN D32,30,IO2*%
%TO.N,Net-(LOLIND32-IO2)*%
X119380000Y-127000000D03*
%TO.P,LOLIN D32,29,IO0*%
%TO.N,unconnected-(LOLIND32-IO0-Pad29)*%
X119380000Y-124460000D03*
%TO.P,LOLIN D32,28,IO4*%
%TO.N,unconnected-(LOLIND32-IO4-Pad28)*%
X119380000Y-121920000D03*
%TO.P,LOLIN D32,27,IO16*%
%TO.N,unconnected-(LOLIND32-IO16-Pad27)*%
X119380000Y-119380000D03*
%TO.P,LOLIN D32,26,IO17*%
%TO.N,unconnected-(LOLIND32-IO17-Pad26)*%
X119380000Y-116840000D03*
%TO.P,LOLIN D32,25,IO5*%
%TO.N,unconnected-(LOLIND32-IO5-Pad25)*%
X119380000Y-114300000D03*
%TO.P,LOLIN D32,24,IO18*%
%TO.N,unconnected-(LOLIND32-IO18-Pad24)*%
X119380000Y-111760000D03*
%TO.P,LOLIN D32,23,IO19*%
%TO.N,unconnected-(LOLIND32-IO19-Pad23)*%
X119380000Y-109220000D03*
%TO.P,LOLIN D32,22,IO21*%
%TO.N,unconnected-(LOLIND32-IO21-Pad22)*%
X119380000Y-106680000D03*
%TO.P,LOLIN D32,21,RXD0*%
%TO.N,unconnected-(LOLIND32-RXD0-Pad21)*%
X119380000Y-104140000D03*
%TO.P,LOLIN D32,20,TXD0*%
%TO.N,unconnected-(LOLIND32-TXD0-Pad20)*%
X119380000Y-101600000D03*
%TO.P,LOLIN D32,19,IO22*%
%TO.N,unconnected-(LOLIND32-IO22-Pad19)*%
X119380000Y-99060000D03*
%TO.P,LOLIN D32,18,IO23*%
%TO.N,unconnected-(LOLIND32-IO23-Pad18)*%
X119380000Y-96520000D03*
%TO.P,LOLIN D32,17,GND*%
%TO.N,unconnected-(LOLIND32-GND-Pad17)*%
X119380000Y-93980000D03*
%TO.P,LOLIN D32,16,VBAT*%
%TO.N,unconnected-(LOLIND32-VBAT-Pad16)*%
X96520000Y-132080000D03*
%TO.P,LOLIN D32,15,VUSB*%
%TO.N,unconnected-(LOLIND32-VUSB-Pad15)*%
X96520000Y-129540000D03*
%TO.P,LOLIN D32,14,EN*%
%TO.N,unconnected-(LOLIND32-EN-Pad14)*%
X96520000Y-127000000D03*
%TO.P,LOLIN D32,13,IO13*%
%TO.N,unconnected-(LOLIND32-IO13-Pad13)*%
X96520000Y-124460000D03*
%TO.P,LOLIN D32,12,IO12*%
%TO.N,unconnected-(LOLIND32-IO12-Pad12)*%
X96520000Y-121920000D03*
%TO.P,LOLIN D32,11,IO14*%
%TO.N,unconnected-(LOLIND32-IO14-Pad11)*%
X96520000Y-119380000D03*
%TO.P,LOLIN D32,10,IO27*%
%TO.N,unconnected-(LOLIND32-IO27-Pad10)*%
X96520000Y-116840000D03*
%TO.P,LOLIN D32,9,IO26*%
%TO.N,unconnected-(LOLIND32-IO26-Pad9)*%
X96520000Y-114300000D03*
%TO.P,LOLIN D32,8,IO25*%
%TO.N,Net-(J1-In)*%
X96520000Y-111760000D03*
%TO.P,LOLIN D32,7,IO33*%
%TO.N,unconnected-(LOLIND32-IO33-Pad7)*%
X96520000Y-109220000D03*
%TO.P,LOLIN D32,6,IO32*%
%TO.N,unconnected-(LOLIND32-IO32-Pad6)*%
X96520000Y-106680000D03*
%TO.P,LOLIN D32,5,IO34*%
%TO.N,unconnected-(LOLIND32-IO34-Pad5)*%
X96520000Y-104140000D03*
%TO.P,LOLIN D32,4,VN*%
%TO.N,unconnected-(LOLIND32-VN-Pad4)*%
X96520000Y-101600000D03*
%TO.P,LOLIN D32,3,VP*%
%TO.N,unconnected-(LOLIND32-VP-Pad3)*%
X96520000Y-99060000D03*
%TO.P,LOLIN D32,2,RESET*%
%TO.N,unconnected-(LOLIND32-RESET-Pad2)*%
X96520000Y-96520000D03*
%TO.P,LOLIN D32,1,3V*%
%TO.N,unconnected-(LOLIND32-3V-Pad1)*%
X96520000Y-93980000D03*
%TD*%
D12*
%TO.P,Pattern,1,1*%
%TO.N,Net-(LOLIND32-IO15)*%
X106970000Y-81280000D03*
X106970000Y-74780000D03*
%TO.P,Pattern,2,2*%
%TO.N,unconnected-(LOLIND32-GND-Pad17)*%
X111470000Y-81280000D03*
X111470000Y-74780000D03*
%TD*%
%TA.AperFunction,Conductor*%
%TO.N,unconnected-(LOLIND32-GND-Pad17)*%
G36*
X128274853Y-71120882D02*
G01*
X128277530Y-71121092D01*
X128326632Y-71124957D01*
X128327244Y-71125008D01*
X128467579Y-71137285D01*
X128485698Y-71140236D01*
X128564494Y-71159153D01*
X128567476Y-71159910D01*
X128672793Y-71188130D01*
X128688150Y-71193343D01*
X128716451Y-71205065D01*
X128768496Y-71226622D01*
X128773376Y-71228770D01*
X128866788Y-71272329D01*
X128879135Y-71278963D01*
X128955163Y-71325553D01*
X128961477Y-71329694D01*
X129044166Y-71387594D01*
X129053551Y-71394860D01*
X129121975Y-71453299D01*
X129129124Y-71459908D01*
X129200090Y-71530874D01*
X129206699Y-71538023D01*
X129265135Y-71606442D01*
X129272414Y-71615844D01*
X129330299Y-71698513D01*
X129334451Y-71704845D01*
X129381028Y-71780852D01*
X129387680Y-71793231D01*
X129431208Y-71886577D01*
X129433388Y-71891531D01*
X129466655Y-71971848D01*
X129471868Y-71987205D01*
X129500067Y-72092442D01*
X129500866Y-72095589D01*
X129519760Y-72174290D01*
X129522714Y-72192430D01*
X129534967Y-72332487D01*
X129535056Y-72333562D01*
X129539117Y-72385144D01*
X129539500Y-72394876D01*
X129539500Y-138425123D01*
X129539117Y-138434855D01*
X129535056Y-138486436D01*
X129534967Y-138487511D01*
X129522714Y-138627568D01*
X129519760Y-138645708D01*
X129500866Y-138724409D01*
X129500067Y-138727556D01*
X129471868Y-138832793D01*
X129466655Y-138848150D01*
X129433388Y-138928467D01*
X129431208Y-138933421D01*
X129387680Y-139026767D01*
X129381025Y-139039153D01*
X129334451Y-139115153D01*
X129330299Y-139121485D01*
X129272414Y-139204154D01*
X129265129Y-139213563D01*
X129206699Y-139281975D01*
X129200090Y-139289124D01*
X129129124Y-139360090D01*
X129121975Y-139366699D01*
X129053563Y-139425129D01*
X129044154Y-139432414D01*
X128961485Y-139490299D01*
X128955153Y-139494451D01*
X128879153Y-139541025D01*
X128866767Y-139547680D01*
X128773421Y-139591208D01*
X128768467Y-139593388D01*
X128688150Y-139626655D01*
X128672793Y-139631868D01*
X128567556Y-139660067D01*
X128564409Y-139660866D01*
X128485708Y-139679760D01*
X128467568Y-139682714D01*
X128327511Y-139694967D01*
X128326436Y-139695056D01*
X128274855Y-139699117D01*
X128265123Y-139699500D01*
X87634877Y-139699500D01*
X87625147Y-139699118D01*
X87620829Y-139698778D01*
X87573562Y-139695057D01*
X87572487Y-139694967D01*
X87432430Y-139682714D01*
X87414290Y-139679760D01*
X87335589Y-139660866D01*
X87332442Y-139660067D01*
X87227205Y-139631868D01*
X87211848Y-139626655D01*
X87131531Y-139593388D01*
X87126577Y-139591208D01*
X87033224Y-139547676D01*
X87020852Y-139541028D01*
X86973554Y-139512044D01*
X86944845Y-139494451D01*
X86938513Y-139490299D01*
X86903624Y-139465869D01*
X86855839Y-139432410D01*
X86846442Y-139425135D01*
X86778023Y-139366699D01*
X86770874Y-139360090D01*
X86699908Y-139289124D01*
X86693299Y-139281975D01*
X86672545Y-139257675D01*
X86634860Y-139213551D01*
X86627594Y-139204166D01*
X86569694Y-139121477D01*
X86565547Y-139115153D01*
X86518963Y-139039135D01*
X86512329Y-139026788D01*
X86468770Y-138933376D01*
X86466622Y-138928496D01*
X86433343Y-138848150D01*
X86428130Y-138832793D01*
X86399910Y-138727476D01*
X86399153Y-138724494D01*
X86380236Y-138645698D01*
X86377285Y-138627579D01*
X86365008Y-138487244D01*
X86364957Y-138486632D01*
X86360882Y-138434853D01*
X86360500Y-138425126D01*
X86360500Y-137160000D01*
X87544341Y-137160000D01*
X87564936Y-137395403D01*
X87564938Y-137395413D01*
X87626094Y-137623655D01*
X87626096Y-137623659D01*
X87626097Y-137623663D01*
X87676031Y-137730746D01*
X87725964Y-137837828D01*
X87725965Y-137837830D01*
X87861505Y-138031402D01*
X88028597Y-138198494D01*
X88222169Y-138334034D01*
X88222171Y-138334035D01*
X88436337Y-138433903D01*
X88664592Y-138495063D01*
X88841032Y-138510499D01*
X88841033Y-138510500D01*
X88841034Y-138510500D01*
X88958967Y-138510500D01*
X88958967Y-138510499D01*
X89135408Y-138495063D01*
X89363663Y-138433903D01*
X89577829Y-138334035D01*
X89771401Y-138198495D01*
X89938495Y-138031401D01*
X90074035Y-137837830D01*
X90173903Y-137623663D01*
X90235063Y-137395408D01*
X90255659Y-137160000D01*
X125644341Y-137160000D01*
X125664936Y-137395403D01*
X125664938Y-137395413D01*
X125726094Y-137623655D01*
X125726096Y-137623659D01*
X125726097Y-137623663D01*
X125776031Y-137730746D01*
X125825964Y-137837828D01*
X125825965Y-137837830D01*
X125961505Y-138031402D01*
X126128597Y-138198494D01*
X126322169Y-138334034D01*
X126322171Y-138334035D01*
X126536337Y-138433903D01*
X126764592Y-138495063D01*
X126941032Y-138510499D01*
X126941033Y-138510500D01*
X126941034Y-138510500D01*
X127058967Y-138510500D01*
X127058967Y-138510499D01*
X127235408Y-138495063D01*
X127463663Y-138433903D01*
X127677829Y-138334035D01*
X127871401Y-138198495D01*
X128038495Y-138031401D01*
X128174035Y-137837830D01*
X128273903Y-137623663D01*
X128335063Y-137395408D01*
X128355659Y-137160000D01*
X128335063Y-136924592D01*
X128273903Y-136696337D01*
X128174035Y-136482171D01*
X128174034Y-136482169D01*
X128038494Y-136288597D01*
X127871402Y-136121505D01*
X127677830Y-135985965D01*
X127677828Y-135985964D01*
X127570746Y-135936031D01*
X127463663Y-135886097D01*
X127463659Y-135886096D01*
X127463655Y-135886094D01*
X127235413Y-135824938D01*
X127235403Y-135824936D01*
X127058967Y-135809500D01*
X127058966Y-135809500D01*
X126941034Y-135809500D01*
X126941033Y-135809500D01*
X126764596Y-135824936D01*
X126764586Y-135824938D01*
X126536344Y-135886094D01*
X126536335Y-135886098D01*
X126322171Y-135985964D01*
X126322169Y-135985965D01*
X126128597Y-136121505D01*
X125961506Y-136288597D01*
X125961501Y-136288604D01*
X125825967Y-136482165D01*
X125825965Y-136482169D01*
X125726098Y-136696335D01*
X125726094Y-136696344D01*
X125664938Y-136924586D01*
X125664936Y-136924596D01*
X125644341Y-137159999D01*
X125644341Y-137160000D01*
X90255659Y-137160000D01*
X90235063Y-136924592D01*
X90173903Y-136696337D01*
X90074035Y-136482171D01*
X90074034Y-136482169D01*
X89938494Y-136288597D01*
X89771402Y-136121505D01*
X89577830Y-135985965D01*
X89577828Y-135985964D01*
X89470746Y-135936031D01*
X89363663Y-135886097D01*
X89363659Y-135886096D01*
X89363655Y-135886094D01*
X89135413Y-135824938D01*
X89135403Y-135824936D01*
X88958967Y-135809500D01*
X88958966Y-135809500D01*
X88841034Y-135809500D01*
X88841033Y-135809500D01*
X88664596Y-135824936D01*
X88664586Y-135824938D01*
X88436344Y-135886094D01*
X88436335Y-135886098D01*
X88222171Y-135985964D01*
X88222169Y-135985965D01*
X88028597Y-136121505D01*
X87861506Y-136288597D01*
X87861501Y-136288604D01*
X87725967Y-136482165D01*
X87725965Y-136482169D01*
X87626098Y-136696335D01*
X87626094Y-136696344D01*
X87564938Y-136924586D01*
X87564936Y-136924596D01*
X87544341Y-137159999D01*
X87544341Y-137160000D01*
X86360500Y-137160000D01*
X86360500Y-132080002D01*
X95252677Y-132080002D01*
X95271929Y-132300062D01*
X95271930Y-132300070D01*
X95329104Y-132513445D01*
X95329105Y-132513447D01*
X95329106Y-132513450D01*
X95422466Y-132713662D01*
X95422468Y-132713666D01*
X95549170Y-132894615D01*
X95549175Y-132894621D01*
X95705378Y-133050824D01*
X95705384Y-133050829D01*
X95886333Y-133177531D01*
X95886335Y-133177532D01*
X95886338Y-133177534D01*
X96086550Y-133270894D01*
X96299932Y-133328070D01*
X96457123Y-133341822D01*
X96519998Y-133347323D01*
X96520000Y-133347323D01*
X96520002Y-133347323D01*
X96575017Y-133342509D01*
X96740068Y-133328070D01*
X96953450Y-133270894D01*
X97153662Y-133177534D01*
X97334620Y-133050826D01*
X97490826Y-132894620D01*
X97617534Y-132713662D01*
X97710894Y-132513450D01*
X97768070Y-132300068D01*
X97787323Y-132080002D01*
X118112677Y-132080002D01*
X118131929Y-132300062D01*
X118131930Y-132300070D01*
X118189104Y-132513445D01*
X118189105Y-132513447D01*
X118189106Y-132513450D01*
X118282466Y-132713662D01*
X118282468Y-132713666D01*
X118409170Y-132894615D01*
X118409175Y-132894621D01*
X118565378Y-133050824D01*
X118565384Y-133050829D01*
X118746333Y-133177531D01*
X118746335Y-133177532D01*
X118746338Y-133177534D01*
X118946550Y-133270894D01*
X119159932Y-133328070D01*
X119317123Y-133341822D01*
X119379998Y-133347323D01*
X119380000Y-133347323D01*
X119380002Y-133347323D01*
X119435017Y-133342509D01*
X119600068Y-133328070D01*
X119813450Y-133270894D01*
X120013662Y-133177534D01*
X120194620Y-133050826D01*
X120350826Y-132894620D01*
X120477534Y-132713662D01*
X120570894Y-132513450D01*
X120628070Y-132300068D01*
X120647323Y-132080000D01*
X120628070Y-131859932D01*
X120570894Y-131646550D01*
X120477534Y-131446339D01*
X120350826Y-131265380D01*
X120194620Y-131109174D01*
X120194616Y-131109171D01*
X120194615Y-131109170D01*
X120013666Y-130982468D01*
X120013658Y-130982464D01*
X119884811Y-130922382D01*
X119832371Y-130876210D01*
X119813219Y-130809017D01*
X119833435Y-130742135D01*
X119884811Y-130697618D01*
X119890802Y-130694824D01*
X120013662Y-130637534D01*
X120194620Y-130510826D01*
X120350826Y-130354620D01*
X120477534Y-130173662D01*
X120570894Y-129973450D01*
X120628070Y-129760068D01*
X120647323Y-129540000D01*
X120628070Y-129319932D01*
X120570894Y-129106550D01*
X120477534Y-128906339D01*
X120350826Y-128725380D01*
X120194620Y-128569174D01*
X120194616Y-128569171D01*
X120194615Y-128569170D01*
X120013666Y-128442468D01*
X120013658Y-128442464D01*
X119884811Y-128382382D01*
X119832371Y-128336210D01*
X119813219Y-128269017D01*
X119833435Y-128202135D01*
X119884811Y-128157618D01*
X119890802Y-128154824D01*
X120013662Y-128097534D01*
X120194620Y-127970826D01*
X120350826Y-127814620D01*
X120477534Y-127633662D01*
X120570894Y-127433450D01*
X120628070Y-127220068D01*
X120647323Y-127000000D01*
X120628070Y-126779932D01*
X120570894Y-126566550D01*
X120477534Y-126366339D01*
X120350826Y-126185380D01*
X120194620Y-126029174D01*
X120194616Y-126029171D01*
X120194615Y-126029170D01*
X120013666Y-125902468D01*
X120013658Y-125902464D01*
X119884811Y-125842382D01*
X119832371Y-125796210D01*
X119813219Y-125729017D01*
X119833435Y-125662135D01*
X119884811Y-125617618D01*
X119890802Y-125614824D01*
X120013662Y-125557534D01*
X120194620Y-125430826D01*
X120350826Y-125274620D01*
X120477534Y-125093662D01*
X120570894Y-124893450D01*
X120628070Y-124680068D01*
X120647323Y-124460000D01*
X120628070Y-124239932D01*
X120570894Y-124026550D01*
X120477534Y-123826339D01*
X120350826Y-123645380D01*
X120194620Y-123489174D01*
X120194616Y-123489171D01*
X120194615Y-123489170D01*
X120013666Y-123362468D01*
X120013658Y-123362464D01*
X119884811Y-123302382D01*
X119832371Y-123256210D01*
X119813219Y-123189017D01*
X119833435Y-123122135D01*
X119884811Y-123077618D01*
X119890802Y-123074824D01*
X120013662Y-123017534D01*
X120194620Y-122890826D01*
X120350826Y-122734620D01*
X120477534Y-122553662D01*
X120570894Y-122353450D01*
X120628070Y-122140068D01*
X120647323Y-121920000D01*
X120628070Y-121699932D01*
X120570894Y-121486550D01*
X120477534Y-121286339D01*
X120350826Y-121105380D01*
X120194620Y-120949174D01*
X120194616Y-120949171D01*
X120194615Y-120949170D01*
X120013666Y-120822468D01*
X120013658Y-120822464D01*
X119884811Y-120762382D01*
X119832371Y-120716210D01*
X119813219Y-120649017D01*
X119833435Y-120582135D01*
X119884811Y-120537618D01*
X119890802Y-120534824D01*
X120013662Y-120477534D01*
X120194620Y-120350826D01*
X120350826Y-120194620D01*
X120477534Y-120013662D01*
X120570894Y-119813450D01*
X120628070Y-119600068D01*
X120647323Y-119380000D01*
X120628070Y-119159932D01*
X120570894Y-118946550D01*
X120477534Y-118746339D01*
X120350826Y-118565380D01*
X120194620Y-118409174D01*
X120194616Y-118409171D01*
X120194615Y-118409170D01*
X120013666Y-118282468D01*
X120013658Y-118282464D01*
X119884811Y-118222382D01*
X119832371Y-118176210D01*
X119813219Y-118109017D01*
X119833435Y-118042135D01*
X119884811Y-117997618D01*
X119890802Y-117994824D01*
X120013662Y-117937534D01*
X120194620Y-117810826D01*
X120350826Y-117654620D01*
X120477534Y-117473662D01*
X120570894Y-117273450D01*
X120628070Y-117060068D01*
X120647323Y-116840000D01*
X120628070Y-116619932D01*
X120570894Y-116406550D01*
X120477534Y-116206339D01*
X120350826Y-116025380D01*
X120194620Y-115869174D01*
X120194616Y-115869171D01*
X120194615Y-115869170D01*
X120013666Y-115742468D01*
X120013658Y-115742464D01*
X119884811Y-115682382D01*
X119832371Y-115636210D01*
X119813219Y-115569017D01*
X119833435Y-115502135D01*
X119884811Y-115457618D01*
X119890802Y-115454824D01*
X120013662Y-115397534D01*
X120194620Y-115270826D01*
X120350826Y-115114620D01*
X120477534Y-114933662D01*
X120570894Y-114733450D01*
X120628070Y-114520068D01*
X120647323Y-114300000D01*
X120628070Y-114079932D01*
X120570894Y-113866550D01*
X120477534Y-113666339D01*
X120350826Y-113485380D01*
X120194620Y-113329174D01*
X120194616Y-113329171D01*
X120194615Y-113329170D01*
X120013666Y-113202468D01*
X120013658Y-113202464D01*
X119884811Y-113142382D01*
X119832371Y-113096210D01*
X119813219Y-113029017D01*
X119833435Y-112962135D01*
X119884811Y-112917618D01*
X119890802Y-112914824D01*
X120013662Y-112857534D01*
X120194620Y-112730826D01*
X120350826Y-112574620D01*
X120477534Y-112393662D01*
X120570894Y-112193450D01*
X120628070Y-111980068D01*
X120647323Y-111760000D01*
X120628070Y-111539932D01*
X120570894Y-111326550D01*
X120477534Y-111126339D01*
X120350826Y-110945380D01*
X120194620Y-110789174D01*
X120194616Y-110789171D01*
X120194615Y-110789170D01*
X120013666Y-110662468D01*
X120013658Y-110662464D01*
X119884811Y-110602382D01*
X119832371Y-110556210D01*
X119813219Y-110489017D01*
X119833435Y-110422135D01*
X119884811Y-110377618D01*
X119890802Y-110374824D01*
X120013662Y-110317534D01*
X120194620Y-110190826D01*
X120350826Y-110034620D01*
X120477534Y-109853662D01*
X120570894Y-109653450D01*
X120628070Y-109440068D01*
X120647323Y-109220000D01*
X120628070Y-108999932D01*
X120570894Y-108786550D01*
X120477534Y-108586339D01*
X120350826Y-108405380D01*
X120194620Y-108249174D01*
X120194616Y-108249171D01*
X120194615Y-108249170D01*
X120013666Y-108122468D01*
X120013658Y-108122464D01*
X119884811Y-108062382D01*
X119832371Y-108016210D01*
X119813219Y-107949017D01*
X119833435Y-107882135D01*
X119884811Y-107837618D01*
X119890802Y-107834824D01*
X120013662Y-107777534D01*
X120194620Y-107650826D01*
X120350826Y-107494620D01*
X120477534Y-107313662D01*
X120570894Y-107113450D01*
X120628070Y-106900068D01*
X120647323Y-106680000D01*
X120628070Y-106459932D01*
X120570894Y-106246550D01*
X120477534Y-106046339D01*
X120350826Y-105865380D01*
X120194620Y-105709174D01*
X120194616Y-105709171D01*
X120194615Y-105709170D01*
X120013666Y-105582468D01*
X120013658Y-105582464D01*
X119884811Y-105522382D01*
X119832371Y-105476210D01*
X119813219Y-105409017D01*
X119833435Y-105342135D01*
X119884811Y-105297618D01*
X119890802Y-105294824D01*
X120013662Y-105237534D01*
X120194620Y-105110826D01*
X120350826Y-104954620D01*
X120477534Y-104773662D01*
X120570894Y-104573450D01*
X120628070Y-104360068D01*
X120647323Y-104140000D01*
X120628070Y-103919932D01*
X120570894Y-103706550D01*
X120477534Y-103506339D01*
X120350826Y-103325380D01*
X120194620Y-103169174D01*
X120194616Y-103169171D01*
X120194615Y-103169170D01*
X120013666Y-103042468D01*
X120013658Y-103042464D01*
X119884811Y-102982382D01*
X119832371Y-102936210D01*
X119813219Y-102869017D01*
X119833435Y-102802135D01*
X119884811Y-102757618D01*
X119890802Y-102754824D01*
X120013662Y-102697534D01*
X120194620Y-102570826D01*
X120350826Y-102414620D01*
X120477534Y-102233662D01*
X120570894Y-102033450D01*
X120628070Y-101820068D01*
X120647323Y-101600000D01*
X120628070Y-101379932D01*
X120570894Y-101166550D01*
X120477534Y-100966339D01*
X120350826Y-100785380D01*
X120194620Y-100629174D01*
X120194616Y-100629171D01*
X120194615Y-100629170D01*
X120013666Y-100502468D01*
X120013658Y-100502464D01*
X119884811Y-100442382D01*
X119832371Y-100396210D01*
X119813219Y-100329017D01*
X119833435Y-100262135D01*
X119884811Y-100217618D01*
X119890802Y-100214824D01*
X120013662Y-100157534D01*
X120194620Y-100030826D01*
X120350826Y-99874620D01*
X120477534Y-99693662D01*
X120570894Y-99493450D01*
X120628070Y-99280068D01*
X120647323Y-99060000D01*
X120628070Y-98839932D01*
X120570894Y-98626550D01*
X120477534Y-98426339D01*
X120350826Y-98245380D01*
X120194620Y-98089174D01*
X120194616Y-98089171D01*
X120194615Y-98089170D01*
X120013666Y-97962468D01*
X120013658Y-97962464D01*
X119884811Y-97902382D01*
X119832371Y-97856210D01*
X119813219Y-97789017D01*
X119833435Y-97722135D01*
X119884811Y-97677618D01*
X119890802Y-97674824D01*
X120013662Y-97617534D01*
X120194620Y-97490826D01*
X120350826Y-97334620D01*
X120477534Y-97153662D01*
X120570894Y-96953450D01*
X120628070Y-96740068D01*
X120647323Y-96520000D01*
X120628070Y-96299932D01*
X120570894Y-96086550D01*
X120477534Y-95886339D01*
X120350826Y-95705380D01*
X120194620Y-95549174D01*
X120194616Y-95549171D01*
X120194615Y-95549170D01*
X120013666Y-95422468D01*
X120013662Y-95422466D01*
X119884218Y-95362105D01*
X119831779Y-95315932D01*
X119812627Y-95248739D01*
X119832843Y-95181858D01*
X119884219Y-95137340D01*
X120013416Y-95077095D01*
X120013417Y-95077094D01*
X120078188Y-95031741D01*
X119407448Y-94361000D01*
X119411569Y-94361000D01*
X119505421Y-94345339D01*
X119617251Y-94284820D01*
X119703371Y-94191269D01*
X119754448Y-94074823D01*
X119760105Y-94006552D01*
X120431741Y-94678188D01*
X120477094Y-94613417D01*
X120477100Y-94613407D01*
X120570419Y-94413284D01*
X120570424Y-94413270D01*
X120627573Y-94199986D01*
X120627575Y-94199976D01*
X120646821Y-93980000D01*
X120646821Y-93979999D01*
X120627575Y-93760023D01*
X120627573Y-93760013D01*
X120570424Y-93546729D01*
X120570420Y-93546720D01*
X120477096Y-93346586D01*
X120431741Y-93281811D01*
X120431740Y-93281810D01*
X119764903Y-93948648D01*
X119764949Y-93948102D01*
X119733734Y-93824838D01*
X119664187Y-93718388D01*
X119563843Y-93640287D01*
X119443578Y-93599000D01*
X119407448Y-93599000D01*
X120078188Y-92928259D01*
X120078187Y-92928258D01*
X120013411Y-92882901D01*
X120013405Y-92882898D01*
X119813284Y-92789580D01*
X119813270Y-92789575D01*
X119599986Y-92732426D01*
X119599976Y-92732424D01*
X119380001Y-92713179D01*
X119379999Y-92713179D01*
X119160023Y-92732424D01*
X119160013Y-92732426D01*
X118946729Y-92789575D01*
X118946720Y-92789579D01*
X118746590Y-92882901D01*
X118681811Y-92928258D01*
X119352553Y-93599000D01*
X119348431Y-93599000D01*
X119254579Y-93614661D01*
X119142749Y-93675180D01*
X119056629Y-93768731D01*
X119005552Y-93885177D01*
X118999894Y-93953447D01*
X118328258Y-93281811D01*
X118282901Y-93346590D01*
X118189579Y-93546720D01*
X118189575Y-93546729D01*
X118132426Y-93760013D01*
X118132424Y-93760023D01*
X118113179Y-93979999D01*
X118113179Y-93980000D01*
X118132424Y-94199976D01*
X118132426Y-94199986D01*
X118189575Y-94413270D01*
X118189580Y-94413284D01*
X118282898Y-94613405D01*
X118282901Y-94613411D01*
X118328258Y-94678187D01*
X118328259Y-94678188D01*
X118995096Y-94011350D01*
X118995051Y-94011898D01*
X119026266Y-94135162D01*
X119095813Y-94241612D01*
X119196157Y-94319713D01*
X119316422Y-94361000D01*
X119352553Y-94361000D01*
X118681810Y-95031740D01*
X118746589Y-95077098D01*
X118875781Y-95137342D01*
X118928220Y-95183514D01*
X118947372Y-95250708D01*
X118927156Y-95317589D01*
X118875781Y-95362106D01*
X118746340Y-95422465D01*
X118746338Y-95422466D01*
X118565377Y-95549175D01*
X118409175Y-95705377D01*
X118282466Y-95886338D01*
X118282465Y-95886340D01*
X118189107Y-96086548D01*
X118189104Y-96086554D01*
X118131930Y-96299929D01*
X118131929Y-96299937D01*
X118112677Y-96519997D01*
X118112677Y-96520002D01*
X118131929Y-96740062D01*
X118131930Y-96740070D01*
X118189104Y-96953445D01*
X118189105Y-96953447D01*
X118189106Y-96953450D01*
X118282466Y-97153662D01*
X118282468Y-97153666D01*
X118409170Y-97334615D01*
X118409175Y-97334621D01*
X118565378Y-97490824D01*
X118565384Y-97490829D01*
X118746333Y-97617531D01*
X118746335Y-97617532D01*
X118746338Y-97617534D01*
X118865748Y-97673215D01*
X118875189Y-97677618D01*
X118927628Y-97723790D01*
X118946780Y-97790984D01*
X118926564Y-97857865D01*
X118875189Y-97902382D01*
X118746340Y-97962465D01*
X118746338Y-97962466D01*
X118565377Y-98089175D01*
X118409175Y-98245377D01*
X118282466Y-98426338D01*
X118282465Y-98426340D01*
X118189107Y-98626548D01*
X118189104Y-98626554D01*
X118131930Y-98839929D01*
X118131929Y-98839937D01*
X118112677Y-99059997D01*
X118112677Y-99060002D01*
X118131929Y-99280062D01*
X118131930Y-99280070D01*
X118189104Y-99493445D01*
X118189105Y-99493447D01*
X118189106Y-99493450D01*
X118282466Y-99693662D01*
X118282468Y-99693666D01*
X118409170Y-99874615D01*
X118409175Y-99874621D01*
X118565378Y-100030824D01*
X118565384Y-100030829D01*
X118746333Y-100157531D01*
X118746335Y-100157532D01*
X118746338Y-100157534D01*
X118865748Y-100213215D01*
X118875189Y-100217618D01*
X118927628Y-100263790D01*
X118946780Y-100330984D01*
X118926564Y-100397865D01*
X118875189Y-100442382D01*
X118746340Y-100502465D01*
X118746338Y-100502466D01*
X118565377Y-100629175D01*
X118409175Y-100785377D01*
X118282466Y-100966338D01*
X118282465Y-100966340D01*
X118189107Y-101166548D01*
X118189104Y-101166554D01*
X118131930Y-101379929D01*
X118131929Y-101379937D01*
X118112677Y-101599997D01*
X118112677Y-101600002D01*
X118131929Y-101820062D01*
X118131930Y-101820070D01*
X118189104Y-102033445D01*
X118189105Y-102033447D01*
X118189106Y-102033450D01*
X118282466Y-102233662D01*
X118282468Y-102233666D01*
X118409170Y-102414615D01*
X118409175Y-102414621D01*
X118565378Y-102570824D01*
X118565384Y-102570829D01*
X118746333Y-102697531D01*
X118746335Y-102697532D01*
X118746338Y-102697534D01*
X118865748Y-102753215D01*
X118875189Y-102757618D01*
X118927628Y-102803790D01*
X118946780Y-102870984D01*
X118926564Y-102937865D01*
X118875189Y-102982382D01*
X118746340Y-103042465D01*
X118746338Y-103042466D01*
X118565377Y-103169175D01*
X118409175Y-103325377D01*
X118282466Y-103506338D01*
X118282465Y-103506340D01*
X118189107Y-103706548D01*
X118189104Y-103706554D01*
X118131930Y-103919929D01*
X118131929Y-103919937D01*
X118112677Y-104139997D01*
X118112677Y-104140002D01*
X118131929Y-104360062D01*
X118131930Y-104360070D01*
X118189104Y-104573445D01*
X118189105Y-104573447D01*
X118189106Y-104573450D01*
X118282466Y-104773662D01*
X118282468Y-104773666D01*
X118409170Y-104954615D01*
X118409175Y-104954621D01*
X118565378Y-105110824D01*
X118565384Y-105110829D01*
X118746333Y-105237531D01*
X118746335Y-105237532D01*
X118746338Y-105237534D01*
X118865748Y-105293215D01*
X118875189Y-105297618D01*
X118927628Y-105343790D01*
X118946780Y-105410984D01*
X118926564Y-105477865D01*
X118875189Y-105522382D01*
X118746340Y-105582465D01*
X118746338Y-105582466D01*
X118565377Y-105709175D01*
X118409175Y-105865377D01*
X118282466Y-106046338D01*
X118282465Y-106046340D01*
X118189107Y-106246548D01*
X118189104Y-106246554D01*
X118131930Y-106459929D01*
X118131929Y-106459937D01*
X118112677Y-106679997D01*
X118112677Y-106680002D01*
X118131929Y-106900062D01*
X118131930Y-106900070D01*
X118189104Y-107113445D01*
X118189105Y-107113447D01*
X118189106Y-107113450D01*
X118282466Y-107313662D01*
X118282468Y-107313666D01*
X118409170Y-107494615D01*
X118409175Y-107494621D01*
X118565378Y-107650824D01*
X118565384Y-107650829D01*
X118746333Y-107777531D01*
X118746335Y-107777532D01*
X118746338Y-107777534D01*
X118865748Y-107833215D01*
X118875189Y-107837618D01*
X118927628Y-107883790D01*
X118946780Y-107950984D01*
X118926564Y-108017865D01*
X118875189Y-108062382D01*
X118746340Y-108122465D01*
X118746338Y-108122466D01*
X118565377Y-108249175D01*
X118409175Y-108405377D01*
X118282466Y-108586338D01*
X118282465Y-108586340D01*
X118189107Y-108786548D01*
X118189104Y-108786554D01*
X118131930Y-108999929D01*
X118131929Y-108999937D01*
X118112677Y-109219997D01*
X118112677Y-109220002D01*
X118131929Y-109440062D01*
X118131930Y-109440070D01*
X118189104Y-109653445D01*
X118189105Y-109653447D01*
X118189106Y-109653450D01*
X118282466Y-109853662D01*
X118282468Y-109853666D01*
X118409170Y-110034615D01*
X118409175Y-110034621D01*
X118565378Y-110190824D01*
X118565384Y-110190829D01*
X118746333Y-110317531D01*
X118746335Y-110317532D01*
X118746338Y-110317534D01*
X118865748Y-110373215D01*
X118875189Y-110377618D01*
X118927628Y-110423790D01*
X118946780Y-110490984D01*
X118926564Y-110557865D01*
X118875189Y-110602382D01*
X118746340Y-110662465D01*
X118746338Y-110662466D01*
X118565377Y-110789175D01*
X118409175Y-110945377D01*
X118282466Y-111126338D01*
X118282465Y-111126340D01*
X118189107Y-111326548D01*
X118189104Y-111326554D01*
X118131930Y-111539929D01*
X118131929Y-111539937D01*
X118112677Y-111759997D01*
X118112677Y-111760002D01*
X118131929Y-111980062D01*
X118131930Y-111980070D01*
X118189104Y-112193445D01*
X118189105Y-112193447D01*
X118189106Y-112193450D01*
X118282466Y-112393662D01*
X118282468Y-112393666D01*
X118409170Y-112574615D01*
X118409175Y-112574621D01*
X118565378Y-112730824D01*
X118565384Y-112730829D01*
X118746333Y-112857531D01*
X118746335Y-112857532D01*
X118746338Y-112857534D01*
X118865748Y-112913215D01*
X118875189Y-112917618D01*
X118927628Y-112963790D01*
X118946780Y-113030984D01*
X118926564Y-113097865D01*
X118875189Y-113142382D01*
X118746340Y-113202465D01*
X118746338Y-113202466D01*
X118565377Y-113329175D01*
X118409175Y-113485377D01*
X118282466Y-113666338D01*
X118282465Y-113666340D01*
X118189107Y-113866548D01*
X118189104Y-113866554D01*
X118131930Y-114079929D01*
X118131929Y-114079937D01*
X118112677Y-114299997D01*
X118112677Y-114300002D01*
X118131929Y-114520062D01*
X118131930Y-114520070D01*
X118189104Y-114733445D01*
X118189105Y-114733447D01*
X118189106Y-114733450D01*
X118282466Y-114933662D01*
X118282468Y-114933666D01*
X118409170Y-115114615D01*
X118409175Y-115114621D01*
X118565378Y-115270824D01*
X118565384Y-115270829D01*
X118746333Y-115397531D01*
X118746335Y-115397532D01*
X118746338Y-115397534D01*
X118865748Y-115453215D01*
X118875189Y-115457618D01*
X118927628Y-115503790D01*
X118946780Y-115570984D01*
X118926564Y-115637865D01*
X118875189Y-115682382D01*
X118746340Y-115742465D01*
X118746338Y-115742466D01*
X118565377Y-115869175D01*
X118409175Y-116025377D01*
X118282466Y-116206338D01*
X118282465Y-116206340D01*
X118189107Y-116406548D01*
X118189104Y-116406554D01*
X118131930Y-116619929D01*
X118131929Y-116619937D01*
X118112677Y-116839997D01*
X118112677Y-116840002D01*
X118131929Y-117060062D01*
X118131930Y-117060070D01*
X118189104Y-117273445D01*
X118189105Y-117273447D01*
X118189106Y-117273450D01*
X118282466Y-117473662D01*
X118282468Y-117473666D01*
X118409170Y-117654615D01*
X118409175Y-117654621D01*
X118565378Y-117810824D01*
X118565384Y-117810829D01*
X118746333Y-117937531D01*
X118746335Y-117937532D01*
X118746338Y-117937534D01*
X118865748Y-117993215D01*
X118875189Y-117997618D01*
X118927628Y-118043790D01*
X118946780Y-118110984D01*
X118926564Y-118177865D01*
X118875189Y-118222382D01*
X118746340Y-118282465D01*
X118746338Y-118282466D01*
X118565377Y-118409175D01*
X118409175Y-118565377D01*
X118282466Y-118746338D01*
X118282465Y-118746340D01*
X118189107Y-118946548D01*
X118189104Y-118946554D01*
X118131930Y-119159929D01*
X118131929Y-119159937D01*
X118112677Y-119379997D01*
X118112677Y-119380002D01*
X118131929Y-119600062D01*
X118131930Y-119600070D01*
X118189104Y-119813445D01*
X118189105Y-119813447D01*
X118189106Y-119813450D01*
X118282466Y-120013662D01*
X118282468Y-120013666D01*
X118409170Y-120194615D01*
X118409175Y-120194621D01*
X118565378Y-120350824D01*
X118565384Y-120350829D01*
X118746333Y-120477531D01*
X118746335Y-120477532D01*
X118746338Y-120477534D01*
X118865748Y-120533215D01*
X118875189Y-120537618D01*
X118927628Y-120583790D01*
X118946780Y-120650984D01*
X118926564Y-120717865D01*
X118875189Y-120762382D01*
X118746340Y-120822465D01*
X118746338Y-120822466D01*
X118565377Y-120949175D01*
X118409175Y-121105377D01*
X118282466Y-121286338D01*
X118282465Y-121286340D01*
X118189107Y-121486548D01*
X118189104Y-121486554D01*
X118131930Y-121699929D01*
X118131929Y-121699937D01*
X118112677Y-121919997D01*
X118112677Y-121920002D01*
X118131929Y-122140062D01*
X118131930Y-122140070D01*
X118189104Y-122353445D01*
X118189105Y-122353447D01*
X118189106Y-122353450D01*
X118282466Y-122553662D01*
X118282468Y-122553666D01*
X118409170Y-122734615D01*
X118409175Y-122734621D01*
X118565378Y-122890824D01*
X118565384Y-122890829D01*
X118746333Y-123017531D01*
X118746335Y-123017532D01*
X118746338Y-123017534D01*
X118865748Y-123073215D01*
X118875189Y-123077618D01*
X118927628Y-123123790D01*
X118946780Y-123190984D01*
X118926564Y-123257865D01*
X118875189Y-123302382D01*
X118746340Y-123362465D01*
X118746338Y-123362466D01*
X118565377Y-123489175D01*
X118409175Y-123645377D01*
X118282466Y-123826338D01*
X118282465Y-123826340D01*
X118189107Y-124026548D01*
X118189104Y-124026554D01*
X118131930Y-124239929D01*
X118131929Y-124239937D01*
X118112677Y-124459997D01*
X118112677Y-124460002D01*
X118131929Y-124680062D01*
X118131930Y-124680070D01*
X118189104Y-124893445D01*
X118189105Y-124893447D01*
X118189106Y-124893450D01*
X118282466Y-125093662D01*
X118282468Y-125093666D01*
X118409170Y-125274615D01*
X118409175Y-125274621D01*
X118565378Y-125430824D01*
X118565384Y-125430829D01*
X118746333Y-125557531D01*
X118746335Y-125557532D01*
X118746338Y-125557534D01*
X118865748Y-125613215D01*
X118875189Y-125617618D01*
X118927628Y-125663790D01*
X118946780Y-125730984D01*
X118926564Y-125797865D01*
X118875189Y-125842382D01*
X118746340Y-125902465D01*
X118746338Y-125902466D01*
X118565377Y-126029175D01*
X118409175Y-126185377D01*
X118282466Y-126366338D01*
X118282465Y-126366340D01*
X118189107Y-126566548D01*
X118189104Y-126566554D01*
X118131930Y-126779929D01*
X118131929Y-126779937D01*
X118112677Y-126999997D01*
X118112677Y-127000002D01*
X118131929Y-127220062D01*
X118131930Y-127220070D01*
X118189104Y-127433445D01*
X118189105Y-127433447D01*
X118189106Y-127433450D01*
X118282466Y-127633662D01*
X118282468Y-127633666D01*
X118409170Y-127814615D01*
X118409175Y-127814621D01*
X118565378Y-127970824D01*
X118565384Y-127970829D01*
X118746333Y-128097531D01*
X118746335Y-128097532D01*
X118746338Y-128097534D01*
X118865748Y-128153215D01*
X118875189Y-128157618D01*
X118927628Y-128203790D01*
X118946780Y-128270984D01*
X118926564Y-128337865D01*
X118875189Y-128382382D01*
X118746340Y-128442465D01*
X118746338Y-128442466D01*
X118565377Y-128569175D01*
X118409175Y-128725377D01*
X118282466Y-128906338D01*
X118282465Y-128906340D01*
X118189107Y-129106548D01*
X118189104Y-129106554D01*
X118131930Y-129319929D01*
X118131929Y-129319937D01*
X118112677Y-129539997D01*
X118112677Y-129540002D01*
X118131929Y-129760062D01*
X118131930Y-129760070D01*
X118189104Y-129973445D01*
X118189105Y-129973447D01*
X118189106Y-129973450D01*
X118282466Y-130173662D01*
X118282468Y-130173666D01*
X118409170Y-130354615D01*
X118409175Y-130354621D01*
X118565378Y-130510824D01*
X118565384Y-130510829D01*
X118746333Y-130637531D01*
X118746335Y-130637532D01*
X118746338Y-130637534D01*
X118865748Y-130693215D01*
X118875189Y-130697618D01*
X118927628Y-130743790D01*
X118946780Y-130810984D01*
X118926564Y-130877865D01*
X118875189Y-130922382D01*
X118746340Y-130982465D01*
X118746338Y-130982466D01*
X118565377Y-131109175D01*
X118409175Y-131265377D01*
X118282466Y-131446338D01*
X118282465Y-131446340D01*
X118189107Y-131646548D01*
X118189104Y-131646554D01*
X118131930Y-131859929D01*
X118131929Y-131859937D01*
X118112677Y-132079997D01*
X118112677Y-132080002D01*
X97787323Y-132080002D01*
X97787323Y-132080000D01*
X97768070Y-131859932D01*
X97710894Y-131646550D01*
X97617534Y-131446339D01*
X97490826Y-131265380D01*
X97334620Y-131109174D01*
X97334616Y-131109171D01*
X97334615Y-131109170D01*
X97153666Y-130982468D01*
X97153658Y-130982464D01*
X97024811Y-130922382D01*
X96972371Y-130876210D01*
X96953219Y-130809017D01*
X96973435Y-130742135D01*
X97024811Y-130697618D01*
X97030802Y-130694824D01*
X97153662Y-130637534D01*
X97334620Y-130510826D01*
X97490826Y-130354620D01*
X97617534Y-130173662D01*
X97710894Y-129973450D01*
X97768070Y-129760068D01*
X97787323Y-129540000D01*
X97768070Y-129319932D01*
X97710894Y-129106550D01*
X97617534Y-128906339D01*
X97490826Y-128725380D01*
X97334620Y-128569174D01*
X97334616Y-128569171D01*
X97334615Y-128569170D01*
X97153666Y-128442468D01*
X97153658Y-128442464D01*
X97024811Y-128382382D01*
X96972371Y-128336210D01*
X96953219Y-128269017D01*
X96973435Y-128202135D01*
X97024811Y-128157618D01*
X97030802Y-128154824D01*
X97153662Y-128097534D01*
X97334620Y-127970826D01*
X97490826Y-127814620D01*
X97617534Y-127633662D01*
X97710894Y-127433450D01*
X97768070Y-127220068D01*
X97787323Y-127000000D01*
X97768070Y-126779932D01*
X97710894Y-126566550D01*
X97617534Y-126366339D01*
X97490826Y-126185380D01*
X97334620Y-126029174D01*
X97334616Y-126029171D01*
X97334615Y-126029170D01*
X97153666Y-125902468D01*
X97153658Y-125902464D01*
X97024811Y-125842382D01*
X96972371Y-125796210D01*
X96953219Y-125729017D01*
X96973435Y-125662135D01*
X97024811Y-125617618D01*
X97030802Y-125614824D01*
X97153662Y-125557534D01*
X97334620Y-125430826D01*
X97490826Y-125274620D01*
X97617534Y-125093662D01*
X97710894Y-124893450D01*
X97768070Y-124680068D01*
X97787323Y-124460000D01*
X97768070Y-124239932D01*
X97710894Y-124026550D01*
X97617534Y-123826339D01*
X97490826Y-123645380D01*
X97334620Y-123489174D01*
X97334616Y-123489171D01*
X97334615Y-123489170D01*
X97153666Y-123362468D01*
X97153658Y-123362464D01*
X97024811Y-123302382D01*
X96972371Y-123256210D01*
X96953219Y-123189017D01*
X96973435Y-123122135D01*
X97024811Y-123077618D01*
X97030802Y-123074824D01*
X97153662Y-123017534D01*
X97334620Y-122890826D01*
X97490826Y-122734620D01*
X97617534Y-122553662D01*
X97710894Y-122353450D01*
X97768070Y-122140068D01*
X97787323Y-121920000D01*
X97768070Y-121699932D01*
X97710894Y-121486550D01*
X97617534Y-121286339D01*
X97490826Y-121105380D01*
X97334620Y-120949174D01*
X97334616Y-120949171D01*
X97334615Y-120949170D01*
X97153666Y-120822468D01*
X97153658Y-120822464D01*
X97024811Y-120762382D01*
X96972371Y-120716210D01*
X96953219Y-120649017D01*
X96973435Y-120582135D01*
X97024811Y-120537618D01*
X97030802Y-120534824D01*
X97153662Y-120477534D01*
X97334620Y-120350826D01*
X97490826Y-120194620D01*
X97617534Y-120013662D01*
X97710894Y-119813450D01*
X97768070Y-119600068D01*
X97787323Y-119380000D01*
X97768070Y-119159932D01*
X97710894Y-118946550D01*
X97617534Y-118746339D01*
X97490826Y-118565380D01*
X97334620Y-118409174D01*
X97334616Y-118409171D01*
X97334615Y-118409170D01*
X97153666Y-118282468D01*
X97153658Y-118282464D01*
X97024811Y-118222382D01*
X96972371Y-118176210D01*
X96953219Y-118109017D01*
X96973435Y-118042135D01*
X97024811Y-117997618D01*
X97030802Y-117994824D01*
X97153662Y-117937534D01*
X97334620Y-117810826D01*
X97490826Y-117654620D01*
X97617534Y-117473662D01*
X97710894Y-117273450D01*
X97768070Y-117060068D01*
X97787323Y-116840000D01*
X97768070Y-116619932D01*
X97710894Y-116406550D01*
X97617534Y-116206339D01*
X97490826Y-116025380D01*
X97334620Y-115869174D01*
X97334616Y-115869171D01*
X97334615Y-115869170D01*
X97153666Y-115742468D01*
X97153658Y-115742464D01*
X97024811Y-115682382D01*
X96972371Y-115636210D01*
X96953219Y-115569017D01*
X96973435Y-115502135D01*
X97024811Y-115457618D01*
X97030802Y-115454824D01*
X97153662Y-115397534D01*
X97334620Y-115270826D01*
X97490826Y-115114620D01*
X97617534Y-114933662D01*
X97710894Y-114733450D01*
X97768070Y-114520068D01*
X97787323Y-114300000D01*
X97768070Y-114079932D01*
X97710894Y-113866550D01*
X97617534Y-113666339D01*
X97490826Y-113485380D01*
X97334620Y-113329174D01*
X97334616Y-113329171D01*
X97334615Y-113329170D01*
X97153666Y-113202468D01*
X97153658Y-113202464D01*
X97024811Y-113142382D01*
X96972371Y-113096210D01*
X96953219Y-113029017D01*
X96973435Y-112962135D01*
X97024811Y-112917618D01*
X97030802Y-112914824D01*
X97153662Y-112857534D01*
X97334620Y-112730826D01*
X97490826Y-112574620D01*
X97617534Y-112393662D01*
X97710894Y-112193450D01*
X97768070Y-111980068D01*
X97787323Y-111760000D01*
X97768070Y-111539932D01*
X97710894Y-111326550D01*
X97617534Y-111126339D01*
X97490826Y-110945380D01*
X97334620Y-110789174D01*
X97334616Y-110789171D01*
X97334615Y-110789170D01*
X97153666Y-110662468D01*
X97153658Y-110662464D01*
X97024811Y-110602382D01*
X96972371Y-110556210D01*
X96953219Y-110489017D01*
X96973435Y-110422135D01*
X97024811Y-110377618D01*
X97030802Y-110374824D01*
X97153662Y-110317534D01*
X97334620Y-110190826D01*
X97490826Y-110034620D01*
X97617534Y-109853662D01*
X97710894Y-109653450D01*
X97768070Y-109440068D01*
X97787323Y-109220000D01*
X97768070Y-108999932D01*
X97710894Y-108786550D01*
X97617534Y-108586339D01*
X97490826Y-108405380D01*
X97334620Y-108249174D01*
X97334616Y-108249171D01*
X97334615Y-108249170D01*
X97153666Y-108122468D01*
X97153658Y-108122464D01*
X97024811Y-108062382D01*
X96972371Y-108016210D01*
X96953219Y-107949017D01*
X96973435Y-107882135D01*
X97024811Y-107837618D01*
X97030802Y-107834824D01*
X97153662Y-107777534D01*
X97334620Y-107650826D01*
X97490826Y-107494620D01*
X97617534Y-107313662D01*
X97710894Y-107113450D01*
X97768070Y-106900068D01*
X97787323Y-106680000D01*
X97768070Y-106459932D01*
X97710894Y-106246550D01*
X97617534Y-106046339D01*
X97490826Y-105865380D01*
X97334620Y-105709174D01*
X97334616Y-105709171D01*
X97334615Y-105709170D01*
X97153666Y-105582468D01*
X97153658Y-105582464D01*
X97024811Y-105522382D01*
X96972371Y-105476210D01*
X96953219Y-105409017D01*
X96973435Y-105342135D01*
X97024811Y-105297618D01*
X97030802Y-105294824D01*
X97153662Y-105237534D01*
X97334620Y-105110826D01*
X97490826Y-104954620D01*
X97617534Y-104773662D01*
X97710894Y-104573450D01*
X97768070Y-104360068D01*
X97787323Y-104140000D01*
X97768070Y-103919932D01*
X97710894Y-103706550D01*
X97617534Y-103506339D01*
X97490826Y-103325380D01*
X97334620Y-103169174D01*
X97334616Y-103169171D01*
X97334615Y-103169170D01*
X97153666Y-103042468D01*
X97153658Y-103042464D01*
X97024811Y-102982382D01*
X96972371Y-102936210D01*
X96953219Y-102869017D01*
X96973435Y-102802135D01*
X97024811Y-102757618D01*
X97030802Y-102754824D01*
X97153662Y-102697534D01*
X97334620Y-102570826D01*
X97490826Y-102414620D01*
X97617534Y-102233662D01*
X97710894Y-102033450D01*
X97768070Y-101820068D01*
X97787323Y-101600000D01*
X97768070Y-101379932D01*
X97710894Y-101166550D01*
X97617534Y-100966339D01*
X97490826Y-100785380D01*
X97334620Y-100629174D01*
X97334616Y-100629171D01*
X97334615Y-100629170D01*
X97153666Y-100502468D01*
X97153658Y-100502464D01*
X97024811Y-100442382D01*
X96972371Y-100396210D01*
X96953219Y-100329017D01*
X96973435Y-100262135D01*
X97024811Y-100217618D01*
X97030802Y-100214824D01*
X97153662Y-100157534D01*
X97334620Y-100030826D01*
X97490826Y-99874620D01*
X97617534Y-99693662D01*
X97710894Y-99493450D01*
X97768070Y-99280068D01*
X97787323Y-99060000D01*
X97768070Y-98839932D01*
X97710894Y-98626550D01*
X97617534Y-98426339D01*
X97490826Y-98245380D01*
X97334620Y-98089174D01*
X97334616Y-98089171D01*
X97334615Y-98089170D01*
X97153666Y-97962468D01*
X97153658Y-97962464D01*
X97024811Y-97902382D01*
X96972371Y-97856210D01*
X96953219Y-97789017D01*
X96973435Y-97722135D01*
X97024811Y-97677618D01*
X97030802Y-97674824D01*
X97153662Y-97617534D01*
X97334620Y-97490826D01*
X97490826Y-97334620D01*
X97617534Y-97153662D01*
X97710894Y-96953450D01*
X97768070Y-96740068D01*
X97787323Y-96520000D01*
X97768070Y-96299932D01*
X97710894Y-96086550D01*
X97617534Y-95886339D01*
X97490826Y-95705380D01*
X97334620Y-95549174D01*
X97334616Y-95549171D01*
X97334615Y-95549170D01*
X97153666Y-95422468D01*
X97153658Y-95422464D01*
X97024811Y-95362382D01*
X96972371Y-95316210D01*
X96953219Y-95249017D01*
X96973435Y-95182135D01*
X97024811Y-95137618D01*
X97030802Y-95134824D01*
X97153662Y-95077534D01*
X97334620Y-94950826D01*
X97490826Y-94794620D01*
X97617534Y-94613662D01*
X97710894Y-94413450D01*
X97768070Y-94200068D01*
X97787323Y-93980000D01*
X97784532Y-93948102D01*
X97773748Y-93824838D01*
X97768070Y-93759932D01*
X97710894Y-93546550D01*
X97617534Y-93346339D01*
X97490826Y-93165380D01*
X97334620Y-93009174D01*
X97334616Y-93009171D01*
X97334615Y-93009170D01*
X97153666Y-92882468D01*
X97153662Y-92882466D01*
X97153660Y-92882465D01*
X96953450Y-92789106D01*
X96953447Y-92789105D01*
X96953445Y-92789104D01*
X96740070Y-92731930D01*
X96740062Y-92731929D01*
X96520002Y-92712677D01*
X96519998Y-92712677D01*
X96299937Y-92731929D01*
X96299929Y-92731930D01*
X96086554Y-92789104D01*
X96086548Y-92789107D01*
X95886340Y-92882465D01*
X95886338Y-92882466D01*
X95705377Y-93009175D01*
X95549175Y-93165377D01*
X95422466Y-93346338D01*
X95422465Y-93346340D01*
X95329107Y-93546548D01*
X95329104Y-93546554D01*
X95271930Y-93759929D01*
X95271929Y-93759937D01*
X95252677Y-93979997D01*
X95252677Y-93980002D01*
X95271929Y-94200062D01*
X95271930Y-94200070D01*
X95329104Y-94413445D01*
X95329105Y-94413447D01*
X95329106Y-94413450D01*
X95422346Y-94613405D01*
X95422466Y-94613662D01*
X95422468Y-94613666D01*
X95549170Y-94794615D01*
X95549175Y-94794621D01*
X95705378Y-94950824D01*
X95705384Y-94950829D01*
X95886333Y-95077531D01*
X95886335Y-95077532D01*
X95886338Y-95077534D01*
X96005748Y-95133215D01*
X96015189Y-95137618D01*
X96067628Y-95183790D01*
X96086780Y-95250984D01*
X96066564Y-95317865D01*
X96015189Y-95362382D01*
X95886340Y-95422465D01*
X95886338Y-95422466D01*
X95705377Y-95549175D01*
X95549175Y-95705377D01*
X95422466Y-95886338D01*
X95422465Y-95886340D01*
X95329107Y-96086548D01*
X95329104Y-96086554D01*
X95271930Y-96299929D01*
X95271929Y-96299937D01*
X95252677Y-96519997D01*
X95252677Y-96520002D01*
X95271929Y-96740062D01*
X95271930Y-96740070D01*
X95329104Y-96953445D01*
X95329105Y-96953447D01*
X95329106Y-96953450D01*
X95422466Y-97153662D01*
X95422468Y-97153666D01*
X95549170Y-97334615D01*
X95549175Y-97334621D01*
X95705378Y-97490824D01*
X95705384Y-97490829D01*
X95886333Y-97617531D01*
X95886335Y-97617532D01*
X95886338Y-97617534D01*
X96005748Y-97673215D01*
X96015189Y-97677618D01*
X96067628Y-97723790D01*
X96086780Y-97790984D01*
X96066564Y-97857865D01*
X96015189Y-97902382D01*
X95886340Y-97962465D01*
X95886338Y-97962466D01*
X95705377Y-98089175D01*
X95549175Y-98245377D01*
X95422466Y-98426338D01*
X95422465Y-98426340D01*
X95329107Y-98626548D01*
X95329104Y-98626554D01*
X95271930Y-98839929D01*
X95271929Y-98839937D01*
X95252677Y-99059997D01*
X95252677Y-99060002D01*
X95271929Y-99280062D01*
X95271930Y-99280070D01*
X95329104Y-99493445D01*
X95329105Y-99493447D01*
X95329106Y-99493450D01*
X95422466Y-99693662D01*
X95422468Y-99693666D01*
X95549170Y-99874615D01*
X95549175Y-99874621D01*
X95705378Y-100030824D01*
X95705384Y-100030829D01*
X95886333Y-100157531D01*
X95886335Y-100157532D01*
X95886338Y-100157534D01*
X96005748Y-100213215D01*
X96015189Y-100217618D01*
X96067628Y-100263790D01*
X96086780Y-100330984D01*
X96066564Y-100397865D01*
X96015189Y-100442382D01*
X95886340Y-100502465D01*
X95886338Y-100502466D01*
X95705377Y-100629175D01*
X95549175Y-100785377D01*
X95422466Y-100966338D01*
X95422465Y-100966340D01*
X95329107Y-101166548D01*
X95329104Y-101166554D01*
X95271930Y-101379929D01*
X95271929Y-101379937D01*
X95252677Y-101599997D01*
X95252677Y-101600002D01*
X95271929Y-101820062D01*
X95271930Y-101820070D01*
X95329104Y-102033445D01*
X95329105Y-102033447D01*
X95329106Y-102033450D01*
X95422466Y-102233662D01*
X95422468Y-102233666D01*
X95549170Y-102414615D01*
X95549175Y-102414621D01*
X95705378Y-102570824D01*
X95705384Y-102570829D01*
X95886333Y-102697531D01*
X95886335Y-102697532D01*
X95886338Y-102697534D01*
X96005748Y-102753215D01*
X96015189Y-102757618D01*
X96067628Y-102803790D01*
X96086780Y-102870984D01*
X96066564Y-102937865D01*
X96015189Y-102982382D01*
X95886340Y-103042465D01*
X95886338Y-103042466D01*
X95705377Y-103169175D01*
X95549175Y-103325377D01*
X95422466Y-103506338D01*
X95422465Y-103506340D01*
X95329107Y-103706548D01*
X95329104Y-103706554D01*
X95271930Y-103919929D01*
X95271929Y-103919937D01*
X95252677Y-104139997D01*
X95252677Y-104140002D01*
X95271929Y-104360062D01*
X95271930Y-104360070D01*
X95329104Y-104573445D01*
X95329105Y-104573447D01*
X95329106Y-104573450D01*
X95422466Y-104773662D01*
X95422468Y-104773666D01*
X95549170Y-104954615D01*
X95549175Y-104954621D01*
X95705378Y-105110824D01*
X95705384Y-105110829D01*
X95886333Y-105237531D01*
X95886335Y-105237532D01*
X95886338Y-105237534D01*
X96005748Y-105293215D01*
X96015189Y-105297618D01*
X96067628Y-105343790D01*
X96086780Y-105410984D01*
X96066564Y-105477865D01*
X96015189Y-105522382D01*
X95886340Y-105582465D01*
X95886338Y-105582466D01*
X95705377Y-105709175D01*
X95549175Y-105865377D01*
X95422466Y-106046338D01*
X95422465Y-106046340D01*
X95329107Y-106246548D01*
X95329104Y-106246554D01*
X95271930Y-106459929D01*
X95271929Y-106459937D01*
X95252677Y-106679997D01*
X95252677Y-106680002D01*
X95271929Y-106900062D01*
X95271930Y-106900070D01*
X95329104Y-107113445D01*
X95329105Y-107113447D01*
X95329106Y-107113450D01*
X95422466Y-107313662D01*
X95422468Y-107313666D01*
X95549170Y-107494615D01*
X95549175Y-107494621D01*
X95705378Y-107650824D01*
X95705384Y-107650829D01*
X95886333Y-107777531D01*
X95886335Y-107777532D01*
X95886338Y-107777534D01*
X96005748Y-107833215D01*
X96015189Y-107837618D01*
X96067628Y-107883790D01*
X96086780Y-107950984D01*
X96066564Y-108017865D01*
X96015189Y-108062382D01*
X95886340Y-108122465D01*
X95886338Y-108122466D01*
X95705377Y-108249175D01*
X95549175Y-108405377D01*
X95422466Y-108586338D01*
X95422465Y-108586340D01*
X95329107Y-108786548D01*
X95329104Y-108786554D01*
X95271930Y-108999929D01*
X95271929Y-108999937D01*
X95252677Y-109219997D01*
X95252677Y-109220002D01*
X95271929Y-109440062D01*
X95271930Y-109440070D01*
X95329104Y-109653445D01*
X95329105Y-109653447D01*
X95329106Y-109653450D01*
X95422466Y-109853662D01*
X95422468Y-109853666D01*
X95549170Y-110034615D01*
X95549175Y-110034621D01*
X95705378Y-110190824D01*
X95705384Y-110190829D01*
X95886333Y-110317531D01*
X95886335Y-110317532D01*
X95886338Y-110317534D01*
X96005748Y-110373215D01*
X96015189Y-110377618D01*
X96067628Y-110423790D01*
X96086780Y-110490984D01*
X96066564Y-110557865D01*
X96015189Y-110602382D01*
X95886340Y-110662465D01*
X95886338Y-110662466D01*
X95705377Y-110789175D01*
X95549175Y-110945377D01*
X95422466Y-111126338D01*
X95422465Y-111126340D01*
X95329107Y-111326548D01*
X95329104Y-111326554D01*
X95271930Y-111539929D01*
X95271929Y-111539937D01*
X95252677Y-111759997D01*
X95252677Y-111760002D01*
X95271929Y-111980062D01*
X95271930Y-111980070D01*
X95329104Y-112193445D01*
X95329105Y-112193447D01*
X95329106Y-112193450D01*
X95422466Y-112393662D01*
X95422468Y-112393666D01*
X95549170Y-112574615D01*
X95549175Y-112574621D01*
X95705378Y-112730824D01*
X95705384Y-112730829D01*
X95886333Y-112857531D01*
X95886335Y-112857532D01*
X95886338Y-112857534D01*
X96005748Y-112913215D01*
X96015189Y-112917618D01*
X96067628Y-112963790D01*
X96086780Y-113030984D01*
X96066564Y-113097865D01*
X96015189Y-113142382D01*
X95886340Y-113202465D01*
X95886338Y-113202466D01*
X95705377Y-113329175D01*
X95549175Y-113485377D01*
X95422466Y-113666338D01*
X95422465Y-113666340D01*
X95329107Y-113866548D01*
X95329104Y-113866554D01*
X95271930Y-114079929D01*
X95271929Y-114079937D01*
X95252677Y-114299997D01*
X95252677Y-114300002D01*
X95271929Y-114520062D01*
X95271930Y-114520070D01*
X95329104Y-114733445D01*
X95329105Y-114733447D01*
X95329106Y-114733450D01*
X95422466Y-114933662D01*
X95422468Y-114933666D01*
X95549170Y-115114615D01*
X95549175Y-115114621D01*
X95705378Y-115270824D01*
X95705384Y-115270829D01*
X95886333Y-115397531D01*
X95886335Y-115397532D01*
X95886338Y-115397534D01*
X96005748Y-115453215D01*
X96015189Y-115457618D01*
X96067628Y-115503790D01*
X96086780Y-115570984D01*
X96066564Y-115637865D01*
X96015189Y-115682382D01*
X95886340Y-115742465D01*
X95886338Y-115742466D01*
X95705377Y-115869175D01*
X95549175Y-116025377D01*
X95422466Y-116206338D01*
X95422465Y-116206340D01*
X95329107Y-116406548D01*
X95329104Y-116406554D01*
X95271930Y-116619929D01*
X95271929Y-116619937D01*
X95252677Y-116839997D01*
X95252677Y-116840002D01*
X95271929Y-117060062D01*
X95271930Y-117060070D01*
X95329104Y-117273445D01*
X95329105Y-117273447D01*
X95329106Y-117273450D01*
X95422466Y-117473662D01*
X95422468Y-117473666D01*
X95549170Y-117654615D01*
X95549175Y-117654621D01*
X95705378Y-117810824D01*
X95705384Y-117810829D01*
X95886333Y-117937531D01*
X95886335Y-117937532D01*
X95886338Y-117937534D01*
X96005748Y-117993215D01*
X96015189Y-117997618D01*
X96067628Y-118043790D01*
X96086780Y-118110984D01*
X96066564Y-118177865D01*
X96015189Y-118222382D01*
X95886340Y-118282465D01*
X95886338Y-118282466D01*
X95705377Y-118409175D01*
X95549175Y-118565377D01*
X95422466Y-118746338D01*
X95422465Y-118746340D01*
X95329107Y-118946548D01*
X95329104Y-118946554D01*
X95271930Y-119159929D01*
X95271929Y-119159937D01*
X95252677Y-119379997D01*
X95252677Y-119380002D01*
X95271929Y-119600062D01*
X95271930Y-119600070D01*
X95329104Y-119813445D01*
X95329105Y-119813447D01*
X95329106Y-119813450D01*
X95422466Y-120013662D01*
X95422468Y-120013666D01*
X95549170Y-120194615D01*
X95549175Y-120194621D01*
X95705378Y-120350824D01*
X95705384Y-120350829D01*
X95886333Y-120477531D01*
X95886335Y-120477532D01*
X95886338Y-120477534D01*
X96005748Y-120533215D01*
X96015189Y-120537618D01*
X96067628Y-120583790D01*
X96086780Y-120650984D01*
X96066564Y-120717865D01*
X96015189Y-120762382D01*
X95886340Y-120822465D01*
X95886338Y-120822466D01*
X95705377Y-120949175D01*
X95549175Y-121105377D01*
X95422466Y-121286338D01*
X95422465Y-121286340D01*
X95329107Y-121486548D01*
X95329104Y-121486554D01*
X95271930Y-121699929D01*
X95271929Y-121699937D01*
X95252677Y-121919997D01*
X95252677Y-121920002D01*
X95271929Y-122140062D01*
X95271930Y-122140070D01*
X95329104Y-122353445D01*
X95329105Y-122353447D01*
X95329106Y-122353450D01*
X95422466Y-122553662D01*
X95422468Y-122553666D01*
X95549170Y-122734615D01*
X95549175Y-122734621D01*
X95705378Y-122890824D01*
X95705384Y-122890829D01*
X95886333Y-123017531D01*
X95886335Y-123017532D01*
X95886338Y-123017534D01*
X96005748Y-123073215D01*
X96015189Y-123077618D01*
X96067628Y-123123790D01*
X96086780Y-123190984D01*
X96066564Y-123257865D01*
X96015189Y-123302382D01*
X95886340Y-123362465D01*
X95886338Y-123362466D01*
X95705377Y-123489175D01*
X95549175Y-123645377D01*
X95422466Y-123826338D01*
X95422465Y-123826340D01*
X95329107Y-124026548D01*
X95329104Y-124026554D01*
X95271930Y-124239929D01*
X95271929Y-124239937D01*
X95252677Y-124459997D01*
X95252677Y-124460002D01*
X95271929Y-124680062D01*
X95271930Y-124680070D01*
X95329104Y-124893445D01*
X95329105Y-124893447D01*
X95329106Y-124893450D01*
X95422466Y-125093662D01*
X95422468Y-125093666D01*
X95549170Y-125274615D01*
X95549175Y-125274621D01*
X95705378Y-125430824D01*
X95705384Y-125430829D01*
X95886333Y-125557531D01*
X95886335Y-125557532D01*
X95886338Y-125557534D01*
X96005748Y-125613215D01*
X96015189Y-125617618D01*
X96067628Y-125663790D01*
X96086780Y-125730984D01*
X96066564Y-125797865D01*
X96015189Y-125842382D01*
X95886340Y-125902465D01*
X95886338Y-125902466D01*
X95705377Y-126029175D01*
X95549175Y-126185377D01*
X95422466Y-126366338D01*
X95422465Y-126366340D01*
X95329107Y-126566548D01*
X95329104Y-126566554D01*
X95271930Y-126779929D01*
X95271929Y-126779937D01*
X95252677Y-126999997D01*
X95252677Y-127000002D01*
X95271929Y-127220062D01*
X95271930Y-127220070D01*
X95329104Y-127433445D01*
X95329105Y-127433447D01*
X95329106Y-127433450D01*
X95422466Y-127633662D01*
X95422468Y-127633666D01*
X95549170Y-127814615D01*
X95549175Y-127814621D01*
X95705378Y-127970824D01*
X95705384Y-127970829D01*
X95886333Y-128097531D01*
X95886335Y-128097532D01*
X95886338Y-128097534D01*
X96005748Y-128153215D01*
X96015189Y-128157618D01*
X96067628Y-128203790D01*
X96086780Y-128270984D01*
X96066564Y-128337865D01*
X96015189Y-128382382D01*
X95886340Y-128442465D01*
X95886338Y-128442466D01*
X95705377Y-128569175D01*
X95549175Y-128725377D01*
X95422466Y-128906338D01*
X95422465Y-128906340D01*
X95329107Y-129106548D01*
X95329104Y-129106554D01*
X95271930Y-129319929D01*
X95271929Y-129319937D01*
X95252677Y-129539997D01*
X95252677Y-129540002D01*
X95271929Y-129760062D01*
X95271930Y-129760070D01*
X95329104Y-129973445D01*
X95329105Y-129973447D01*
X95329106Y-129973450D01*
X95422466Y-130173662D01*
X95422468Y-130173666D01*
X95549170Y-130354615D01*
X95549175Y-130354621D01*
X95705378Y-130510824D01*
X95705384Y-130510829D01*
X95886333Y-130637531D01*
X95886335Y-130637532D01*
X95886338Y-130637534D01*
X96005748Y-130693215D01*
X96015189Y-130697618D01*
X96067628Y-130743790D01*
X96086780Y-130810984D01*
X96066564Y-130877865D01*
X96015189Y-130922382D01*
X95886340Y-130982465D01*
X95886338Y-130982466D01*
X95705377Y-131109175D01*
X95549175Y-131265377D01*
X95422466Y-131446338D01*
X95422465Y-131446340D01*
X95329107Y-131646548D01*
X95329104Y-131646554D01*
X95271930Y-131859929D01*
X95271929Y-131859937D01*
X95252677Y-132079997D01*
X95252677Y-132080002D01*
X86360500Y-132080002D01*
X86360500Y-83478967D01*
X97709500Y-83478967D01*
X97724936Y-83655403D01*
X97724938Y-83655413D01*
X97786094Y-83883655D01*
X97786096Y-83883659D01*
X97786097Y-83883663D01*
X97836031Y-83990746D01*
X97885964Y-84097828D01*
X97885965Y-84097830D01*
X98021505Y-84291402D01*
X98188597Y-84458493D01*
X98188599Y-84458495D01*
X98285384Y-84526265D01*
X98382165Y-84594032D01*
X98382167Y-84594033D01*
X98382170Y-84594035D01*
X98596337Y-84693903D01*
X98824592Y-84755063D01*
X99012918Y-84771539D01*
X99059999Y-84775659D01*
X99060000Y-84775659D01*
X99060001Y-84775659D01*
X99099234Y-84772226D01*
X99295408Y-84755063D01*
X99523663Y-84693903D01*
X99737829Y-84594035D01*
X99931401Y-84458495D01*
X100098495Y-84291401D01*
X100234035Y-84097829D01*
X100333903Y-83883663D01*
X100395063Y-83655408D01*
X100410500Y-83478966D01*
X100410500Y-81280005D01*
X105464357Y-81280005D01*
X105484890Y-81527812D01*
X105484892Y-81527824D01*
X105545936Y-81768881D01*
X105645826Y-81996606D01*
X105781833Y-82204782D01*
X105781836Y-82204785D01*
X105950256Y-82387738D01*
X106146491Y-82540474D01*
X106146493Y-82540475D01*
X106364332Y-82658364D01*
X106365190Y-82658828D01*
X106584141Y-82733994D01*
X106598964Y-82739083D01*
X106600386Y-82739571D01*
X106845665Y-82780500D01*
X107094335Y-82780500D01*
X107339614Y-82739571D01*
X107574810Y-82658828D01*
X107793509Y-82540474D01*
X107989744Y-82387738D01*
X108158164Y-82204785D01*
X108294173Y-81996607D01*
X108394063Y-81768881D01*
X108455108Y-81527821D01*
X108460238Y-81465915D01*
X108475643Y-81280005D01*
X109964859Y-81280005D01*
X109985385Y-81527729D01*
X109985387Y-81527738D01*
X110046412Y-81768717D01*
X110146266Y-81996364D01*
X110246564Y-82149882D01*
X110944070Y-81452376D01*
X110946884Y-81465915D01*
X111016442Y-81600156D01*
X111119638Y-81710652D01*
X111248819Y-81789209D01*
X111300002Y-81803549D01*
X110599942Y-82503609D01*
X110646768Y-82540055D01*
X110646770Y-82540056D01*
X110865385Y-82658364D01*
X110865396Y-82658369D01*
X111100506Y-82739083D01*
X111345707Y-82780000D01*
X111594293Y-82780000D01*
X111839493Y-82739083D01*
X112074603Y-82658369D01*
X112074614Y-82658364D01*
X112293228Y-82540057D01*
X112293231Y-82540055D01*
X112340056Y-82503609D01*
X111641568Y-81805121D01*
X111758458Y-81754349D01*
X111875739Y-81658934D01*
X111962928Y-81535415D01*
X111993354Y-81449802D01*
X112693434Y-82149882D01*
X112793731Y-81996369D01*
X112893587Y-81768717D01*
X112954612Y-81527738D01*
X112954614Y-81527729D01*
X112975141Y-81280005D01*
X115334357Y-81280005D01*
X115354890Y-81527812D01*
X115354892Y-81527824D01*
X115415936Y-81768881D01*
X115515826Y-81996606D01*
X115651833Y-82204782D01*
X115651836Y-82204785D01*
X115820256Y-82387738D01*
X116016491Y-82540474D01*
X116016493Y-82540475D01*
X116234332Y-82658364D01*
X116235190Y-82658828D01*
X116454141Y-82733994D01*
X116468964Y-82739083D01*
X116470386Y-82739571D01*
X116715665Y-82780500D01*
X116964335Y-82780500D01*
X117209614Y-82739571D01*
X117444810Y-82658828D01*
X117663509Y-82540474D01*
X117859744Y-82387738D01*
X118028164Y-82204785D01*
X118164173Y-81996607D01*
X118264063Y-81768881D01*
X118325108Y-81527821D01*
X118330238Y-81465915D01*
X118345643Y-81280005D01*
X119834859Y-81280005D01*
X119855385Y-81527729D01*
X119855387Y-81527738D01*
X119916412Y-81768717D01*
X120016266Y-81996364D01*
X120116564Y-82149882D01*
X120814070Y-81452376D01*
X120816884Y-81465915D01*
X120886442Y-81600156D01*
X120989638Y-81710652D01*
X121118819Y-81789209D01*
X121170002Y-81803549D01*
X120469942Y-82503609D01*
X120516768Y-82540055D01*
X120516770Y-82540056D01*
X120735385Y-82658364D01*
X120735396Y-82658369D01*
X120970506Y-82739083D01*
X121215707Y-82780000D01*
X121464293Y-82780000D01*
X121709493Y-82739083D01*
X121944603Y-82658369D01*
X121944614Y-82658364D01*
X122163228Y-82540057D01*
X122163231Y-82540055D01*
X122210056Y-82503609D01*
X121511568Y-81805121D01*
X121628458Y-81754349D01*
X121745739Y-81658934D01*
X121832928Y-81535415D01*
X121863354Y-81449802D01*
X122563434Y-82149882D01*
X122663731Y-81996369D01*
X122763587Y-81768717D01*
X122824612Y-81527738D01*
X122824614Y-81527729D01*
X122845141Y-81280005D01*
X122845141Y-81279994D01*
X122824614Y-81032270D01*
X122824612Y-81032261D01*
X122763587Y-80791282D01*
X122663731Y-80563630D01*
X122563434Y-80410116D01*
X121865929Y-81107622D01*
X121863116Y-81094085D01*
X121793558Y-80959844D01*
X121690362Y-80849348D01*
X121561181Y-80770791D01*
X121509997Y-80756450D01*
X122210057Y-80056390D01*
X122210056Y-80056389D01*
X122163229Y-80019943D01*
X121944614Y-79901635D01*
X121944603Y-79901630D01*
X121709493Y-79820916D01*
X121464293Y-79780000D01*
X121215707Y-79780000D01*
X120970506Y-79820916D01*
X120735396Y-79901630D01*
X120735390Y-79901632D01*
X120516761Y-80019949D01*
X120469942Y-80056388D01*
X120469942Y-80056390D01*
X121168431Y-80754878D01*
X121051542Y-80805651D01*
X120934261Y-80901066D01*
X120847072Y-81024585D01*
X120816645Y-81110197D01*
X120116564Y-80410116D01*
X120016267Y-80563632D01*
X119916412Y-80791282D01*
X119855387Y-81032261D01*
X119855385Y-81032270D01*
X119834859Y-81279994D01*
X119834859Y-81280005D01*
X118345643Y-81280005D01*
X118345643Y-81279994D01*
X118325109Y-81032187D01*
X118325107Y-81032175D01*
X118264063Y-80791118D01*
X118164173Y-80563393D01*
X118028166Y-80355217D01*
X118006557Y-80331744D01*
X117859744Y-80172262D01*
X117663509Y-80019526D01*
X117663507Y-80019525D01*
X117663506Y-80019524D01*
X117444811Y-79901172D01*
X117444802Y-79901169D01*
X117209616Y-79820429D01*
X116964335Y-79779500D01*
X116715665Y-79779500D01*
X116470383Y-79820429D01*
X116235197Y-79901169D01*
X116235188Y-79901172D01*
X116016493Y-80019524D01*
X115820257Y-80172261D01*
X115651833Y-80355217D01*
X115515826Y-80563393D01*
X115415936Y-80791118D01*
X115354892Y-81032175D01*
X115354890Y-81032187D01*
X115334357Y-81279994D01*
X115334357Y-81280005D01*
X112975141Y-81280005D01*
X112975141Y-81279994D01*
X112954614Y-81032270D01*
X112954612Y-81032261D01*
X112893587Y-80791282D01*
X112793731Y-80563630D01*
X112693434Y-80410116D01*
X111995929Y-81107622D01*
X111993116Y-81094085D01*
X111923558Y-80959844D01*
X111820362Y-80849348D01*
X111691181Y-80770791D01*
X111639997Y-80756450D01*
X112340057Y-80056390D01*
X112340056Y-80056389D01*
X112293229Y-80019943D01*
X112074614Y-79901635D01*
X112074603Y-79901630D01*
X111839493Y-79820916D01*
X111594293Y-79780000D01*
X111345707Y-79780000D01*
X111100506Y-79820916D01*
X110865396Y-79901630D01*
X110865390Y-79901632D01*
X110646761Y-80019949D01*
X110599942Y-80056388D01*
X110599942Y-80056390D01*
X111298431Y-80754878D01*
X111181542Y-80805651D01*
X111064261Y-80901066D01*
X110977072Y-81024585D01*
X110946645Y-81110197D01*
X110246564Y-80410116D01*
X110146267Y-80563632D01*
X110046412Y-80791282D01*
X109985387Y-81032261D01*
X109985385Y-81032270D01*
X109964859Y-81279994D01*
X109964859Y-81280005D01*
X108475643Y-81280005D01*
X108475643Y-81279994D01*
X108455109Y-81032187D01*
X108455107Y-81032175D01*
X108394063Y-80791118D01*
X108294173Y-80563393D01*
X108158166Y-80355217D01*
X108136557Y-80331744D01*
X107989744Y-80172262D01*
X107793509Y-80019526D01*
X107793507Y-80019525D01*
X107793506Y-80019524D01*
X107574811Y-79901172D01*
X107574802Y-79901169D01*
X107339616Y-79820429D01*
X107094335Y-79779500D01*
X106845665Y-79779500D01*
X106600383Y-79820429D01*
X106365197Y-79901169D01*
X106365188Y-79901172D01*
X106146493Y-80019524D01*
X105950257Y-80172261D01*
X105781833Y-80355217D01*
X105645826Y-80563393D01*
X105545936Y-80791118D01*
X105484892Y-81032175D01*
X105484890Y-81032187D01*
X105464357Y-81279994D01*
X105464357Y-81280005D01*
X100410500Y-81280005D01*
X100410500Y-80241034D01*
X100395063Y-80064592D01*
X100333903Y-79836337D01*
X100234035Y-79622171D01*
X100098495Y-79428599D01*
X100098494Y-79428597D01*
X99931402Y-79261506D01*
X99931395Y-79261501D01*
X99737834Y-79125967D01*
X99737830Y-79125965D01*
X99737828Y-79125964D01*
X99523663Y-79026097D01*
X99523659Y-79026096D01*
X99523655Y-79026094D01*
X99295413Y-78964938D01*
X99295403Y-78964936D01*
X99060001Y-78944341D01*
X99059999Y-78944341D01*
X98824596Y-78964936D01*
X98824586Y-78964938D01*
X98596344Y-79026094D01*
X98596335Y-79026098D01*
X98382171Y-79125964D01*
X98382169Y-79125965D01*
X98188597Y-79261505D01*
X98021505Y-79428597D01*
X97885965Y-79622169D01*
X97885964Y-79622171D01*
X97786098Y-79836335D01*
X97786094Y-79836344D01*
X97724938Y-80064586D01*
X97724936Y-80064596D01*
X97709500Y-80241032D01*
X97709500Y-83478967D01*
X86360500Y-83478967D01*
X86360500Y-77030000D01*
X96631322Y-77030000D01*
X96650234Y-77143334D01*
X96729602Y-77374523D01*
X96729605Y-77374531D01*
X96845949Y-77589515D01*
X96845953Y-77589521D01*
X96996082Y-77782406D01*
X96996091Y-77782416D01*
X97175929Y-77947969D01*
X97175933Y-77947972D01*
X97380570Y-78081669D01*
X97604426Y-78179861D01*
X97841394Y-78239869D01*
X98023984Y-78254999D01*
X98023999Y-78255000D01*
X98810000Y-78255000D01*
X98810000Y-77430000D01*
X99310000Y-77430000D01*
X99310000Y-78255000D01*
X100096001Y-78255000D01*
X100096015Y-78254999D01*
X100278605Y-78239869D01*
X100515573Y-78179861D01*
X100739429Y-78081669D01*
X100944066Y-77947972D01*
X100944070Y-77947969D01*
X101123908Y-77782416D01*
X101123917Y-77782406D01*
X101274046Y-77589521D01*
X101274050Y-77589515D01*
X101390394Y-77374531D01*
X101390397Y-77374523D01*
X101469765Y-77143334D01*
X101488678Y-77030000D01*
X100260728Y-77030000D01*
X100283100Y-76982457D01*
X100313873Y-76821138D01*
X100303561Y-76657234D01*
X100262220Y-76530000D01*
X101488677Y-76530000D01*
X101488677Y-76529999D01*
X101469765Y-76416665D01*
X101390397Y-76185476D01*
X101390394Y-76185468D01*
X101274050Y-75970484D01*
X101274046Y-75970478D01*
X101123917Y-75777593D01*
X101123908Y-75777583D01*
X100944070Y-75612030D01*
X100944066Y-75612027D01*
X100739429Y-75478330D01*
X100515573Y-75380138D01*
X100278605Y-75320130D01*
X100096015Y-75305000D01*
X99310000Y-75305000D01*
X99310000Y-76130000D01*
X98810000Y-76130000D01*
X98810000Y-75305000D01*
X98023984Y-75305000D01*
X97841394Y-75320130D01*
X97604426Y-75380138D01*
X97380570Y-75478330D01*
X97175933Y-75612027D01*
X97175929Y-75612030D01*
X96996091Y-75777583D01*
X96996082Y-75777593D01*
X96845953Y-75970478D01*
X96845949Y-75970484D01*
X96729605Y-76185468D01*
X96729602Y-76185476D01*
X96650234Y-76416665D01*
X96631322Y-76529999D01*
X96631323Y-76530000D01*
X97859272Y-76530000D01*
X97836900Y-76577543D01*
X97806127Y-76738862D01*
X97816439Y-76902766D01*
X97857780Y-77030000D01*
X96631322Y-77030000D01*
X86360500Y-77030000D01*
X86360500Y-73660000D01*
X87544341Y-73660000D01*
X87564936Y-73895403D01*
X87564938Y-73895413D01*
X87626094Y-74123655D01*
X87626096Y-74123659D01*
X87626097Y-74123663D01*
X87675683Y-74230000D01*
X87725964Y-74337828D01*
X87725965Y-74337830D01*
X87861505Y-74531402D01*
X88028597Y-74698494D01*
X88222169Y-74834034D01*
X88222171Y-74834035D01*
X88436337Y-74933903D01*
X88664592Y-74995063D01*
X88841032Y-75010499D01*
X88841033Y-75010500D01*
X88841034Y-75010500D01*
X88958967Y-75010500D01*
X88958967Y-75010499D01*
X89135408Y-74995063D01*
X89363663Y-74933903D01*
X89577829Y-74834035D01*
X89654992Y-74780005D01*
X105464357Y-74780005D01*
X105484890Y-75027812D01*
X105484892Y-75027824D01*
X105545936Y-75268881D01*
X105645826Y-75496606D01*
X105781833Y-75704782D01*
X105781836Y-75704785D01*
X105950256Y-75887738D01*
X106146491Y-76040474D01*
X106146493Y-76040475D01*
X106364332Y-76158364D01*
X106365190Y-76158828D01*
X106584141Y-76233994D01*
X106598964Y-76239083D01*
X106600386Y-76239571D01*
X106845665Y-76280500D01*
X107094335Y-76280500D01*
X107339614Y-76239571D01*
X107574810Y-76158828D01*
X107793509Y-76040474D01*
X107989744Y-75887738D01*
X108158164Y-75704785D01*
X108294173Y-75496607D01*
X108394063Y-75268881D01*
X108455108Y-75027821D01*
X108455116Y-75027729D01*
X108475643Y-74780005D01*
X109964859Y-74780005D01*
X109985385Y-75027729D01*
X109985387Y-75027738D01*
X110046412Y-75268717D01*
X110146266Y-75496364D01*
X110246564Y-75649882D01*
X110944070Y-74952376D01*
X110946884Y-74965915D01*
X111016442Y-75100156D01*
X111119638Y-75210652D01*
X111248819Y-75289209D01*
X111300002Y-75303549D01*
X110599942Y-76003609D01*
X110646768Y-76040055D01*
X110646770Y-76040056D01*
X110865385Y-76158364D01*
X110865396Y-76158369D01*
X111100506Y-76239083D01*
X111345707Y-76280000D01*
X111594293Y-76280000D01*
X111839493Y-76239083D01*
X112074603Y-76158369D01*
X112074614Y-76158364D01*
X112293228Y-76040057D01*
X112293231Y-76040055D01*
X112340056Y-76003609D01*
X111641568Y-75305121D01*
X111758458Y-75254349D01*
X111875739Y-75158934D01*
X111962928Y-75035415D01*
X111993354Y-74949802D01*
X112693434Y-75649882D01*
X112793731Y-75496369D01*
X112893587Y-75268717D01*
X112954612Y-75027738D01*
X112954614Y-75027729D01*
X112975141Y-74780005D01*
X115334357Y-74780005D01*
X115354890Y-75027812D01*
X115354892Y-75027824D01*
X115415936Y-75268881D01*
X115515826Y-75496606D01*
X115651833Y-75704782D01*
X115651836Y-75704785D01*
X115820256Y-75887738D01*
X116016491Y-76040474D01*
X116016493Y-76040475D01*
X116234332Y-76158364D01*
X116235190Y-76158828D01*
X116454141Y-76233994D01*
X116468964Y-76239083D01*
X116470386Y-76239571D01*
X116715665Y-76280500D01*
X116964335Y-76280500D01*
X117209614Y-76239571D01*
X117444810Y-76158828D01*
X117663509Y-76040474D01*
X117859744Y-75887738D01*
X118028164Y-75704785D01*
X118164173Y-75496607D01*
X118264063Y-75268881D01*
X118325108Y-75027821D01*
X118325116Y-75027729D01*
X118345643Y-74780005D01*
X119834859Y-74780005D01*
X119855385Y-75027729D01*
X119855387Y-75027738D01*
X119916412Y-75268717D01*
X120016266Y-75496364D01*
X120116564Y-75649882D01*
X120814070Y-74952376D01*
X120816884Y-74965915D01*
X120886442Y-75100156D01*
X120989638Y-75210652D01*
X121118819Y-75289209D01*
X121170002Y-75303549D01*
X120469942Y-76003609D01*
X120516768Y-76040055D01*
X120516770Y-76040056D01*
X120735385Y-76158364D01*
X120735396Y-76158369D01*
X120970506Y-76239083D01*
X121215707Y-76280000D01*
X121464293Y-76280000D01*
X121709493Y-76239083D01*
X121944603Y-76158369D01*
X121944614Y-76158364D01*
X122163228Y-76040057D01*
X122163231Y-76040055D01*
X122210056Y-76003609D01*
X121511568Y-75305121D01*
X121628458Y-75254349D01*
X121745739Y-75158934D01*
X121832928Y-75035415D01*
X121863354Y-74949802D01*
X122563434Y-75649882D01*
X122663731Y-75496369D01*
X122763587Y-75268717D01*
X122824612Y-75027738D01*
X122824614Y-75027729D01*
X122845141Y-74780005D01*
X122845141Y-74779994D01*
X122824614Y-74532270D01*
X122824612Y-74532261D01*
X122763587Y-74291282D01*
X122663731Y-74063630D01*
X122563434Y-73910116D01*
X121865929Y-74607622D01*
X121863116Y-74594085D01*
X121793558Y-74459844D01*
X121690362Y-74349348D01*
X121561181Y-74270791D01*
X121509997Y-74256450D01*
X122106447Y-73660000D01*
X125644341Y-73660000D01*
X125664936Y-73895403D01*
X125664938Y-73895413D01*
X125726094Y-74123655D01*
X125726096Y-74123659D01*
X125726097Y-74123663D01*
X125775683Y-74230000D01*
X125825964Y-74337828D01*
X125825965Y-74337830D01*
X125961505Y-74531402D01*
X126128597Y-74698494D01*
X126322169Y-74834034D01*
X126322171Y-74834035D01*
X126536337Y-74933903D01*
X126764592Y-74995063D01*
X126941032Y-75010499D01*
X126941033Y-75010500D01*
X126941034Y-75010500D01*
X127058967Y-75010500D01*
X127058967Y-75010499D01*
X127235408Y-74995063D01*
X127463663Y-74933903D01*
X127677829Y-74834035D01*
X127871401Y-74698495D01*
X128038495Y-74531401D01*
X128174035Y-74337830D01*
X128273903Y-74123663D01*
X128335063Y-73895408D01*
X128355659Y-73660000D01*
X128335063Y-73424592D01*
X128273903Y-73196337D01*
X128174035Y-72982171D01*
X128174034Y-72982169D01*
X128038494Y-72788597D01*
X127871402Y-72621505D01*
X127677830Y-72485965D01*
X127677828Y-72485964D01*
X127482489Y-72394876D01*
X127463663Y-72386097D01*
X127463659Y-72386096D01*
X127463655Y-72386094D01*
X127235413Y-72324938D01*
X127235403Y-72324936D01*
X127058967Y-72309500D01*
X127058966Y-72309500D01*
X126941034Y-72309500D01*
X126941033Y-72309500D01*
X126764596Y-72324936D01*
X126764586Y-72324938D01*
X126536344Y-72386094D01*
X126536335Y-72386098D01*
X126322171Y-72485964D01*
X126322169Y-72485965D01*
X126128597Y-72621505D01*
X125961506Y-72788597D01*
X125961501Y-72788604D01*
X125825967Y-72982165D01*
X125825965Y-72982169D01*
X125726098Y-73196335D01*
X125726094Y-73196344D01*
X125664938Y-73424586D01*
X125664936Y-73424596D01*
X125644341Y-73659999D01*
X125644341Y-73660000D01*
X122106447Y-73660000D01*
X122210057Y-73556390D01*
X122210056Y-73556389D01*
X122163229Y-73519943D01*
X121944614Y-73401635D01*
X121944603Y-73401630D01*
X121709493Y-73320916D01*
X121464293Y-73280000D01*
X121215707Y-73280000D01*
X120970506Y-73320916D01*
X120735396Y-73401630D01*
X120735390Y-73401632D01*
X120516761Y-73519949D01*
X120469942Y-73556388D01*
X120469942Y-73556390D01*
X121168431Y-74254878D01*
X121051542Y-74305651D01*
X120934261Y-74401066D01*
X120847072Y-74524585D01*
X120816645Y-74610197D01*
X120116564Y-73910116D01*
X120016267Y-74063632D01*
X119916412Y-74291282D01*
X119855387Y-74532261D01*
X119855385Y-74532270D01*
X119834859Y-74779994D01*
X119834859Y-74780005D01*
X118345643Y-74780005D01*
X118345643Y-74779994D01*
X118325109Y-74532187D01*
X118325107Y-74532175D01*
X118264063Y-74291118D01*
X118164173Y-74063393D01*
X118028166Y-73855217D01*
X118006557Y-73831744D01*
X117859744Y-73672262D01*
X117663509Y-73519526D01*
X117663507Y-73519525D01*
X117663506Y-73519524D01*
X117444811Y-73401172D01*
X117444802Y-73401169D01*
X117209616Y-73320429D01*
X116964335Y-73279500D01*
X116715665Y-73279500D01*
X116470383Y-73320429D01*
X116235197Y-73401169D01*
X116235188Y-73401172D01*
X116016493Y-73519524D01*
X115820257Y-73672261D01*
X115651833Y-73855217D01*
X115515826Y-74063393D01*
X115415936Y-74291118D01*
X115354892Y-74532175D01*
X115354890Y-74532187D01*
X115334357Y-74779994D01*
X115334357Y-74780005D01*
X112975141Y-74780005D01*
X112975141Y-74779994D01*
X112954614Y-74532270D01*
X112954612Y-74532261D01*
X112893587Y-74291282D01*
X112793731Y-74063630D01*
X112693434Y-73910116D01*
X111995929Y-74607622D01*
X111993116Y-74594085D01*
X111923558Y-74459844D01*
X111820362Y-74349348D01*
X111691181Y-74270791D01*
X111639997Y-74256450D01*
X112340057Y-73556390D01*
X112340056Y-73556389D01*
X112293229Y-73519943D01*
X112074614Y-73401635D01*
X112074603Y-73401630D01*
X111839493Y-73320916D01*
X111594293Y-73280000D01*
X111345707Y-73280000D01*
X111100506Y-73320916D01*
X110865396Y-73401630D01*
X110865390Y-73401632D01*
X110646761Y-73519949D01*
X110599942Y-73556388D01*
X110599942Y-73556390D01*
X111298431Y-74254878D01*
X111181542Y-74305651D01*
X111064261Y-74401066D01*
X110977072Y-74524585D01*
X110946645Y-74610197D01*
X110246564Y-73910116D01*
X110146267Y-74063632D01*
X110046412Y-74291282D01*
X109985387Y-74532261D01*
X109985385Y-74532270D01*
X109964859Y-74779994D01*
X109964859Y-74780005D01*
X108475643Y-74780005D01*
X108475643Y-74779994D01*
X108455109Y-74532187D01*
X108455107Y-74532175D01*
X108394063Y-74291118D01*
X108294173Y-74063393D01*
X108158166Y-73855217D01*
X108136557Y-73831744D01*
X107989744Y-73672262D01*
X107793509Y-73519526D01*
X107793507Y-73519525D01*
X107793506Y-73519524D01*
X107574811Y-73401172D01*
X107574802Y-73401169D01*
X107339616Y-73320429D01*
X107094335Y-73279500D01*
X106845665Y-73279500D01*
X106600383Y-73320429D01*
X106365197Y-73401169D01*
X106365188Y-73401172D01*
X106146493Y-73519524D01*
X105950257Y-73672261D01*
X105781833Y-73855217D01*
X105645826Y-74063393D01*
X105545936Y-74291118D01*
X105484892Y-74532175D01*
X105484890Y-74532187D01*
X105464357Y-74779994D01*
X105464357Y-74780005D01*
X89654992Y-74780005D01*
X89771401Y-74698495D01*
X89938495Y-74531401D01*
X89991369Y-74455889D01*
X93909416Y-74455889D01*
X93909459Y-74480000D01*
X93909500Y-74480099D01*
X93909617Y-74480383D01*
X93909618Y-74480384D01*
X93909808Y-74480462D01*
X93910000Y-74480541D01*
X93910002Y-74480539D01*
X93934616Y-74480524D01*
X93934616Y-74480528D01*
X93934760Y-74480500D01*
X95685240Y-74480500D01*
X95685383Y-74480528D01*
X95685384Y-74480524D01*
X95709997Y-74480539D01*
X95710000Y-74480541D01*
X95710383Y-74480383D01*
X95710500Y-74480099D01*
X95710541Y-74480000D01*
X95710540Y-74479997D01*
X95710583Y-74455889D01*
X102409416Y-74455889D01*
X102409459Y-74480000D01*
X102409500Y-74480099D01*
X102409617Y-74480383D01*
X102409618Y-74480384D01*
X102409808Y-74480462D01*
X102410000Y-74480541D01*
X102410002Y-74480539D01*
X102434616Y-74480524D01*
X102434616Y-74480528D01*
X102434760Y-74480500D01*
X104185240Y-74480500D01*
X104185383Y-74480528D01*
X104185384Y-74480524D01*
X104209997Y-74480539D01*
X104210000Y-74480541D01*
X104210383Y-74480383D01*
X104210500Y-74480099D01*
X104210541Y-74480000D01*
X104210540Y-74479997D01*
X104210583Y-74455889D01*
X104210500Y-74455467D01*
X104210500Y-72804759D01*
X104210528Y-72804616D01*
X104210524Y-72804616D01*
X104210539Y-72780002D01*
X104210541Y-72780000D01*
X104210462Y-72779808D01*
X104210384Y-72779618D01*
X104210380Y-72779614D01*
X104210194Y-72779538D01*
X104210002Y-72779459D01*
X104185446Y-72779459D01*
X104185240Y-72779500D01*
X102434760Y-72779500D01*
X102434554Y-72779459D01*
X102409998Y-72779459D01*
X102409807Y-72779538D01*
X102409619Y-72779615D01*
X102409615Y-72779618D01*
X102409459Y-72779999D01*
X102409476Y-72804616D01*
X102409471Y-72804616D01*
X102409500Y-72804759D01*
X102409500Y-74455467D01*
X102409416Y-74455889D01*
X95710583Y-74455889D01*
X95710500Y-74455467D01*
X95710500Y-72804759D01*
X95710528Y-72804616D01*
X95710524Y-72804616D01*
X95710539Y-72780002D01*
X95710541Y-72780000D01*
X95710462Y-72779808D01*
X95710384Y-72779618D01*
X95710380Y-72779614D01*
X95710194Y-72779538D01*
X95710002Y-72779459D01*
X95685446Y-72779459D01*
X95685240Y-72779500D01*
X93934760Y-72779500D01*
X93934554Y-72779459D01*
X93909998Y-72779459D01*
X93909807Y-72779538D01*
X93909619Y-72779615D01*
X93909615Y-72779618D01*
X93909459Y-72779999D01*
X93909476Y-72804616D01*
X93909471Y-72804616D01*
X93909500Y-72804759D01*
X93909500Y-74455467D01*
X93909416Y-74455889D01*
X89991369Y-74455889D01*
X90074035Y-74337830D01*
X90173903Y-74123663D01*
X90235063Y-73895408D01*
X90255659Y-73660000D01*
X90235063Y-73424592D01*
X90173903Y-73196337D01*
X90074035Y-72982171D01*
X90074034Y-72982169D01*
X89938494Y-72788597D01*
X89771402Y-72621505D01*
X89577830Y-72485965D01*
X89577828Y-72485964D01*
X89382489Y-72394876D01*
X89363663Y-72386097D01*
X89363659Y-72386096D01*
X89363655Y-72386094D01*
X89135413Y-72324938D01*
X89135403Y-72324936D01*
X88958967Y-72309500D01*
X88958966Y-72309500D01*
X88841034Y-72309500D01*
X88841033Y-72309500D01*
X88664596Y-72324936D01*
X88664586Y-72324938D01*
X88436344Y-72386094D01*
X88436335Y-72386098D01*
X88222171Y-72485964D01*
X88222169Y-72485965D01*
X88028597Y-72621505D01*
X87861506Y-72788597D01*
X87861501Y-72788604D01*
X87725967Y-72982165D01*
X87725965Y-72982169D01*
X87626098Y-73196335D01*
X87626094Y-73196344D01*
X87564938Y-73424586D01*
X87564936Y-73424596D01*
X87544341Y-73659999D01*
X87544341Y-73660000D01*
X86360500Y-73660000D01*
X86360500Y-72394873D01*
X86360882Y-72385146D01*
X86360882Y-72385144D01*
X86364964Y-72333278D01*
X86365004Y-72332795D01*
X86377286Y-72192416D01*
X86380235Y-72174305D01*
X86399162Y-72095469D01*
X86399901Y-72092559D01*
X86428133Y-71987196D01*
X86433343Y-71971848D01*
X86466637Y-71891469D01*
X86468754Y-71886656D01*
X86512336Y-71793196D01*
X86518954Y-71780878D01*
X86565572Y-71704806D01*
X86569673Y-71698552D01*
X86627608Y-71615812D01*
X86634843Y-71606468D01*
X86693323Y-71537996D01*
X86699883Y-71530900D01*
X86770900Y-71459883D01*
X86777996Y-71453323D01*
X86846468Y-71394843D01*
X86855812Y-71387608D01*
X86938552Y-71329673D01*
X86944806Y-71325572D01*
X87020878Y-71278954D01*
X87033196Y-71272336D01*
X87126656Y-71228754D01*
X87131469Y-71226637D01*
X87211853Y-71193341D01*
X87227196Y-71188133D01*
X87332559Y-71159901D01*
X87335469Y-71159162D01*
X87414305Y-71140235D01*
X87432416Y-71137286D01*
X87572790Y-71125005D01*
X87573342Y-71124959D01*
X87619382Y-71121335D01*
X87625148Y-71120882D01*
X87634874Y-71120500D01*
X128265126Y-71120500D01*
X128274853Y-71120882D01*
G37*
%TD.AperFunction*%
%TD*%
M02*
